<?xml version="1.0" standalone="no"?>
<!DOCTYPE svg PUBLIC "-//W3C//DTD SVG 20010904//EN"
 "http://www.w3.org/TR/2001/REC-SVG-20010904/DTD/svg10.dtd">
<svg version="1.0" xmlns="http://www.w3.org/2000/svg"
 width="300.000000pt" height="300.000000pt" viewBox="0 0 300.000000 300.000000"
 preserveAspectRatio="xMidYMid meet">
<metadata>
Created by potrace 1.10, written by Peter Selinger 2001-2011
</metadata>
<g transform="translate(0.000000,300.000000) scale(0.100000,-0.100000)"
fill="#000000" stroke="none">
<path d="M1465 2142 c-55 -4 -195 -36 -195 -44 0 -5 -8 -8 -17 -9 -10 0 -31
-9 -48 -20 -16 -10 -39 -23 -50 -28 -28 -12 -147 -138 -177 -186 -13 -22 -30
-56 -37 -75 -7 -19 -17 -44 -21 -55 -5 -11 -11 -40 -15 -64 -10 -78 -9 -77
-156 -84 -137 -6 -169 -16 -156 -51 5 -13 28 -16 139 -18 92 -1 119 -3 88 -8
l-45 -7 56 -1 c57 -2 79 -18 63 -44 -4 -6 -2 -13 4 -17 6 -4 12 -22 14 -40 1
-18 6 -35 10 -37 4 -3 8 -13 8 -22 1 -9 9 -33 20 -52 10 -19 25 -50 34 -67 19
-41 161 -183 182 -183 3 0 12 -7 21 -15 8 -8 19 -13 24 -10 5 4 9 2 9 -2 0 -5
29 -17 65 -28 36 -10 65 -22 65 -27 0 -5 5 -6 10 -3 6 4 19 4 28 0 22 -9 192
-9 214 0 9 4 22 4 28 0 5 -3 10 -1 10 5 0 6 4 9 9 5 5 -3 12 -1 16 5 3 5 17
10 30 10 13 0 27 5 30 10 4 6 11 8 16 5 5 -4 9 -1 9 5 0 6 5 8 10 5 6 -3 10
-1 10 5 0 6 4 9 9 6 12 -8 108 66 163 126 44 47 108 153 108 178 0 6 9 30 20
52 11 23 20 54 20 69 0 54 7 59 84 61 67 1 68 2 21 7 -37 4 -17 7 74 11 73 3
126 9 128 15 2 6 -3 19 -10 29 -11 15 -34 18 -149 23 -151 7 -148 5 -148 81 0
20 -4 31 -10 27 -5 -3 -10 2 -10 13 0 31 -41 122 -81 183 -46 68 -150 164
-196 181 -18 7 -33 16 -33 20 0 4 -12 8 -27 8 -14 0 -23 3 -19 7 15 15 -183
51 -249 45z m213 -58 c210 -69 366 -261 389 -476 l6 -58 153 0 c96 0 154 -4
154 -10 0 -8 -199 -16 -297 -13 -8 1 -13 -13 -13 -34 0 -111 -73 -267 -170
-363 -339 -336 -919 -138 -978 335 -5 43 -11 60 -22 61 -8 1 -77 2 -152 2 -84
1 -138 6 -138 12 0 6 58 10 155 10 l155 0 0 36 c0 103 70 260 154 348 159 165
387 222 604 150z"/>
<path d="M1422 2079 c-38 -19 -112 -91 -112 -110 0 -4 12 -10 27 -14 15 -3 49
-22 74 -40 l47 -33 6 31 c12 60 19 187 10 187 -5 0 -28 -10 -52 -21z m22 -79
c1 -53 -5 -67 -26 -53 -7 4 -15 8 -18 9 -3 0 -16 5 -30 11 l-25 10 44 42 c24
23 46 40 48 37 3 -3 6 -28 7 -56z"/>
<path d="M1513 2010 c4 -50 9 -96 12 -101 3 -5 30 5 59 21 29 17 62 30 74 30
29 0 28 5 -8 50 -32 40 -77 72 -119 85 l-24 7 6 -92z m73 24 c19 -9 31 -20 28
-25 -3 -5 0 -9 5 -9 6 0 11 -6 11 -13 0 -15 -65 -41 -80 -32 -11 7 -14 95 -4
95 3 0 21 -7 40 -16z"/>
<path d="M1313 2066 c-83 -31 -165 -81 -211 -130 -34 -36 -34 -37 -7 -19 40
27 117 53 159 53 28 0 38 7 61 40 16 22 40 49 54 60 34 25 20 24 -56 -4z m-30
-56 c-4 -15 -14 -20 -42 -20 -30 1 -33 2 -18 11 10 6 21 8 24 5 3 -3 12 1 20
9 19 20 22 19 16 -5z"/>
<path d="M1612 2073 c15 -10 41 -36 58 -58 27 -34 40 -41 91 -52 121 -24 202
-101 240 -225 16 -52 20 -83 15 -123 -5 -47 -4 -53 14 -58 17 -4 20 0 20 26 0
53 -28 154 -59 215 -69 136 -223 253 -378 288 l-28 6 27 -19z m133 -81 c-16
-2 -32 2 -36 10 -15 24 -9 26 27 9 l37 -16 -28 -3z"/>
<path d="M1173 1936 c-135 -43 -213 -165 -200 -314 13 -131 77 -219 267 -362
64 -49 143 -111 175 -139 32 -28 62 -51 67 -51 16 0 403 317 434 356 50 63 74
120 81 187 6 72 -14 159 -50 212 -51 74 -146 125 -236 125 -60 0 -161 -48
-198 -95 l-26 -33 -41 40 c-81 79 -175 104 -273 74z m182 -22 c36 -15 38 -18
20 -26 -18 -8 -18 -8 3 -4 16 3 33 -7 62 -35 21 -21 43 -39 48 -39 6 0 17 12
27 26 10 15 22 23 31 20 9 -3 14 1 14 13 0 30 83 64 155 64 154 1 267 -119
269 -286 1 -59 -4 -83 -26 -130 -33 -70 -84 -127 -107 -120 -12 4 -13 2 -3 -4
17 -12 -21 -49 -39 -37 -7 4 -10 3 -6 -3 9 -14 -29 -47 -44 -37 -7 4 -10 3 -5
-4 3 -6 -5 -19 -20 -29 -14 -10 -33 -26 -42 -35 -17 -19 -37 -25 -27 -8 3 6
-1 7 -10 3 -11 -4 -13 -8 -6 -13 8 -4 4 -13 -9 -25 -18 -17 -23 -17 -32 -5 -8
13 -9 12 -5 -2 8 -24 -25 -50 -51 -41 -19 7 -8 19 88 96 77 61 114 85 127 81
13 -4 14 -3 5 3 -10 7 3 24 52 67 35 31 73 74 83 96 10 22 23 38 30 35 8 -3
10 7 6 32 -4 26 -3 34 5 29 7 -4 13 0 13 11 1 10 3 28 4 41 1 12 -2 22 -6 22
-5 0 -9 15 -9 33 0 18 -7 42 -15 54 -8 12 -13 27 -12 35 2 7 2 10 -1 5 -2 -4
-22 10 -44 32 -21 22 -52 46 -68 53 -16 7 -26 16 -23 21 3 4 -25 7 -61 5 -36
-2 -66 -6 -66 -9 0 -4 -13 -12 -30 -19 -16 -7 -41 -24 -55 -38 -22 -22 -28
-24 -36 -12 -8 12 -9 10 -5 -6 4 -14 -2 -28 -22 -47 l-27 -26 -70 69 c-39 38
-76 69 -82 70 -7 0 -13 3 -13 8 0 4 -21 8 -47 10 -62 4 -146 -36 -194 -94 -33
-39 -37 -41 -42 -22 -7 25 9 53 40 69 13 7 23 16 23 21 0 5 10 6 23 3 17 -5
18 -4 7 4 -12 9 -12 11 3 16 97 38 149 40 222 9z m-27 -43 c20 -11 62 -45 92
-75 30 -31 59 -56 65 -56 6 0 35 25 64 56 86 90 158 112 243 75 90 -40 141
-120 142 -227 1 -88 -38 -159 -130 -238 -64 -55 -276 -227 -309 -250 -9 -7
-30 5 -72 40 -32 27 -96 78 -143 113 -189 142 -243 218 -244 341 0 105 51 183
145 221 58 23 101 23 147 0z m-308 -163 c-11 -21 -15 -38 -10 -38 6 0 10 -19
10 -42 0 -24 9 -62 20 -86 10 -23 17 -50 14 -60 -4 -12 -3 -14 4 -4 7 10 13 8
25 -12 10 -14 36 -44 59 -67 24 -23 35 -39 25 -36 -11 4 -16 3 -12 -4 4 -6 13
-8 21 -5 13 5 130 -78 248 -176 54 -45 60 -48 80 -35 11 8 29 11 39 8 17 -6
17 -8 -1 -25 -11 -9 -26 -18 -34 -20 -7 -1 -18 -5 -23 -8 -6 -4 -26 5 -44 19
-25 20 -30 28 -19 35 9 7 8 8 -5 4 -13 -4 -33 7 -65 35 -26 23 -46 46 -44 51
1 5 -1 7 -6 4 -17 -11 -198 127 -188 143 3 5 0 8 -8 7 -21 -2 -73 69 -96 132
-18 46 -21 73 -18 137 3 44 10 94 18 110 l13 30 8 -30 c6 -22 4 -39 -11 -67z"/>
<path d="M1576 1881 c-4 -5 3 -7 14 -4 23 6 26 13 6 13 -8 0 -17 -4 -20 -9z"/>
<path d="M1050 1819 c0 -5 5 -7 10 -4 6 3 10 8 10 11 0 2 -4 4 -10 4 -5 0 -10
-5 -10 -11z"/>
<path d="M1921 1484 c0 -11 3 -14 6 -6 3 7 2 16 -1 19 -3 4 -6 -2 -5 -13z"/>
<path d="M1185 1820 c-56 -27 -69 -39 -88 -88 -38 -95 -12 -188 78 -276 33
-32 76 -69 95 -81 19 -12 72 -52 118 -89 45 -36 90 -66 98 -66 20 0 286 212
336 268 68 75 83 145 52 235 -27 79 -109 127 -191 113 -29 -6 -51 -21 -93 -65
-58 -60 -87 -81 -114 -81 -9 0 -44 29 -80 65 -89 90 -132 103 -211 65z m113 0
c7 0 44 -31 81 -70 61 -62 73 -70 106 -70 33 0 45 8 105 69 73 75 111 92 164
71 79 -30 116 -85 117 -173 2 -96 -29 -134 -234 -299 -101 -81 -154 -118 -162
-112 -7 5 -39 30 -71 56 -32 26 -99 77 -149 115 -109 83 -147 138 -153 223 -2
32 1 74 8 94 18 56 103 111 155 101 11 -3 26 -5 33 -5z"/>
<path d="M1488 1606 c-3 -41 -11 -72 -19 -77 -8 -5 -41 -9 -74 -10 -45 -1 -54
-3 -35 -9 14 -4 44 -8 68 -9 50 -1 61 -20 63 -104 l2 -52 7 67 c5 37 11 72 15
78 3 5 25 10 48 11 23 1 53 5 67 9 19 6 10 8 -35 9 -33 1 -66 5 -72 9 -7 4
-16 39 -21 77 l-8 70 -6 -69z m20 -97 c-2 -6 -8 -10 -13 -10 -5 0 -11 4 -13
10 -2 6 4 11 13 11 9 0 15 -5 13 -11z"/>
<path d="M1065 1450 c3 -5 8 -10 11 -10 2 0 4 5 4 10 0 6 -5 10 -11 10 -5 0
-7 -4 -4 -10z"/>
<path d="M946 1655 c-11 -30 -7 -107 6 -103 8 3 11 23 9 59 -3 60 -6 68 -15
44z"/>
<path d="M940 1487 c0 -107 66 -246 164 -342 77 -76 144 -117 240 -146 l61
-19 -31 25 c-47 36 -84 90 -119 172 -29 65 -40 79 -107 132 -72 57 -133 127
-159 184 -18 40 -49 36 -49 -6z m66 -74 c24 -37 125 -133 139 -133 12 0 60
-54 71 -80 32 -71 40 -88 61 -121 l22 -37 -30 11 c-16 6 -29 15 -29 19 0 4 -7
8 -15 8 -14 0 -142 121 -175 165 -40 54 -91 195 -70 195 4 0 16 -12 26 -27z"/>
<path d="M1971 1474 c-23 -42 -172 -194 -191 -194 -5 0 -18 -29 -30 -64 -26
-79 -85 -173 -131 -209 l-34 -26 50 14 c197 59 349 213 400 405 8 30 15 70 15
88 0 28 -3 32 -28 32 -22 0 -31 -8 -51 -46z m45 -43 c-3 -27 -17 -69 -30 -94
-14 -25 -22 -48 -19 -51 4 -3 1 -6 -5 -6 -6 0 -14 -10 -18 -22 -20 -65 -244
-246 -244 -197 0 5 5 9 11 9 5 0 7 5 4 10 -3 6 -2 10 3 10 10 0 36 58 33 73 0
4 3 7 8 7 4 0 14 20 21 45 7 25 16 45 20 45 23 0 170 146 170 170 0 5 8 14 18
19 9 6 13 11 9 11 -12 0 2 20 15 20 7 0 8 -17 4 -49z"/>
<path d="M1624 1156 c-106 -87 -112 -93 -115 -133 -3 -31 0 -43 9 -43 26 0 90
40 122 76 31 35 107 181 99 188 -2 2 -54 -38 -115 -88z m42 -20 c-4 -26 -96
-116 -120 -116 -29 0 51 99 80 100 6 0 17 7 24 15 15 19 19 19 16 1z"/>
<path d="M1270 1185 c37 -87 94 -156 152 -186 52 -27 58 -24 58 21 0 22 -5 40
-11 40 -6 0 -50 33 -97 73 -133 111 -126 108 -102 52z m114 -96 c-3 -5 -2 -9
3 -9 10 0 63 -45 63 -54 0 -15 -23 -3 -60 30 -44 40 -50 55 -20 47 11 -3 17
-9 14 -14z"/>
</g>
</svg>
