<?xml version="1.0" standalone="no"?>
<!DOCTYPE svg PUBLIC "-//W3C//DTD SVG 20010904//EN"
 "http://www.w3.org/TR/2001/REC-SVG-20010904/DTD/svg10.dtd">
<svg version="1.0" xmlns="http://www.w3.org/2000/svg"
 width="900.000000pt" height="900.000000pt" viewBox="0 0 900.000000 900.000000"
 preserveAspectRatio="xMidYMid meet">
<metadata>
Created by potrace 1.10, written by Peter Selinger 2001-2011
</metadata>
<g transform="translate(0.000000,900.000000) scale(0.100000,-0.100000)"
fill="#b30000" stroke="none">
<path d="M4213 7213 c-13 -2 -43 -23 -69 -46 -39 -35 -47 -49 -51 -87 -3 -25
-11 -54 -18 -64 -13 -17 -16 -16 -47 13 -18 17 -38 31 -44 31 -7 0 -18 10 -26
23 -24 36 -98 67 -159 66 -73 0 -128 -25 -189 -82 l-50 -48 -2 -72 c0 -40 0
-85 1 -101 3 -35 -7 -76 -18 -76 -4 0 -13 17 -19 38 -8 25 -31 53 -69 85 l-56
49 -61 -7 c-67 -8 -110 -26 -119 -50 -4 -8 -17 -15 -30 -15 -23 0 -39 -12
-117 -85 -19 -18 -46 -36 -60 -40 -14 -4 -38 -18 -53 -31 -16 -13 -35 -24 -42
-24 -19 0 -115 -78 -115 -94 0 -7 -7 -19 -15 -26 -8 -7 -15 -20 -15 -30 0 -10
-7 -24 -17 -31 -9 -8 -22 -29 -30 -46 -7 -18 -20 -33 -29 -33 -26 0 -127 -75
-191 -142 -132 -137 -189 -224 -200 -308 -5 -35 -1 -43 43 -90 27 -28 60 -57
75 -63 42 -18 169 -144 169 -167 0 -24 6 -24 -72 -3 -81 21 -120 25 -244 26
-94 2 -103 0 -135 -24 -57 -43 -67 -43 -128 -3 -85 55 -101 73 -101 110 0 41
-18 54 -22 17 l-3 -28 -95 -3 c-52 -2 -99 -7 -104 -12 -6 -6 10 -17 40 -30 57
-24 114 -52 129 -63 5 -4 53 -39 105 -78 137 -101 369 -332 432 -431 10 -15
37 -46 59 -68 59 -58 71 -38 23 36 -22 33 -41 64 -44 69 -3 6 -23 37 -45 69
-22 31 -44 65 -50 74 -28 46 -111 154 -158 204 -28 31 -52 63 -52 70 0 18 126
14 265 -7 232 -36 375 -91 459 -175 27 -26 52 -45 58 -42 15 11 53 78 53 96 0
9 4 16 9 16 5 0 13 10 17 22 14 45 182 256 289 364 105 105 238 205 353 264
23 12 44 26 47 30 2 4 33 18 67 30 35 13 68 26 73 30 38 28 253 87 365 101 41
5 105 14 141 20 115 20 423 -4 584 -44 96 -24 139 -38 150 -48 5 -5 16 -9 25
-9 8 -1 33 -9 55 -20 22 -11 45 -19 51 -20 23 0 183 -92 294 -168 109 -75 286
-241 344 -322 14 -19 30 -40 35 -46 23 -27 101 -146 101 -154 0 -5 6 -15 13
-22 7 -7 24 -37 37 -65 14 -29 30 -53 36 -53 6 0 24 17 41 38 36 44 138 98
258 136 93 29 164 42 295 57 52 5 110 14 129 19 65 17 69 -15 9 -80 -57 -63
-141 -176 -230 -310 -82 -125 -95 -154 -77 -166 12 -7 18 -1 69 65 14 18 30
38 35 44 216 250 259 293 438 429 78 59 183 118 211 118 17 0 39 34 29 44 -3
3 -46 6 -93 6 -65 0 -91 4 -100 15 -17 21 -6 32 42 38 24 3 81 13 128 22 47 8
125 20 174 25 49 5 98 13 109 16 11 4 110 12 219 18 116 6 199 15 200 21 4 35
-250 71 -387 56 -44 -5 -82 -8 -85 -6 -3 2 -30 -3 -60 -11 -30 -8 -75 -14
-100 -14 -28 0 -56 -8 -75 -20 -16 -11 -37 -20 -45 -20 -52 0 -140 -81 -140
-127 0 -29 -40 -75 -98 -112 -59 -37 -71 -38 -125 -7 -69 40 -148 42 -366 10
l-44 -7 7 28 c9 36 30 62 83 105 62 50 125 117 147 156 17 29 18 39 8 67 -7
18 -12 43 -12 54 0 12 -7 23 -15 27 -8 3 -15 12 -15 19 0 16 -74 96 -111 121
-15 9 -46 20 -70 24 -43 7 -44 8 -41 43 2 23 -3 43 -16 59 -11 14 -23 36 -27
50 -8 26 -85 130 -96 130 -3 0 -27 16 -52 35 -43 33 -50 35 -96 29 -47 -6 -52
-5 -81 27 -18 19 -39 49 -47 68 -30 70 -144 161 -203 161 -25 0 -40 7 -56 27
-21 27 -23 27 -59 14 -32 -11 -39 -11 -54 3 -10 9 -28 16 -42 16 -15 0 -45 19
-79 51 -79 73 -134 108 -199 125 -31 8 -81 22 -111 30 -30 8 -80 22 -110 31
-39 11 -77 14 -136 10 -69 -5 -88 -3 -120 14 -27 13 -59 19 -107 19 -57 0 -74
-4 -101 -25 -41 -31 -46 -31 -110 2 -44 23 -65 27 -151 29 -55 1 -110 0 -122
-3z m241 -116 c20 -18 36 -37 36 -41 0 -7 40 -67 51 -76 8 -7 56 -89 69 -118
6 -13 16 -22 23 -19 9 3 11 28 8 93 -3 71 -7 93 -22 107 -47 44 -7 87 81 87
42 0 66 -5 80 -17 26 -22 26 -59 0 -73 -19 -10 -20 -21 -20 -205 0 -183 1
-196 20 -212 24 -21 26 -50 3 -75 -13 -15 -32 -18 -110 -18 l-93 0 -37 38
c-40 39 -143 187 -169 242 -16 32 -48 69 -56 64 -4 -3 -5 -56 -2 -117 5 -85
11 -117 24 -132 29 -33 30 -51 6 -74 -19 -18 -35 -21 -99 -21 -46 0 -92 -6
-114 -15 -19 -8 -43 -15 -52 -15 -9 -1 -34 -9 -56 -20 -51 -24 -68 -25 -89 -1
-11 13 -16 32 -14 62 3 39 1 44 -20 47 -21 3 -104 -19 -142 -38 -24 -11 -24
-40 0 -65 13 -13 20 -33 18 -46 -3 -24 -50 -57 -82 -58 -16 -1 -115 -60 -136
-81 -3 -3 -27 -20 -53 -39 -44 -30 -51 -32 -73 -21 -24 13 -28 24 -24 67 2 31
-60 133 -82 133 -21 0 -87 -41 -88 -55 0 -21 91 -125 110 -125 11 0 24 -9 30
-21 19 -34 4 -64 -45 -90 -25 -13 -45 -27 -45 -31 0 -5 -5 -8 -11 -8 -6 0 -30
-16 -53 -35 -70 -57 -122 -45 -118 28 1 35 -5 53 -27 84 -15 21 -30 43 -32 48
-2 6 -33 54 -68 108 -43 66 -70 97 -83 97 -30 0 -68 30 -68 54 0 25 26 52 85
86 22 13 42 27 45 30 3 4 27 19 53 35 41 23 52 26 73 17 20 -10 24 -19 24 -56
0 -26 6 -48 15 -56 8 -7 15 -18 15 -24 0 -7 10 -22 23 -34 l23 -21 43 37 43
37 -41 53 c-30 37 -48 52 -66 52 -20 0 -25 6 -31 36 -8 41 1 52 88 102 27 15
48 30 48 35 0 4 6 7 13 7 8 0 22 9 32 20 22 24 67 26 85 5 7 -9 12 -36 12 -60
-2 -29 3 -47 12 -52 8 -4 24 -27 36 -50 12 -24 26 -43 31 -43 5 0 9 -6 9 -14
0 -8 6 -21 13 -28 19 -19 77 -117 77 -129 0 -21 34 -3 40 21 4 14 10 95 14
180 4 85 12 172 18 192 9 32 8 41 -5 56 -23 25 -22 81 1 88 9 3 26 10 37 15
11 4 48 13 82 19 69 12 96 4 123 -34 14 -21 131 -169 170 -216 12 -14 40 -53
63 -88 30 -46 47 -62 61 -60 19 3 19 11 17 178 -2 170 -3 176 -27 201 -28 29
-31 55 -7 81 14 15 32 18 128 18 l112 0 37 -33z m529 -13 c29 -9 59 -18 67
-22 8 -3 38 -11 65 -18 28 -7 77 -20 110 -29 33 -9 82 -21 109 -27 41 -10 50
-16 63 -45 13 -31 12 -70 -4 -126 -6 -23 -39 -40 -64 -32 -10 4 -31 29 -44 56
-14 27 -30 49 -35 49 -19 0 -40 -46 -40 -87 0 -23 -4 -44 -9 -48 -6 -3 -13
-27 -17 -53 -3 -26 -10 -51 -14 -57 -14 -18 -27 -101 -19 -120 23 -61 -3 -100
-61 -91 -21 3 -50 13 -66 21 -16 8 -41 15 -57 15 -15 0 -35 4 -45 9 -9 5 -29
14 -44 20 -40 15 -39 62 2 91 17 12 30 30 30 40 0 10 7 31 15 46 8 16 15 43
15 61 0 17 4 34 9 37 5 4 12 25 16 48 4 24 14 53 22 65 8 12 13 32 11 45 -4
29 -36 28 -77 -3 -36 -26 -71 -22 -90 13 -14 24 -13 30 4 65 25 48 64 93 82
93 8 0 38 -7 66 -16z m707 -271 c98 -37 167 -89 219 -167 23 -36 26 -49 26
-132 -1 -73 -5 -97 -18 -112 -9 -10 -17 -23 -17 -29 0 -13 -129 -143 -141
-143 -5 0 -9 -7 -9 -15 0 -8 5 -15 11 -15 10 0 72 45 110 80 67 63 111 101
152 134 36 29 47 45 47 66 0 31 23 60 46 60 8 0 29 -16 47 -36 18 -20 53 -60
80 -88 65 -70 66 -83 21 -158 -20 -35 -43 -70 -50 -78 -7 -8 -16 -27 -19 -42
-6 -25 -4 -28 18 -28 13 0 30 7 37 15 7 8 18 15 25 15 8 0 36 11 63 25 28 14
57 25 65 25 23 0 67 -22 67 -32 0 -5 21 -33 48 -61 89 -98 85 -90 61 -120 -14
-19 -30 -27 -52 -27 -27 0 -52 -20 -164 -129 -106 -103 -133 -134 -133 -156 0
-37 -37 -67 -65 -52 -11 5 -27 20 -36 31 -21 26 -41 49 -101 115 -51 56 -54
62 -38 92 7 13 21 19 44 19 25 0 48 12 90 46 31 26 56 51 56 56 0 13 -31 22
-39 11 -8 -12 -93 -53 -111 -53 -7 0 -21 -7 -30 -15 -9 -8 -30 -17 -46 -21
-23 -4 -36 0 -60 23 -17 15 -34 36 -38 46 -6 19 10 62 44 112 11 17 25 42 31
58 6 15 15 27 20 27 5 0 9 6 9 14 0 7 7 19 15 26 14 12 12 30 -4 30 -4 0 -34
-23 -67 -52 -47 -40 -60 -59 -64 -87 -4 -31 -9 -36 -34 -39 -25 -3 -37 4 -73
45 -29 32 -43 57 -43 75 0 28 -1 28 -64 28 -36 0 -67 4 -70 9 -3 5 -17 12 -32
15 -28 7 -107 59 -139 91 -11 11 -35 44 -53 73 -28 45 -32 61 -32 118 0 54 6
78 31 130 34 69 102 143 159 173 46 24 141 26 200 4z m-1258 -328 c0 -5 -5
-11 -11 -13 -6 -2 -11 4 -11 13 0 9 5 15 11 13 6 -2 11 -8 11 -13z m794 -130
c20 -31 10 -49 -25 -40 -40 10 -47 22 -26 45 23 26 31 25 51 -5z m-2287 -52
c79 -83 80 -159 4 -298 -9 -16 -29 -42 -45 -57 -15 -15 -28 -32 -28 -37 0 -15
34 -31 65 -31 63 0 84 -44 44 -91 -11 -13 -35 -40 -52 -61 -18 -20 -47 -55
-66 -77 -19 -23 -43 -41 -54 -41 -30 0 -57 29 -57 60 0 19 -10 35 -31 51 -18
13 -50 40 -73 59 -22 19 -46 40 -53 45 -6 6 -24 20 -40 32 -15 12 -41 34 -58
48 -21 18 -36 24 -52 20 -59 -14 -87 55 -40 99 12 11 49 55 82 96 147 183 233
243 343 237 61 -3 64 -4 111 -54z m204 -340 c36 -7 40 -16 19 -41 -9 -11 -26
-32 -36 -46 -22 -31 -56 -35 -56 -7 0 10 -7 24 -15 31 -19 16 -19 30 1 59 12
17 22 21 38 16 11 -4 33 -9 49 -12z"/>
<path d="M4263 6910 c0 -30 2 -43 4 -27 2 15 2 39 0 55 -2 15 -4 2 -4 -28z"/>
<path d="M4350 6941 c0 -22 16 -36 24 -22 8 12 -3 41 -15 41 -5 0 -9 -9 -9
-19z"/>
<path d="M4600 6761 c0 -12 6 -21 16 -21 9 0 14 7 12 17 -5 25 -28 28 -28 4z"/>
<path d="M3767 6763 c-3 -5 -8 -27 -12 -49 -8 -49 5 -59 53 -38 38 16 38 18
10 61 -22 31 -42 41 -51 26z"/>
<path d="M3870 6748 c0 -16 4 -28 9 -28 18 0 20 17 6 36 -14 18 -14 18 -15 -8z"/>
<path d="M5045 6930 c-3 -5 -1 -18 4 -27 9 -16 10 -14 11 10 0 28 -5 34 -15
17z"/>
<path d="M5641 6671 c-29 -26 -101 -155 -101 -180 0 -5 -7 -22 -15 -37 -22
-43 -19 -87 9 -113 19 -18 28 -21 44 -12 26 14 64 66 92 126 12 28 28 61 35
75 7 14 15 48 19 77 6 45 4 55 -14 73 -26 26 -30 26 -69 -9z"/>
<path d="M5968 6302 c-38 -27 -50 -46 -23 -36 8 4 15 10 15 15 0 5 6 9 14 9
14 0 42 27 35 34 -2 2 -21 -8 -41 -22z"/>
<path d="M6063 6282 c-20 -22 -33 -48 -33 -64 0 -42 18 -34 41 20 12 26 26 55
30 65 15 28 -4 18 -38 -21z"/>
<path d="M5723 6293 c-7 -2 -13 -9 -13 -15 0 -12 41 -6 41 7 1 12 -11 15 -28
8z"/>
<path d="M6102 6115 c-12 -25 -1 -42 18 -30 12 7 13 55 2 55 -5 0 -14 -11 -20
-25z"/>
<path d="M6165 6051 c-37 -17 -38 -18 -15 -24 15 -4 33 0 47 8 12 8 29 15 37
15 8 0 18 5 21 10 10 16 -46 10 -90 -9z"/>
<path d="M6273 6001 c-22 -23 -46 -41 -52 -41 -6 0 -11 -7 -11 -15 0 -8 7 -15
15 -15 8 0 15 6 15 14 0 8 10 16 21 18 25 3 63 50 57 68 -2 7 -21 -5 -45 -29z"/>
<path d="M2663 6152 c-18 -9 -33 -24 -33 -34 0 -9 21 -32 48 -51 26 -20 56
-45 66 -56 11 -12 29 -21 41 -21 18 0 24 7 29 39 9 57 -4 82 -64 124 -30 21
-46 21 -87 -1z"/>
<path d="M4350 6264 c-89 -28 -164 -73 -243 -144 -62 -56 -190 -218 -184 -233
3 -8 25 -16 50 -19 46 -5 176 -63 214 -95 11 -10 31 -25 44 -33 12 -8 43 -36
69 -62 25 -27 51 -48 57 -48 11 0 29 92 43 225 5 44 13 118 19 165 5 47 11
123 13 170 3 97 0 100 -82 74z m-59 -180 c14 -17 17 -131 5 -170 -3 -11 -17
-26 -30 -33 -20 -11 -30 -9 -80 19 -65 37 -70 43 -62 74 6 24 121 126 142 126
6 0 18 -7 25 -16z"/>
<path d="M4519 6273 c-3 -24 4 -176 12 -241 4 -43 13 -124 19 -182 12 -121 22
-165 37 -165 6 0 26 14 45 30 43 40 184 125 206 125 9 0 30 7 46 15 15 8 48
15 71 15 48 0 75 8 75 21 0 12 -91 129 -145 187 -43 48 -150 129 -204 157 -31
15 -130 45 -151 45 -6 0 -10 -3 -11 -7z m246 -230 c30 -31 55 -62 55 -69 0
-16 -68 -61 -96 -64 -56 -6 -60 -3 -73 64 -15 73 -9 103 22 116 34 14 34 13
92 -47z"/>
<path d="M4090 6243 c-25 -8 -60 -22 -78 -29 -18 -8 -40 -14 -48 -14 -9 0 -30
-6 -47 -14 -18 -8 -54 -25 -82 -37 -146 -64 -217 -103 -314 -169 -61 -41 -226
-175 -271 -220 -24 -24 -26 -40 -5 -40 8 0 15 4 15 9 0 11 10 16 122 74 41 20
80 37 87 37 7 0 25 7 39 15 45 24 122 38 234 42 l107 4 22 37 c57 94 195 252
220 252 15 0 69 52 63 61 -7 11 -9 11 -64 -8z"/>
<path d="M4795 6251 c-5 -9 40 -51 55 -51 21 0 210 -212 210 -235 0 -4 9 -20
20 -35 19 -26 27 -29 98 -33 89 -5 173 -22 219 -43 17 -7 35 -14 41 -14 5 0
31 -12 58 -26 27 -15 69 -37 93 -50 47 -26 114 -78 172 -134 54 -53 139 -166
139 -184 0 -9 7 -19 15 -22 8 -4 15 -16 15 -29 0 -12 7 -28 15 -35 8 -7 15
-20 15 -30 0 -10 7 -31 15 -46 8 -16 15 -40 15 -54 0 -15 5 -31 11 -37 9 -9
21 -68 35 -178 10 -73 14 -85 32 -85 43 0 52 37 27 110 -8 25 -24 78 -36 118
-12 39 -25 75 -30 78 -5 3 -9 14 -9 25 0 11 -17 52 -37 90 -21 39 -44 82 -52
97 -8 15 -17 29 -20 32 -3 3 -15 21 -25 40 -46 83 -196 252 -301 340 -91 75
-207 160 -220 160 -3 0 -35 18 -71 41 -37 22 -77 44 -88 49 -19 7 -82 35 -173
76 -17 8 -38 14 -46 14 -8 0 -28 7 -43 15 -16 8 -36 15 -45 15 -9 0 -33 7 -52
15 -43 18 -44 18 -52 6z"/>
<path d="M1185 5954 c-70 -7 -149 -26 -173 -42 -23 -15 -23 -16 -6 -23 11 -4
89 -8 174 -9 176 -2 320 -12 400 -28 77 -15 175 -30 243 -37 67 -8 77 8 24 39
-132 78 -212 97 -442 101 -99 2 -198 1 -220 -1z"/>
<path d="M3635 5820 c-10 -15 10 -19 140 -24 66 -3 142 -8 169 -12 34 -4 47
-3 42 5 -4 6 -18 11 -30 11 -13 0 -29 7 -36 15 -10 12 -39 15 -146 15 -78 0
-135 -4 -139 -10z"/>
<path d="M5003 5823 c-40 -16 2 -23 127 -22 129 1 164 7 124 23 -19 7 -233 7
-251 -1z"/>
<path d="M7725 5813 c-27 -8 -68 -20 -90 -26 -63 -16 -223 -96 -295 -145 -36
-25 -84 -58 -107 -74 -70 -48 -204 -179 -240 -235 -21 -33 -48 -60 -72 -73
-48 -24 -117 -70 -196 -129 -157 -118 -483 -456 -461 -478 4 -4 79 -9 166 -11
152 -4 161 -3 197 19 21 13 41 27 44 32 7 10 46 34 71 43 20 7 32 34 21 45 -9
8 -68 -3 -146 -28 -47 -15 -48 -15 -82 11 -19 15 -35 29 -35 32 0 3 37 42 83
87 82 83 234 204 331 264 75 48 87 58 183 171 48 56 92 102 97 102 5 0 25 15
46 33 42 36 107 83 138 100 12 7 58 33 104 60 45 26 86 47 90 47 5 0 32 13 61
29 28 17 76 33 105 37 29 4 59 13 67 20 7 8 38 19 67 26 63 14 91 33 68 48
-23 15 -158 10 -215 -7z"/>
<path d="M1000 5801 c0 -6 8 -14 18 -17 22 -7 113 -42 217 -83 44 -17 86 -31
94 -31 7 0 46 -19 85 -43 39 -24 78 -46 88 -49 17 -7 160 -102 219 -146 20
-15 58 -52 83 -82 74 -87 148 -160 182 -178 49 -27 107 -67 168 -116 31 -26
60 -46 66 -46 5 0 38 -29 74 -64 35 -36 76 -72 91 -82 14 -9 33 -30 41 -46 14
-27 13 -30 -12 -53 -31 -29 -28 -28 -74 -14 -60 18 -144 27 -162 17 -25 -12
-22 -28 5 -28 12 0 40 -16 61 -35 22 -19 45 -35 52 -35 6 0 17 -7 25 -16 11
-13 38 -15 185 -12 95 2 175 6 179 10 10 10 -10 36 -112 146 -96 105 -193 199
-263 257 -63 53 -198 155 -204 155 -21 0 -129 79 -154 113 -61 83 -172 188
-269 255 -85 57 -99 66 -200 121 -57 31 -124 56 -238 91 -52 15 -245 24 -245
11z"/>
<path d="M3540 5790 c-21 -7 -19 -8 18 -9 23 -1 42 4 42 9 0 12 -24 12 -60 0z"/>
<path d="M5295 5790 c3 -5 25 -9 48 -9 40 1 40 2 12 9 -44 11 -67 11 -60 0z"/>
<path d="M3434 5755 c-10 -8 -27 -15 -36 -15 -31 0 -162 -87 -228 -152 -95
-91 -210 -278 -210 -340 0 -15 -4 -29 -9 -33 -6 -3 -13 -26 -17 -50 -3 -25
-10 -48 -15 -51 -15 -9 -11 -287 5 -309 13 -18 14 -17 19 11 4 16 6 61 5 99
-1 92 21 254 38 282 8 12 14 31 14 41 0 26 31 115 45 127 6 6 20 30 30 54 24
54 97 127 136 135 19 4 30 13 35 30 4 18 11 22 25 19 17 -5 19 -2 13 21 -5 20
-3 26 11 26 9 0 30 14 47 30 16 17 38 30 48 30 9 0 23 7 30 15 7 8 27 17 46
21 19 3 34 10 34 15 0 14 -44 10 -66 -6z"/>
<path d="M4020 5761 c0 -10 36 -21 44 -14 3 3 3 10 0 14 -7 12 -44 12 -44 0z"/>
<path d="M5390 5760 c0 -5 14 -10 31 -10 17 0 28 4 24 10 -3 6 -17 10 -31 10
-13 0 -24 -4 -24 -10z"/>
<path d="M4090 5730 c0 -5 7 -10 15 -10 8 0 15 5 15 10 0 6 -7 10 -15 10 -8 0
-15 -4 -15 -10z"/>
<path d="M4770 5730 c0 -5 7 -10 15 -10 8 0 15 5 15 10 0 6 -7 10 -15 10 -8 0
-15 -4 -15 -10z"/>
<path d="M5465 5730 c3 -5 18 -10 33 -10 21 0 24 2 12 10 -20 13 -53 13 -45 0z"/>
<path d="M3612 5709 c-10 -4 -24 -14 -31 -23 -7 -9 -24 -16 -36 -16 -12 0 -28
-7 -35 -15 -7 -8 -23 -15 -36 -15 -13 0 -24 -4 -24 -9 0 -5 -24 -21 -53 -34
-30 -13 -67 -37 -84 -53 -17 -16 -39 -36 -49 -46 -11 -9 -30 -32 -44 -52 -14
-20 -40 -53 -57 -74 -18 -20 -33 -40 -33 -44 0 -5 -4 -8 -10 -8 -5 0 -10 14
-10 30 0 17 -4 30 -10 30 -10 0 -16 -48 -12 -111 2 -43 -21 -104 -43 -112 -8
-4 -15 -15 -15 -25 0 -10 -4 -22 -9 -27 -12 -14 -22 -103 -12 -110 5 -3 12 1
14 7 3 7 6 3 6 -9 1 -13 -4 -22 -11 -20 -19 3 -22 -51 -5 -77 8 -12 15 -38 15
-57 0 -19 10 -61 22 -94 13 -38 21 -83 21 -123 -1 -49 3 -66 19 -82 11 -11 26
-20 34 -20 19 0 28 -28 16 -51 -17 -31 17 -79 35 -49 9 15 35 12 41 -5 4 -9
-3 -23 -16 -33 -22 -18 -22 -19 -5 -45 19 -29 55 -37 55 -12 0 8 7 15 15 15 8
0 15 -9 15 -20 0 -11 -4 -20 -10 -20 -16 0 -11 -50 5 -57 9 -3 25 3 36 12 19
18 20 18 34 -1 8 -10 17 -27 20 -36 3 -9 15 -20 25 -23 11 -3 29 -19 40 -35
11 -16 30 -30 42 -32 31 -4 46 -33 30 -58 -10 -16 -10 -20 2 -20 8 0 16 7 20
15 8 22 21 18 53 -16 15 -16 43 -36 61 -44 38 -16 40 -28 10 -50 -23 -16 -23
-16 -4 -30 25 -19 31 -19 46 0 17 20 33 19 53 -3 21 -23 21 -32 1 -32 -9 0
-14 -6 -11 -12 2 -8 18 -12 40 -10 30 2 44 -5 86 -40 28 -24 69 -58 92 -76 33
-25 37 -32 21 -32 -26 0 -39 -19 -21 -31 23 -15 51 -10 56 10 4 16 8 17 29 7
28 -13 30 -24 7 -41 -9 -7 -13 -17 -9 -23 11 -18 23 -14 29 9 l6 21 30 -21
c16 -12 70 -57 120 -101 50 -44 95 -80 100 -80 6 0 15 -8 20 -18 14 -27 92
-62 121 -55 22 6 147 94 160 113 10 14 51 31 60 25 6 -3 10 2 10 12 0 11 25
37 61 63 33 25 66 51 72 58 38 42 147 124 176 131 16 5 27 16 29 29 4 25 60
47 93 37 19 -6 20 -4 14 24 -6 28 -4 31 19 31 15 0 27 7 31 19 6 19 116 121
132 121 12 1 53 37 53 48 0 5 14 15 30 22 18 8 30 20 30 31 0 11 4 19 10 19 5
0 32 20 60 45 28 25 56 45 63 45 7 0 23 18 37 40 14 22 32 40 41 40 11 0 19
12 23 33 3 17 15 39 26 47 10 8 35 46 55 85 28 56 35 64 35 41 0 -51 23 -22
27 34 2 30 7 64 12 75 14 32 34 175 35 247 1 36 4 69 8 73 4 4 1 19 -6 34 -8
14 -17 64 -21 111 -6 81 -35 170 -55 170 -5 0 -11 9 -15 19 -3 11 -19 34 -35
53 -16 18 -30 36 -30 40 0 14 -127 135 -160 154 -19 10 -51 32 -69 48 -19 16
-54 37 -78 48 -24 10 -43 26 -43 34 0 13 -27 15 -186 13 -141 -1 -189 -5 -199
-15 -7 -8 -23 -14 -34 -14 -14 0 -21 -6 -21 -20 0 -14 -7 -20 -23 -20 -13 0
-32 -7 -43 -15 -10 -8 -26 -15 -34 -15 -8 0 -28 -14 -45 -31 -16 -16 -60 -59
-97 -93 -38 -35 -68 -69 -68 -75 0 -6 -13 -20 -30 -33 -16 -12 -30 -28 -30
-35 0 -20 -61 -53 -99 -53 -30 0 -44 10 -107 76 -41 44 -70 83 -67 90 3 8 -2
14 -11 14 -9 0 -37 21 -63 46 -26 26 -68 60 -95 76 -27 17 -53 38 -59 49 -5
10 -16 19 -24 19 -8 0 -26 11 -41 25 -20 19 -38 25 -73 25 -25 1 -97 2 -159 3
-62 1 -121 -1 -130 -4z m357 -96 c53 -26 101 -52 108 -58 6 -5 33 -28 58 -50
25 -22 85 -85 133 -139 138 -157 136 -156 180 -156 42 0 63 18 144 125 25 33
63 78 85 100 33 34 56 55 136 120 18 15 102 55 116 55 6 0 11 4 11 8 0 16 120
42 194 42 84 0 173 -17 197 -37 8 -7 25 -13 36 -13 11 0 31 -8 44 -18 13 -10
42 -27 63 -37 52 -26 216 -188 216 -213 0 -5 9 -19 20 -32 11 -13 20 -30 20
-39 0 -9 7 -25 15 -35 8 -11 15 -29 15 -41 0 -12 4 -25 10 -31 14 -14 33 -149
33 -244 0 -93 -16 -198 -38 -245 -7 -16 -21 -48 -30 -70 -39 -96 -133 -225
-229 -315 -134 -126 -173 -160 -184 -160 -6 0 -15 -6 -19 -12 -9 -15 -186
-158 -255 -208 -27 -18 -48 -37 -48 -42 0 -4 -5 -8 -11 -8 -6 0 -28 -15 -48
-32 -21 -18 -79 -67 -130 -108 -52 -41 -106 -87 -122 -101 -15 -15 -32 -28
-37 -30 -11 -5 -97 -77 -160 -135 -39 -37 -47 -40 -68 -30 -13 6 -24 14 -24
18 0 4 -11 17 -23 30 -55 53 -113 105 -128 114 -9 5 -39 29 -65 53 -27 24
-148 118 -269 208 -251 188 -275 206 -326 251 -20 17 -39 32 -43 32 -24 0
-316 301 -316 325 0 3 -20 40 -45 83 -25 42 -45 88 -45 102 0 14 -7 37 -15 53
-20 39 -39 159 -38 252 0 89 16 209 31 228 5 7 17 37 26 67 10 30 25 64 34 76
10 12 24 32 32 45 27 42 120 137 163 166 23 15 44 31 45 36 2 4 10 7 19 7 8 0
27 7 41 14 103 56 172 74 291 75 l105 1 95 -47z"/>
<path d="M3735 5514 c-98 -20 -137 -31 -184 -56 -30 -15 -60 -28 -67 -28 -7 0
-17 -6 -21 -13 -4 -6 -27 -25 -50 -41 -24 -16 -43 -35 -43 -42 0 -7 -8 -15
-18 -18 -29 -9 -91 -157 -109 -255 -16 -92 -13 -173 12 -293 15 -75 68 -203
96 -234 11 -11 19 -24 19 -29 0 -27 277 -294 306 -295 5 -1 29 -21 54 -46 25
-25 57 -52 72 -59 38 -21 419 -308 442 -333 10 -12 41 -36 67 -53 27 -17 49
-34 49 -38 0 -4 13 -14 29 -24 41 -24 91 -22 121 6 14 12 44 35 68 51 24 16
90 68 147 115 58 47 126 102 152 121 26 19 59 45 73 57 56 50 115 95 139 108
14 8 37 26 51 41 14 15 48 44 75 64 82 61 216 188 277 264 106 131 168 292
168 434 0 77 -17 184 -34 224 -8 18 -23 55 -33 83 -27 72 -136 179 -233 227
-170 83 -281 84 -435 4 -58 -31 -151 -118 -250 -234 -86 -102 -150 -142 -224
-142 -81 0 -140 37 -246 154 -122 134 -177 186 -238 220 -75 41 -183 69 -232
60z m114 -51 c60 -18 158 -81 212 -135 19 -19 61 -68 94 -109 80 -100 120
-136 182 -165 101 -47 226 -23 307 61 31 32 39 40 111 129 164 203 313 271
478 220 57 -18 119 -44 127 -53 3 -3 23 -18 45 -33 59 -40 98 -78 125 -123 13
-22 27 -42 30 -45 4 -3 10 -23 13 -44 4 -22 11 -42 16 -45 5 -4 15 -54 20
-111 12 -115 3 -235 -22 -285 -8 -16 -23 -48 -33 -70 -11 -22 -33 -60 -49 -85
-33 -50 -213 -233 -290 -295 -28 -22 -51 -43 -53 -47 -2 -5 -10 -8 -17 -8 -8
0 -18 -6 -22 -13 -4 -8 -23 -24 -42 -38 -42 -29 -61 -44 -124 -98 -27 -23 -51
-41 -55 -41 -4 0 -21 -13 -38 -28 -18 -15 -62 -52 -99 -82 -38 -30 -80 -66
-94 -79 -14 -13 -37 -31 -51 -40 -22 -14 -43 -32 -128 -108 -39 -36 -65 -29
-124 30 -57 56 -68 65 -174 148 -38 30 -75 59 -82 66 -7 7 -17 13 -20 13 -4 0
-19 11 -32 23 -14 13 -50 41 -80 62 -96 67 -202 147 -222 167 -10 10 -21 18
-25 18 -5 0 -26 16 -48 36 -22 19 -51 41 -65 49 -31 17 -210 204 -210 219 0 3
-13 25 -30 49 -16 25 -30 49 -30 55 0 5 -7 15 -15 22 -8 7 -15 22 -15 34 0 11
-6 33 -14 47 -7 14 -19 68 -26 120 -14 106 -3 242 24 294 9 17 16 36 16 43 0
18 42 81 86 128 35 36 132 103 152 104 4 1 25 9 47 20 22 11 50 19 62 20 12 0
25 5 28 10 10 16 92 12 154 -7z"/>
<path d="M4464 4969 c-4 -8 -11 -88 -15 -180 -4 -91 -11 -175 -17 -185 -20
-37 -53 -45 -232 -52 -115 -5 -175 -11 -177 -18 -7 -21 59 -34 213 -40 142 -7
154 -9 178 -31 14 -13 26 -25 27 -26 0 -1 4 -84 8 -183 5 -100 12 -187 16
-194 16 -26 28 12 36 117 22 281 20 273 45 292 19 15 50 19 183 24 162 7 216
17 209 40 -3 8 -53 14 -175 19 -112 4 -182 12 -205 21 -35 15 -35 15 -42 93
-3 44 -11 128 -16 188 -9 107 -20 141 -36 115z"/>
<path d="M5550 5693 c8 -3 19 -12 23 -19 8 -15 37 -19 37 -6 0 8 -49 32 -64
31 -6 0 -4 -3 4 -6z"/>
<path d="M4180 5670 c0 -5 7 -10 15 -10 8 0 15 5 15 10 0 6 -7 10 -15 10 -8 0
-15 -4 -15 -10z"/>
<path d="M4675 5670 c-3 -5 1 -10 9 -10 8 0 18 5 21 10 3 6 -1 10 -9 10 -8 0
-18 -4 -21 -10z"/>
<path d="M3360 5640 c0 -7 14 -8 38 -4 51 9 53 14 4 14 -23 0 -42 -5 -42 -10z"/>
<path d="M4222 5643 c28 -58 45 -83 73 -102 29 -20 33 -27 28 -53 -5 -27 -4
-29 19 -23 16 4 31 1 41 -9 25 -25 59 -34 87 -24 13 5 55 40 93 79 37 38 75
69 83 69 11 0 13 6 9 19 -3 11 -1 22 5 26 16 10 12 25 -8 25 -21 0 -162 -126
-162 -144 0 -7 -10 -22 -22 -34 -22 -20 -24 -20 -45 -2 -13 10 -23 23 -23 29
0 5 -38 42 -84 81 -79 65 -103 81 -94 63z"/>
<path d="M5620 5639 c0 -6 8 -13 19 -16 10 -2 23 -15 29 -28 6 -13 24 -31 41
-41 17 -10 31 -24 31 -31 0 -8 6 -16 14 -19 8 -3 22 -23 30 -45 9 -22 22 -42
30 -45 8 -3 16 -18 20 -34 3 -16 16 -47 29 -67 14 -21 28 -54 32 -73 4 -19 11
-39 15 -45 4 -5 10 -34 13 -64 4 -30 12 -58 18 -62 18 -11 12 -271 -7 -307 -7
-15 -14 -37 -14 -50 0 -13 -10 -36 -21 -52 -15 -19 -20 -36 -15 -53 3 -14 0
-37 -9 -53 -8 -16 -15 -34 -15 -41 0 -6 -4 -13 -10 -15 -13 -4 -17 -42 -5 -48
6 -3 12 6 13 20 2 14 10 29 18 33 8 4 14 15 14 24 0 9 6 21 14 27 20 16 46
108 46 163 0 27 6 55 13 61 29 30 8 344 -29 430 -8 18 -14 45 -14 61 0 16 -7
34 -15 41 -8 7 -15 21 -15 31 0 45 -140 230 -201 266 -16 10 -29 23 -29 30 0
7 -9 13 -20 13 -11 0 -20 -5 -20 -11z"/>
<path d="M4602 5515 c-35 -16 -42 -65 -8 -65 15 0 39 42 34 61 -2 11 -8 12
-26 4z"/>
<path d="M3158 5479 c-20 -11 -22 -18 -9 -38 12 -19 51 3 51 29 0 22 -15 25
-42 9z"/>
<path d="M5725 5477 c-4 -10 -5 -21 -1 -24 10 -10 18 4 13 24 -4 17 -4 17 -12
0z"/>
<path d="M6260 5430 c-16 -10 -142 -67 -177 -81 -25 -9 -28 -20 -14 -47 5 -9
19 -44 31 -77 13 -33 26 -67 30 -75 4 -9 11 -36 15 -60 4 -25 14 -58 22 -74
15 -29 16 -29 29 -11 8 11 38 44 67 75 111 116 147 178 147 253 0 49 -3 58
-31 81 -32 27 -88 34 -119 16z m50 -112 c0 -7 -11 -21 -25 -30 -23 -17 -24
-17 -30 2 -3 11 -3 24 0 30 9 14 55 12 55 -2z m-65 -48 c15 -30 13 -50 -5 -50
-5 0 -10 10 -12 23 -2 14 -11 23 -25 25 -25 4 -30 17 -10 25 26 11 37 6 52
-23z"/>
<path d="M2585 5420 c-36 -14 -49 -40 -49 -95 1 -67 48 -147 145 -249 38 -39
69 -74 69 -78 0 -5 6 -8 13 -8 14 0 47 86 47 120 0 10 7 31 15 46 8 16 15 36
15 45 0 8 7 24 15 35 8 10 15 28 15 40 0 11 5 25 12 32 14 14 -6 42 -31 42 -9
0 -25 6 -36 14 -35 23 -152 66 -182 65 -15 0 -37 -4 -48 -9z m125 -115 c17 -9
30 -18 30 -21 0 -10 -44 -43 -57 -44 -15 0 -28 43 -19 65 7 19 10 19 46 0z"/>
<path d="M5754 5407 c-9 -24 6 -44 18 -22 7 11 6 21 -1 28 -7 7 -12 6 -17 -6z"/>
<path d="M2801 4961 c-10 -7 -11 -13 -1 -31 8 -14 9 -42 5 -82 -5 -44 -3 -69
8 -96 9 -21 18 -49 21 -64 4 -19 13 -28 25 -28 29 0 42 22 25 44 -8 11 -14 39
-14 61 0 28 -7 50 -21 66 -16 19 -20 33 -16 64 3 22 8 48 12 58 5 12 2 17 -11
17 -11 0 -25 -4 -33 -9z"/>
<path d="M6054 4849 c-12 -19 -34 -113 -34 -146 0 -35 9 -41 52 -35 21 3 30
11 33 31 3 14 12 39 20 54 25 49 20 76 -20 93 -41 17 -42 17 -51 3z"/>
<path d="M2944 4725 c8 -97 20 -139 72 -242 27 -54 51 -100 54 -103 3 -3 23
-32 45 -65 22 -33 53 -74 70 -92 78 -83 171 -173 178 -173 4 0 21 -13 37 -30
16 -16 33 -30 39 -30 5 0 11 -7 15 -15 3 -8 13 -15 22 -15 9 0 23 -8 30 -17 7
-10 15 -15 19 -11 7 7 -29 48 -42 48 -5 0 -36 27 -70 59 -33 32 -68 61 -77 64
-9 4 -16 13 -16 22 0 8 -4 15 -9 15 -9 0 -73 76 -151 179 -53 71 -53 70 -132
226 -12 22 -23 59 -26 82 -2 24 -11 48 -18 54 -8 6 -14 24 -14 38 0 15 -7 36
-16 47 -14 18 -15 14 -10 -41z"/>
<path d="M6825 4738 c-11 -6 -36 -24 -56 -40 -20 -15 -47 -28 -59 -28 -13 0
-20 -5 -17 -12 3 -10 55 -13 215 -13 223 0 237 -3 230 -46 l-3 -24 -265 0
-264 0 -48 -60 c-27 -32 -57 -77 -69 -98 -75 -144 -225 -339 -391 -510 -43
-43 -78 -85 -78 -92 0 -8 -16 -40 -36 -72 -19 -32 -40 -67 -47 -78 -10 -17
-25 -37 -79 -110 -92 -123 -222 -252 -353 -351 -53 -41 -236 -150 -266 -159
-13 -4 -26 -11 -29 -14 -3 -4 -27 -15 -55 -25 -27 -10 -63 -24 -80 -31 -81
-35 -153 -53 -320 -81 -121 -21 -436 -21 -565 0 -138 23 -204 37 -215 46 -5 4
-26 11 -45 15 -19 4 -41 11 -50 16 -8 4 -55 25 -105 45 -114 48 -330 176 -375
224 -3 3 -34 30 -69 60 -92 78 -154 142 -213 218 -28 37 -54 69 -57 72 -13 9
-141 228 -141 239 0 7 -43 56 -96 109 -52 53 -105 110 -117 125 -12 16 -41 52
-63 80 -42 52 -134 185 -134 192 0 10 -105 158 -140 197 l-38 43 -258 0 -259
0 -3 24 c-6 43 7 46 220 46 125 0 202 4 205 10 1 6 -17 18 -42 28 -24 10 -47
27 -50 38 -6 18 -14 19 -88 14 -144 -10 -186 -15 -209 -26 -27 -13 -88 -85
-88 -105 0 -7 13 -29 30 -47 26 -31 39 -36 105 -46 42 -6 108 -11 148 -11 40
0 77 -4 82 -9 6 -6 52 -15 103 -22 77 -10 95 -15 104 -33 6 -11 26 -40 44 -63
19 -22 38 -53 44 -67 5 -14 14 -26 19 -26 5 0 17 -17 28 -37 26 -54 110 -165
182 -243 9 -10 39 -45 66 -80 28 -34 58 -66 68 -71 9 -5 17 -14 17 -18 0 -5
18 -38 40 -72 22 -35 52 -86 66 -114 37 -68 56 -95 155 -210 88 -102 172 -185
187 -185 5 0 13 -9 18 -19 15 -31 189 -161 299 -223 116 -66 280 -137 362
-158 17 -4 47 -17 65 -28 21 -13 56 -23 94 -25 51 -3 125 -31 124 -47 -1 -13
-75 -50 -101 -50 -21 0 -29 -5 -29 -18 0 -10 -11 -29 -24 -41 -13 -12 -34 -53
-46 -91 -12 -38 -28 -71 -35 -74 -7 -2 -15 -22 -19 -43 -11 -60 -27 -93 -46
-93 -21 0 -46 36 -55 76 -20 89 -130 286 -149 266 -11 -10 -5 -57 9 -82 8 -14
14 -35 15 -48 1 -68 107 -230 161 -247 24 -8 74 27 94 66 9 16 22 29 30 29 7
0 15 10 17 22 4 29 34 36 43 10 9 -31 89 -106 127 -120 41 -14 88 -16 88 -3 0
15 -30 41 -48 41 -23 1 -52 26 -90 79 -45 62 -45 130 0 192 52 72 64 78 146
79 64 0 78 -3 107 -26 61 -46 86 -126 69 -213 -9 -43 -75 -107 -119 -115 -21
-4 -35 -13 -35 -21 0 -22 68 -19 113 5 20 11 53 20 72 20 19 0 35 5 35 10 0 6
9 24 21 39 19 26 21 39 17 136 -2 87 -6 109 -20 119 -10 7 -18 21 -18 30 0 13
12 16 75 16 68 0 75 -2 75 -20 0 -10 -9 -24 -20 -30 -18 -10 -20 -21 -20 -130
l0 -120 33 0 c24 0 41 8 62 30 35 37 55 26 55 -31 0 -57 -37 -71 -142 -54 -55
9 -98 0 -98 -20 0 -28 39 -37 124 -30 63 6 88 12 113 31 39 30 41 30 105 -1
63 -30 121 -34 116 -7 -2 9 -18 22 -35 27 -63 21 -133 115 -133 178 0 41 25
93 67 137 l42 44 76 -1 c74 -1 77 -2 113 -39 20 -20 45 -49 54 -63 24 -35 24
-123 1 -158 -27 -40 -82 -93 -98 -93 -21 0 -45 -11 -45 -21 0 -4 9 -13 20 -19
22 -12 63 5 115 48 38 31 54 59 55 96 0 16 7 37 16 47 15 17 15 21 0 59 -9 22
-16 49 -16 59 0 10 -20 39 -45 64 -41 41 -53 47 -115 57 -49 8 -74 9 -89 1
-11 -6 -34 -11 -51 -11 -48 0 -123 -76 -142 -143 -13 -47 -17 -52 -43 -52 -23
0 -30 6 -37 30 -5 17 -7 50 -4 76 4 37 1 47 -15 57 -11 7 -19 23 -19 40 0 25
5 29 63 44 34 10 86 20 116 24 30 3 97 22 150 41 53 19 107 38 121 42 122 39
343 171 498 298 86 71 240 225 270 271 9 15 24 34 32 44 42 48 129 178 149
223 20 47 81 135 102 148 10 6 19 15 19 18 0 3 25 33 56 65 94 100 101 108
113 131 6 13 21 34 34 47 41 45 66 83 73 109 3 15 19 36 35 47 15 11 31 31 35
43 10 34 72 124 90 131 8 3 39 6 67 6 30 0 60 7 71 15 14 11 47 15 110 15 143
1 225 14 252 42 38 37 40 77 7 120 -39 51 -64 60 -181 66 -56 2 -105 9 -108
13 -7 12 -15 11 -39 -3z m-2303 -2005 c-16 -25 -51 -30 -70 -11 -24 24 -13 35
37 34 47 -1 48 -1 33 -23z"/>
<path d="M2854 4583 c4 -16 13 -33 20 -38 7 -6 17 -25 20 -42 4 -18 18 -48 32
-68 13 -20 24 -41 24 -47 0 -11 75 -130 105 -168 44 -54 287 -287 361 -345
102 -80 241 -175 255 -175 33 0 -12 47 -126 133 -72 54 -131 103 -133 108 -2
5 -8 9 -13 9 -5 0 -17 8 -27 18 -10 9 -31 27 -47 39 -95 71 -133 104 -160 138
-16 21 -42 52 -56 69 -41 49 -99 135 -99 146 0 5 -4 10 -9 10 -5 0 -12 11 -15
25 -4 14 -11 25 -16 25 -6 0 -10 9 -10 20 0 20 -38 101 -51 110 -4 3 -12 18
-18 33 -14 37 -46 37 -37 0z"/>
<path d="M6068 4594 c-5 -4 -8 -16 -8 -28 0 -14 3 -17 11 -9 6 6 9 19 7 28 -1
9 -6 13 -10 9z"/>
<path d="M2450 4570 c-17 -10 -16 -11 24 -29 26 -11 85 -45 205 -118 64 -39
71 -34 71 52 0 69 -2 76 -22 84 -35 13 -261 22 -278 11z"/>
<path d="M6310 4573 c-98 -5 -110 -16 -110 -100 0 -48 3 -63 15 -63 15 0 67
21 75 30 8 9 119 75 170 100 39 20 42 24 25 31 -20 8 -39 8 -175 2z"/>
<path d="M5951 4510 c-12 -22 -21 -45 -21 -50 0 -10 -111 -177 -150 -225 -50
-62 -265 -267 -326 -312 -35 -26 -64 -50 -64 -55 0 -4 -6 -8 -12 -8 -41 -1
-117 -109 -98 -139 8 -13 27 -2 188 113 122 86 292 273 292 319 0 7 17 26 38
42 44 33 110 118 173 223 79 131 79 132 29 132 -23 0 -32 -8 -49 -40z"/>
<path d="M5803 4420 c-3 -11 -9 -20 -14 -20 -5 0 -9 -12 -9 -27 l0 -28 25 30
c25 31 33 65 14 65 -6 0 -13 -9 -16 -20z"/>
<path d="M5705 4294 c-22 -24 -44 -55 -48 -69 -5 -14 -15 -25 -23 -25 -8 0
-14 -7 -14 -15 0 -8 7 -15 15 -15 8 0 15 6 15 13 0 6 14 21 30 32 16 11 30 25
30 30 0 6 13 26 30 45 16 19 29 38 30 43 1 19 -29 2 -65 -39z"/>
<path d="M2870 4205 c0 -33 80 -165 165 -270 66 -83 216 -224 292 -276 40 -27
108 -67 152 -90 44 -22 85 -47 92 -55 6 -8 21 -14 33 -14 11 0 26 -4 31 -8 22
-16 97 -164 109 -214 6 -25 4 -28 -19 -28 -29 0 -44 7 -138 69 -114 74 -148
132 -84 146 l32 7 -30 11 c-111 43 -355 188 -405 240 -28 30 -50 35 -50 11 0
-23 139 -200 217 -276 203 -198 339 -290 578 -392 22 -10 49 -22 60 -27 24
-11 237 -79 247 -79 19 0 4 19 -39 51 -144 103 -279 295 -381 542 -7 15 -20
30 -29 33 -17 5 -66 24 -103 38 -8 4 -29 15 -46 25 -17 10 -51 30 -75 43 -191
103 -405 288 -538 466 -30 39 -59 72 -63 72 -4 0 -8 -11 -8 -25z"/>
<path d="M6036 4196 c-14 -19 -26 -37 -26 -40 0 -9 -76 -93 -162 -178 -75 -75
-237 -208 -252 -208 -3 0 -33 -19 -68 -42 -56 -38 -204 -115 -280 -146 -16 -7
-30 -22 -34 -37 -12 -47 -122 -256 -166 -313 -84 -113 -202 -227 -252 -246
-14 -5 -16 -10 -8 -18 8 -8 42 -1 129 27 65 21 125 42 133 46 8 5 33 16 55 25
160 67 324 163 389 226 17 15 33 28 37 28 5 0 31 21 60 48 154 141 323 352
300 375 -7 7 -18 2 -38 -18 -66 -67 -358 -235 -409 -235 -12 0 -26 -4 -29 -10
-3 -5 3 -10 14 -10 33 0 51 -11 51 -32 0 -25 -73 -96 -137 -133 -26 -15 -58
-36 -69 -47 -29 -26 -74 -16 -74 17 0 12 6 28 14 34 8 7 17 24 21 39 3 15 21
52 39 82 23 40 41 58 65 66 18 6 36 15 39 21 4 5 43 27 87 49 150 73 333 222
441 359 21 28 42 52 45 55 9 7 100 148 122 189 18 32 17 61 -1 61 -6 0 -21
-15 -36 -34z"/>
<path d="M3327 4194 c-14 -14 -7 -35 11 -32 9 2 17 10 17 17 0 16 -18 25 -28
15z"/>
<path d="M5500 4175 c0 -8 9 -15 20 -15 11 0 20 7 20 15 0 8 -9 15 -20 15 -11
0 -20 -7 -20 -15z"/>
<path d="M3536 4022 c-7 -11 6 -27 27 -35 20 -7 23 13 5 31 -14 14 -25 15 -32
4z"/>
<path d="M3563 3894 c14 -14 34 -24 44 -22 13 2 9 9 -20 26 -50 29 -56 28 -24
-4z"/>
<path d="M5300 3910 c0 -5 -9 -10 -20 -10 -11 0 -20 -7 -20 -15 0 -23 26 -18
44 10 9 14 12 25 6 25 -5 0 -10 -4 -10 -10z"/>
<path d="M5210 3855 c-7 -8 -18 -15 -25 -15 -7 0 -15 -6 -18 -14 -3 -7 -26
-23 -51 -36 -26 -12 -51 -32 -58 -43 -10 -21 -21 -31 -93 -91 -16 -14 -47 -40
-67 -58 -20 -18 -48 -42 -62 -52 -14 -10 -26 -23 -26 -27 0 -17 26 -8 59 21
18 17 37 30 41 30 8 0 35 22 110 88 21 17 40 32 44 32 4 0 17 10 29 23 12 13
52 47 90 76 63 50 84 81 53 81 -7 0 -19 -7 -26 -15z"/>
<path d="M3651 3829 c19 -17 45 -39 59 -48 28 -18 64 -47 92 -73 10 -10 25
-18 33 -18 7 0 18 -6 22 -14 9 -16 129 -106 141 -106 4 0 19 -13 32 -30 27
-32 50 -39 50 -15 0 8 -4 15 -10 15 -5 0 -29 19 -54 43 -76 72 -119 107 -133
107 -7 0 -13 9 -13 21 0 12 -8 23 -20 26 -10 3 -26 16 -35 29 -8 13 -25 24
-37 24 -12 0 -36 11 -54 25 -18 14 -40 25 -48 25 -9 0 -16 5 -16 10 0 6 -10
10 -22 10 -20 0 -18 -3 13 -31z"/>
<path d="M4970 3731 c0 -4 -14 -12 -32 -17 -43 -13 -49 -34 -8 -34 23 0 33 5
37 20 3 11 12 20 19 20 8 0 14 5 14 10 0 6 -7 10 -15 10 -8 0 -15 -4 -15 -9z"/>
<path d="M5169 3702 c-13 -15 -43 -44 -67 -64 -23 -21 -42 -40 -42 -43 0 -12
26 -3 56 20 18 14 37 25 43 25 5 0 21 5 34 11 19 8 22 16 19 40 -6 40 -14 42
-43 11z"/>
<path d="M3715 3660 c3 -5 12 -10 20 -10 7 0 25 -13 38 -30 23 -26 57 -41 57
-24 0 10 -44 43 -57 44 -7 0 -13 7 -13 15 0 9 -10 15 -26 15 -14 0 -23 -4 -19
-10z"/>
<path d="M4843 3653 c-22 -8 -14 -23 13 -23 15 0 24 5 22 12 -5 14 -18 18 -35
11z"/>
<path d="M3817 3534 c-7 -7 30 -81 76 -151 15 -24 27 -45 27 -48 0 -12 84
-123 140 -186 54 -61 117 -111 200 -161 35 -21 159 -53 168 -43 10 10 2 188
-9 201 -5 7 -22 14 -37 17 -15 4 -54 31 -87 62 -33 31 -82 74 -110 97 -27 22
-75 62 -106 90 -62 54 -113 85 -155 92 -14 3 -34 12 -44 21 -17 15 -51 20 -63
9z"/>
<path d="M5080 3526 c-18 -17 -89 -45 -145 -55 -64 -13 -100 -37 -271 -182
-23 -20 -63 -52 -88 -69 -25 -18 -48 -40 -50 -49 -4 -14 -9 -183 -7 -220 1 -9
10 -12 29 -8 155 30 293 128 425 303 61 81 157 254 157 282 0 17 -33 15 -50
-2z m-250 -275 c0 -14 -28 -33 -39 -27 -16 10 -1 36 20 36 10 0 19 -4 19 -9z
m-85 -81 c-16 -16 -35 -30 -42 -30 -23 0 -14 24 19 52 44 36 62 19 23 -22z"/>
<path d="M4595 3459 c-4 -6 -5 -13 -2 -16 8 -7 47 7 47 18 0 13 -37 11 -45 -2z"/>
<path d="M4510 3280 c0 -5 -12 -10 -27 -10 -28 0 -78 -41 -66 -54 16 -16 49
-3 85 34 27 27 35 40 24 40 -9 0 -16 -4 -16 -10z"/>
<path d="M3762 2738 c-36 -18 -20 -33 43 -38 57 -5 84 -24 51 -36 -20 -8 -20
-34 -2 -71 8 -15 22 -47 32 -70 9 -24 20 -43 24 -43 13 0 30 25 30 45 0 11 8
42 17 68 17 46 17 49 0 58 -9 6 -17 19 -17 29 0 17 7 20 48 21 26 0 56 4 66 8
17 6 15 9 -12 20 -26 11 -41 10 -93 -3 -59 -15 -63 -14 -87 4 -27 22 -65 25
-100 8z"/>
<path d="M4237 2619 c-34 -28 -37 -35 -37 -83 0 -77 47 -135 110 -135 103 0
133 162 41 225 -47 32 -69 30 -114 -7z m77 -75 c23 -9 20 -34 -3 -34 -22 0
-35 15 -26 30 7 12 8 12 29 4z"/>
<path d="M4984 2630 c-68 -44 -67 -152 2 -205 46 -35 83 -32 122 8 26 26 32
41 32 75 0 52 -26 105 -63 126 -37 21 -55 20 -93 -4z m76 -105 c0 -8 -9 -15
-20 -15 -11 0 -20 7 -20 15 0 8 9 15 20 15 11 0 20 -7 20 -15z"/>
<path d="M3769 2194 c-55 -35 -74 -80 -77 -181 -5 -110 -1 -131 31 -165 52
-56 56 -57 272 -52 238 4 270 9 313 41 37 28 35 28 114 -20 36 -22 41 -23 351
-21 370 2 400 6 452 67 64 75 67 144 10 242 -52 90 -125 125 -189 91 -16 -8
-34 -12 -40 -8 -6 4 -128 8 -271 8 -281 2 -289 1 -347 -54 -29 -27 -38 -78
-17 -99 18 -18 7 -87 -14 -91 -26 -5 -63 33 -71 70 -4 18 -26 51 -55 80 l-49
49 -76 -7 c-72 -6 -80 -5 -139 24 -79 39 -161 50 -198 26z m159 -60 c18 -5 22
-13 20 -33 -3 -23 -6 -26 -38 -22 -72 8 -75 7 -75 -19 0 -22 4 -25 40 -25 34
0 40 -3 43 -23 4 -27 -19 -38 -48 -22 -28 15 -41 -1 -38 -45 3 -27 6 -30 33
-28 104 6 132 6 153 -1 35 -13 27 9 -12 34 -42 26 -53 53 -33 84 21 31 77 43
94 19 19 -25 16 -44 -7 -50 -26 -7 -26 -20 0 -28 27 -8 43 -41 36 -71 -8 -29
-57 -44 -104 -32 -19 6 -45 6 -60 1 -15 -5 -61 -6 -102 -3 -68 5 -75 7 -71 25
6 26 6 184 0 210 -4 18 3 21 66 26 39 3 72 6 75 7 3 1 15 -1 28 -4z m634 -27
c31 -38 23 -85 -23 -139 l-40 -48 40 0 c39 0 53 -12 43 -37 -3 -9 -29 -13 -83
-13 -75 0 -79 1 -79 23 0 13 11 30 28 41 61 41 91 118 57 146 -13 11 -21 9
-45 -8 -40 -30 -70 -29 -70 1 0 26 24 52 55 60 38 10 99 -4 117 -26z m213 -1
c45 -46 57 -118 30 -173 -25 -50 -50 -66 -102 -65 -41 0 -52 5 -77 33 -27 30
-28 36 -24 99 6 77 27 115 73 129 39 11 75 3 100 -23z m202 -4 c37 -43 26 -92
-30 -144 -15 -14 -27 -28 -27 -32 0 -11 78 -6 82 6 3 9 15 7 44 -4 46 -19 93
-13 96 11 5 52 -19 84 -57 75 -38 -8 -48 9 -39 62 l9 49 54 3 c30 2 58 -1 64
-7 16 -16 -11 -41 -47 -42 -24 -1 -26 -2 -11 -7 36 -12 72 -42 90 -76 18 -33
18 -34 -4 -69 -11 -19 -28 -40 -36 -47 -20 -16 -118 -18 -137 -3 -9 8 -19 9
-28 3 -8 -6 -48 -10 -87 -10 -90 0 -93 10 -27 86 44 52 58 94 40 123 -10 15
-38 14 -62 -4 -26 -20 -44 -19 -44 3 0 19 24 45 50 55 30 11 85 -5 107 -31z
m-808 -16 c7 -8 23 -17 37 -20 33 -9 28 -36 -9 -54 -22 -11 -27 -20 -27 -51 0
-35 3 -39 30 -45 17 -3 39 0 50 6 23 15 70 -3 70 -27 0 -18 -46 -39 -63 -28
-6 4 -36 7 -66 7 l-55 1 -12 89 c-10 77 -10 93 3 113 18 27 26 28 42 9z"/>
<path d="M4673 2070 c-3 -11 -9 -20 -14 -20 -13 0 -11 -75 3 -104 12 -28 38
-40 67 -31 35 11 38 135 3 163 -24 18 -53 15 -59 -8z"/>
</g>
</svg>
