<?xml version="1.0" standalone="no"?>
<!DOCTYPE svg PUBLIC "-//W3C//DTD SVG 20010904//EN"
 "http://www.w3.org/TR/2001/REC-SVG-20010904/DTD/svg10.dtd">
<svg version="1.0" xmlns="http://www.w3.org/2000/svg"
 width="900.000000pt" height="1599.000000pt" viewBox="0 0 900.000000 1599.000000"
 preserveAspectRatio="xMidYMid meet">
<metadata>
Created by potrace 1.10, written by Peter Selinger 2001-2011
</metadata>
<g transform="translate(0.000000,1599.000000) scale(0.100000,-0.100000)"
fill="#000000" stroke="none">
<path d="M4557 13123 c-2 -5 -7 -21 -11 -36 -8 -34 -36 -33 -51 1 -5 12 -16
22 -24 22 -11 0 -12 -13 -7 -62 17 -163 18 -193 7 -270 -19 -135 -20 -138 -46
-138 -33 0 -38 -26 -16 -74 11 -22 29 -62 41 -88 26 -57 56 -67 46 -15 -3 17
-14 46 -23 64 -16 31 -16 33 10 87 15 31 33 56 40 56 8 0 24 -25 36 -56 l24
-55 -31 -62 c-29 -60 -29 -86 1 -74 8 3 24 27 36 54 12 26 29 61 36 76 23 44
19 76 -10 87 -13 5 -27 20 -29 32 -20 98 -24 237 -11 369 5 51 4 78 -3 83 -6
3 -13 3 -15 -1z"/>
<path d="M4310 12524 c0 -9 10 -30 23 -47 34 -48 66 -119 67 -146 0 -13 13
-48 30 -77 27 -49 43 -95 57 -166 3 -16 -1 -36 -11 -50 -17 -25 -21 -65 -7
-87 7 -11 11 -10 19 4 5 10 7 26 5 36 -9 34 24 21 47 -18 29 -48 37 -29 20 42
-7 29 -10 66 -6 81 4 16 10 45 15 64 4 19 18 55 30 79 13 24 29 67 36 95 15
56 38 105 74 154 24 35 21 52 -10 52 -30 0 -131 -174 -146 -252 -13 -70 -47
-93 -59 -40 -17 78 -85 223 -127 273 -20 23 -57 25 -57 3z"/>
<path d="M4142 12257 c-6 -7 -16 -32 -21 -55 -6 -23 -16 -61 -22 -84 -6 -24
-8 -70 -4 -103 9 -88 3 -98 -55 -90 -30 4 -50 3 -55 -4 -8 -14 -35 -14 -35 -1
0 6 7 10 15 10 8 0 15 5 15 10 0 6 -10 10 -23 10 -24 0 -75 47 -96 88 -12 22
-45 30 -55 13 -3 -5 1 -22 9 -37 8 -16 15 -35 15 -41 0 -23 88 -96 137 -115
80 -30 156 -17 108 19 -13 9 -16 16 -9 23 7 7 16 4 29 -10 10 -11 26 -20 35
-20 9 0 29 -13 45 -30 30 -31 50 -31 40 1 -5 15 -1 19 19 19 17 0 40 -14 66
-41 34 -36 40 -48 40 -85 0 -32 -4 -44 -15 -44 -24 0 -155 -134 -155 -159 0
-14 12 -29 34 -42 62 -36 88 -99 41 -99 -17 0 -25 -5 -25 -18 0 -45 53 -56 89
-18 18 19 21 31 16 57 -5 26 1 49 24 97 18 35 37 62 46 62 8 0 15 6 15 13 0 7
14 21 30 30 22 13 30 26 30 46 0 23 7 31 31 42 28 11 33 10 45 -6 8 -10 14
-27 14 -37 0 -11 23 -41 51 -68 63 -60 89 -110 89 -170 0 -54 32 -94 71 -88
32 4 36 34 9 56 -30 24 -20 53 28 89 46 35 53 44 46 65 -6 21 -120 138 -134
138 -5 0 -16 11 -25 23 -12 19 -13 30 -3 58 25 75 118 129 131 77 l6 -22 23
21 c13 12 34 26 48 32 14 6 32 16 42 23 12 9 23 9 40 1 22 -10 21 -11 -15 -18
-21 -4 -36 -12 -34 -19 6 -20 90 -18 139 3 50 21 118 76 118 96 0 7 7 18 15
25 17 14 19 38 5 60 -8 12 -19 6 -59 -37 -27 -29 -56 -53 -65 -53 -19 0 -21
-16 -3 -23 6 -2 9 -8 5 -12 -4 -4 -20 -2 -36 4 -17 7 -44 10 -65 6 -46 -9 -52
2 -52 105 -1 119 -36 240 -71 240 -25 0 -28 -31 -9 -84 24 -67 31 -185 13
-209 -7 -9 -40 -28 -72 -41 -36 -15 -61 -31 -62 -41 -1 -10 -14 -29 -27 -44
-14 -14 -30 -36 -36 -48 -6 -13 -17 -23 -23 -23 -5 0 -26 -13 -45 -30 -40 -36
-49 -37 -58 -9 -5 16 2 30 27 57 18 20 36 38 40 40 3 2 16 12 29 23 12 10 27
19 33 19 6 1 -1 7 -16 15 -33 18 -28 44 13 74 36 27 38 51 4 51 -17 0 -29 8
-35 23 -5 12 -18 33 -29 47 l-19 24 1 -52 c2 -40 6 -54 20 -58 22 -7 22 -29
-2 -62 -10 -15 -21 -40 -25 -56 -9 -36 -45 -76 -69 -76 -30 0 -73 51 -80 95
-4 22 -13 45 -22 51 -21 16 -19 41 6 54 16 9 19 18 15 36 -4 16 -1 30 9 40 16
17 20 44 7 44 -5 0 -14 -11 -20 -25 -6 -14 -16 -25 -21 -25 -5 0 -11 -10 -13
-22 -2 -15 -13 -25 -35 -32 -42 -11 -41 -24 2 -59 39 -31 47 -67 16 -67 -27 0
-36 -17 -13 -24 10 -4 43 -30 74 -59 47 -45 54 -56 47 -75 -8 -20 -11 -21 -31
-11 -13 7 -29 20 -36 31 -7 10 -20 18 -27 18 -22 0 -97 100 -92 122 4 13 0 18
-14 18 -11 0 -42 11 -70 26 -71 35 -84 69 -63 161 9 37 20 76 25 85 5 10 9 31
9 48 0 23 -5 30 -19 30 -10 0 -23 -6 -29 -13z m582 -657 c4 0 21 -9 37 -21 35
-25 37 -58 5 -81 -24 -18 -24 -17 -51 27 -14 25 -30 45 -35 45 -11 0 -14 43
-3 53 3 4 14 0 23 -8 9 -8 20 -15 24 -15z m-364 2 c0 -10 -11 -29 -24 -41 -14
-13 -26 -33 -28 -45 -4 -29 -32 -32 -58 -6 -31 31 -22 50 39 82 63 33 71 34
71 10z"/>
<path d="M4160 11732 c0 -29 -16 -36 -51 -22 -35 15 -54 3 -45 -28 8 -25 46
-35 103 -26 38 6 47 11 58 38 16 36 11 43 -33 52 -28 6 -32 4 -32 -14z"/>
<path d="M4811 11736 c-18 -21 -3 -66 26 -77 53 -20 113 -8 113 22 0 20 -7 22
-52 19 -21 -1 -27 4 -30 22 -4 27 -39 36 -57 14z"/>
<path d="M4767 11714 c-8 -8 1 -24 14 -24 5 0 9 7 9 15 0 15 -12 20 -23 9z"/>
<path d="M4415 11543 c4 -16 12 -34 18 -41 12 -16 14 -22 23 -72 11 -62 40
-75 101 -45 24 12 29 20 26 39 -3 13 0 27 6 30 5 4 8 13 4 21 -3 9 -1 21 5 28
19 23 18 61 -1 65 -27 5 -44 -14 -67 -75 l-21 -56 21 -19 c26 -25 25 -28 -7
-28 -28 0 -28 0 -29 70 0 78 -18 110 -62 110 -21 0 -23 -3 -17 -27z"/>
<path d="M4416 11458 c-14 -45 -19 -70 -26 -123 -5 -33 -14 -83 -21 -111 -14
-57 -3 -172 22 -231 12 -28 11 -34 -5 -52 -17 -19 -18 -32 -12 -133 4 -62 11
-117 17 -122 14 -15 11 -33 -8 -52 -14 -13 -20 -42 -25 -117 -6 -98 -6 -101
18 -119 24 -20 32 -52 15 -62 -15 -10 -42 5 -50 27 -7 18 -16 20 -97 18 -127
-3 -205 -43 -175 -90 8 -12 15 -12 45 3 107 50 216 44 268 -17 15 -18 27 -35
28 -38 0 -3 -19 -10 -42 -15 -33 -7 -43 -14 -49 -36 -9 -33 -25 -53 -91 -115
-16 -15 -19 -15 -36 0 -27 24 -51 21 -62 -8 -6 -17 -17 -25 -33 -25 -28 0 -47
-17 -40 -36 3 -8 -5 -15 -24 -19 -15 -4 -40 -13 -55 -21 -22 -12 -41 -12 -120
-2 -51 6 -119 11 -151 10 -76 -3 -85 4 -52 38 14 15 29 40 34 56 7 28 10 29
57 26 89 -5 138 -4 224 6 97 11 120 18 138 44 7 10 21 18 30 18 54 0 142 49
142 80 0 17 -25 11 -83 -20 -31 -16 -65 -30 -76 -30 -10 0 -35 -7 -54 -15 -20
-8 -53 -15 -72 -15 -20 0 -46 -5 -57 -11 -15 -8 -27 -8 -45 2 -21 11 -29 11
-55 -4 -32 -18 -172 -25 -182 -8 -7 10 -98 24 -146 22 -56 -3 -91 33 -98 97
-4 44 -1 58 21 91 45 68 134 129 204 140 39 7 56 32 34 54 -12 12 -73 -3 -139
-36 -54 -27 -169 -148 -200 -210 -12 -25 -27 -47 -33 -49 -18 -6 -23 -103 -6
-137 15 -31 15 -31 -31 -81 -25 -28 -54 -50 -64 -50 -9 0 -19 -3 -21 -8 -5 -6
-86 -35 -183 -63 -50 -15 -186 -11 -208 6 -25 19 -60 19 -75 1 -24 -28 18 -52
113 -66 86 -12 156 -10 266 9 292 48 323 51 532 49 114 -2 208 -6 208 -10 0
-4 -8 -12 -17 -17 -15 -9 -13 -10 12 -11 36 -1 68 -39 68 -82 0 -29 -12 -44
-88 -104 -23 -18 -27 -26 -18 -35 24 -24 87 6 135 64 68 82 100 118 141 157
40 40 45 50 22 50 -8 0 -15 -7 -15 -15 0 -8 -6 -15 -14 -15 -7 0 -19 -7 -26
-15 -7 -8 -19 -15 -27 -15 -7 0 -26 -11 -40 -24 -24 -23 -28 -23 -50 -9 -48
32 -20 74 68 99 89 25 110 28 119 13 7 -10 11 -10 25 1 14 11 19 11 33 -3 15
-16 19 -15 49 20 18 20 33 40 33 45 0 4 16 28 35 54 19 25 35 56 35 70 0 33
18 30 26 -3 4 -16 9 -32 12 -37 7 -13 22 16 22 46 0 34 18 45 35 22 16 -22 17
-22 39 35 15 40 15 45 1 68 -17 26 -17 89 0 86 6 -1 12 -12 14 -25 3 -26 38
-78 51 -78 17 0 40 32 40 56 0 14 6 24 15 24 8 0 18 12 21 26 5 18 10 22 18
14 7 -7 7 -17 -3 -33 -14 -22 -32 -88 -32 -117 0 -8 3 -27 7 -42 5 -24 3 -28
-15 -28 -11 0 -21 -4 -21 -9 0 -8 48 -109 86 -183 20 -37 18 -58 -6 -58 -34 0
-69 -30 -80 -69 -18 -65 -8 -196 20 -266 5 -11 11 -42 14 -69 3 -27 13 -60 21
-72 8 -13 15 -33 15 -44 0 -11 7 -23 15 -26 8 -4 15 -17 15 -31 0 -13 7 -38
16 -55 18 -36 24 -208 8 -230 -6 -7 -29 -53 -53 -103 -24 -49 -47 -98 -52
-107 -12 -24 -11 -48 1 -48 19 0 47 34 69 85 12 28 31 66 42 85 11 19 25 48
31 63 9 25 14 27 42 22 38 -8 64 -39 72 -85 3 -19 10 -48 15 -64 5 -16 9 -44
9 -62 0 -46 9 -64 33 -64 19 0 20 4 14 80 -4 44 -11 90 -18 101 -6 12 -11 41
-11 65 -1 37 -5 44 -30 55 -15 6 -28 15 -28 19 0 14 -60 69 -65 60 -14 -22
-25 -7 -25 32 0 24 7 49 16 59 15 17 13 20 -20 49 -32 29 -49 70 -28 70 4 0
26 -18 47 -40 21 -22 45 -40 52 -40 7 0 13 -7 13 -15 0 -8 -6 -15 -14 -15 -22
0 -30 -19 -10 -27 10 -4 20 0 26 10 11 21 45 22 64 2 9 -8 28 -15 43 -15 16 0
34 -7 41 -15 7 -8 21 -15 31 -15 10 0 20 -9 24 -19 3 -11 22 -26 43 -34 61
-25 86 -59 84 -117 -1 -58 -45 -148 -56 -114 -3 11 -5 40 -5 66 1 25 -4 52
-10 60 -66 79 -99 109 -138 128 -25 12 -52 19 -59 16 -19 -7 -18 -32 1 -40 8
-3 20 -17 26 -30 8 -16 23 -27 43 -31 60 -12 66 -17 86 -60 21 -45 28 -145 11
-145 -5 0 -13 -9 -16 -21 -12 -35 -60 -101 -124 -167 -34 -35 -61 -67 -61 -71
0 -4 -19 -21 -42 -38 -55 -40 -103 -84 -112 -103 -8 -17 -20 -38 -59 -98 -27
-42 -33 -77 -12 -74 6 1 11 11 13 22 2 12 10 24 18 27 8 3 14 11 14 19 0 8 7
14 15 14 8 0 15 -6 15 -14 0 -8 -7 -16 -15 -20 -8 -3 -15 -14 -15 -24 0 -11
-6 -25 -14 -31 -8 -7 -18 -27 -22 -44 -3 -18 -11 -37 -16 -44 -15 -18 -15
-165 -1 -170 13 -5 22 13 44 87 7 25 32 82 55 128 43 85 97 139 169 171 93 42
219 -6 239 -91 10 -42 -28 -129 -75 -172 -32 -31 -49 -39 -93 -43 -46 -5 -57
-2 -75 16 -21 21 -29 66 -12 73 4 2 12 13 15 26 5 16 3 22 -7 22 -21 0 -67
-46 -68 -70 -4 -69 -2 -86 14 -107 16 -20 27 -23 91 -23 86 0 115 12 180 76
44 42 75 97 107 188 17 48 89 113 135 122 36 7 116 1 152 -11 18 -6 22 -4 22
14 0 33 27 37 57 7 l26 -26 -27 0 c-42 0 -31 -23 37 -76 76 -60 100 -73 157
-88 27 -7 46 -19 48 -28 2 -9 -17 -38 -42 -65 -25 -26 -46 -51 -46 -55 0 -5
-15 -25 -33 -45 -19 -21 -49 -63 -69 -93 -19 -30 -54 -84 -76 -120 -43 -67
-51 -93 -30 -106 13 -8 84 68 94 101 23 73 262 329 332 356 25 10 28 19 10 37
-8 8 -8 12 -1 12 6 0 13 8 16 18 5 23 47 37 47 16 0 -7 -9 -18 -20 -24 -35
-18 -22 -30 33 -30 60 0 80 10 71 33 -4 13 -1 17 15 17 11 0 25 9 31 19 9 18
18 19 83 14 39 -3 80 -10 90 -15 37 -19 133 50 107 76 -7 7 -21 6 -43 -2 -18
-7 -78 -12 -133 -12 -153 0 -191 32 -110 91 26 18 46 36 46 40 0 3 9 9 20 12
26 7 26 27 1 27 -17 0 -82 -26 -121 -48 -8 -5 -30 -17 -49 -27 -19 -10 -56
-41 -83 -69 -46 -48 -60 -76 -38 -76 18 0 10 -32 -16 -67 -26 -34 -54 -44 -54
-19 0 7 7 19 15 26 19 16 19 40 0 40 -15 0 -55 20 -103 50 -13 8 -32 30 -44
48 -28 45 -18 86 29 130 51 46 79 59 154 71 130 20 179 33 179 46 0 18 -33 25
-123 25 -96 0 -137 17 -137 58 0 31 36 69 85 92 20 9 87 15 210 18 122 2 194
8 224 18 27 9 60 13 82 9 27 -5 38 -3 42 8 3 9 33 31 67 51 33 20 73 47 87 61
l27 25 30 -28 c59 -55 66 -62 66 -72 0 -14 -16 -12 -52 6 -34 17 -61 13 -97
-15 -16 -12 -22 -24 -18 -35 6 -16 9 -16 33 3 29 22 59 27 69 11 3 -5 15 -10
27 -10 11 0 39 -14 62 -32 48 -37 166 -156 166 -168 0 -14 -28 -19 -80 -13
-47 5 -125 -10 -185 -38 -11 -5 -31 -13 -45 -19 -14 -6 -38 -19 -55 -29 -16
-11 -36 -20 -44 -20 -8 -1 -32 -10 -55 -20 -23 -11 -49 -22 -58 -25 -10 -3
-18 -10 -18 -16 0 -20 28 -22 63 -5 20 9 50 15 67 13 l32 -3 -21 -26 c-11 -15
-36 -34 -56 -43 -43 -21 -45 -36 -6 -36 37 0 46 -13 29 -40 -8 -12 -23 -20
-41 -20 -26 0 -28 -3 -23 -25 5 -21 2 -27 -21 -37 -16 -7 -48 -26 -73 -43 -25
-16 -54 -35 -65 -41 -11 -6 -20 -17 -20 -25 0 -38 118 4 315 111 46 25 127 60
138 60 15 0 44 38 37 49 -9 15 -31 14 -58 -3 -29 -18 -123 -40 -142 -32 -22 8
-18 42 8 67 24 23 96 58 170 83 66 22 166 21 183 -1 13 -17 13 -17 14 0 0 9
-5 17 -11 17 -7 0 -9 10 -5 25 5 21 2 25 -30 31 -23 4 -57 0 -97 -11 -63 -19
-79 -25 -154 -64 -38 -19 -43 -20 -57 -5 -9 8 -16 24 -16 35 0 14 7 19 29 19
17 0 32 4 35 8 3 5 38 19 79 31 61 18 94 21 193 19 114 -3 119 -4 130 -27 7
-13 16 -26 22 -30 5 -3 17 -22 27 -41 10 -19 26 -46 37 -59 13 -18 17 -33 12
-54 -6 -28 -5 -29 19 -23 22 5 29 0 56 -44 17 -28 31 -54 31 -60 0 -40 -94 22
-103 69 -5 23 -12 31 -28 31 -31 0 -99 31 -99 46 0 6 7 17 15 24 17 14 20 46
4 55 -5 4 -14 18 -19 31 -5 13 -14 24 -20 24 -14 0 -12 -17 6 -44 12 -19 12
-26 3 -32 -7 -4 -15 -2 -17 4 -2 7 -10 12 -18 12 -10 0 -14 -12 -14 -39 0 -31
-6 -44 -30 -64 -42 -36 -38 -47 18 -47 27 0 56 -6 67 -13 15 -12 21 -11 37 5
22 22 44 23 52 3 5 -14 -28 -45 -49 -45 -5 0 -23 -13 -38 -30 -17 -17 -40 -31
-55 -31 -86 -5 -261 3 -284 12 -29 12 -78 5 -78 -11 0 -16 32 -28 121 -46 107
-22 328 -25 352 -5 10 8 27 11 42 7 15 -4 55 1 91 10 36 9 66 14 67 13 1 -2
11 -17 22 -34 12 -16 36 -61 54 -99 38 -77 66 -110 87 -102 21 8 18 20 -23 94
-73 133 -74 136 -52 146 23 11 28 62 4 52 -8 -3 -21 -9 -29 -12 -9 -3 -25 12
-45 41 -17 25 -31 49 -31 53 0 4 -9 18 -20 32 -36 45 -34 47 107 90 46 14 86
20 110 17 53 -8 190 -43 238 -61 52 -20 71 -20 79 0 3 9 6 17 6 20 0 3 -97 50
-135 64 -40 15 -131 40 -167 45 -21 3 -44 13 -53 21 -14 14 -11 20 31 64 64
67 178 122 242 118 43 -3 47 -5 47 -28 0 -19 -8 -28 -40 -40 -53 -20 -67 -29
-60 -41 15 -23 176 0 230 33 6 3 26 9 45 13 19 4 41 11 50 16 8 5 35 17 60 27
71 30 73 31 115 57 22 13 47 24 56 25 9 0 19 7 23 15 3 8 14 15 25 15 11 0 39
13 63 28 24 15 71 46 106 68 34 21 93 62 131 89 38 28 79 57 91 65 12 8 28 20
34 25 6 6 23 19 37 30 34 27 157 135 180 159 26 27 24 46 -5 46 -16 0 -42 -16
-69 -42 -109 -106 -216 -187 -347 -264 -114 -68 -181 -100 -221 -109 -19 -4
-40 -12 -47 -18 -17 -13 -264 -15 -322 -2 -38 9 -45 15 -48 37 -3 21 5 31 50
59 29 18 62 38 73 44 11 6 31 18 45 26 14 8 57 25 95 39 61 22 70 29 70 50 0
20 -5 25 -25 23 -40 -2 -140 -29 -200 -53 -30 -12 -64 -24 -75 -27 -11 -3 -27
-11 -35 -17 -8 -7 -33 -21 -54 -31 -22 -11 -68 -39 -103 -62 -35 -24 -68 -43
-73 -43 -6 0 -10 13 -10 29 0 32 -35 67 -75 77 -33 8 -104 -14 -153 -47 -24
-16 -45 -29 -48 -29 -3 0 -38 -25 -78 -55 -91 -68 -196 -169 -196 -189 0 -25
24 -24 50 3 14 14 47 44 74 66 28 22 58 48 68 57 30 30 91 58 124 58 24 0 40
-9 63 -35 35 -41 34 -36 21 -69 -16 -42 -68 -93 -119 -115 -61 -26 -182 -51
-247 -51 l-51 0 -49 72 c-54 81 -97 130 -196 231 l-67 68 54 67 c59 73 73 122
35 122 -11 0 -20 -4 -20 -8 0 -8 -3 -13 -70 -99 -42 -55 -66 -66 -77 -35 -7
21 -84 92 -100 92 -7 0 -16 6 -20 13 -13 20 -82 70 -162 117 -55 33 -77 41
-89 34 -28 -18 -25 -34 11 -49 41 -17 147 -111 147 -130 0 -7 4 -15 10 -17 9
-3 41 -85 54 -140 5 -22 1 -30 -29 -48 -44 -27 -166 -31 -194 -6 -10 9 -25 16
-34 16 -19 0 -76 29 -131 68 -51 35 -103 118 -89 141 19 31 43 23 110 -38 37
-34 73 -61 80 -61 14 0 18 36 6 42 -5 2 -19 19 -33 39 -87 127 -224 262 -306
304 -22 10 -46 24 -54 31 -8 6 -24 14 -35 17 -37 11 -110 37 -132 49 -17 8
-26 8 -38 -2 -25 -21 -18 -37 29 -64 66 -38 116 -107 131 -178 6 -31 25 -38
25 -10 0 54 51 14 75 -59 19 -56 32 -61 46 -19 12 34 17 35 64 16 40 -17 44
-30 15 -46 -44 -24 -9 -124 64 -186 44 -37 105 -67 159 -79 24 -5 27 -8 17
-20 -9 -10 -30 -14 -69 -13 -104 4 -303 -20 -342 -40 -69 -35 -89 -56 -95 -94
-6 -34 -3 -40 37 -77 l43 -40 -25 -9 c-14 -6 -37 -8 -51 -5 -45 9 -117 -50
-118 -94 0 -27 -25 -30 -57 -8 -15 11 -50 16 -108 17 -48 2 -89 6 -91 10 -3 4
-1 8 5 8 5 0 13 9 16 20 3 11 14 20 23 20 9 0 34 15 54 33 63 55 84 71 119 90
19 10 81 65 137 122 81 82 108 118 136 177 39 83 50 127 37 147 -12 18 -31 5
-31 -22 0 -12 -4 -29 -10 -37 -13 -21 -19 0 -22 85 -2 54 -6 70 -18 70 -12 0
-16 -16 -18 -75 -2 -41 -7 -79 -12 -84 -6 -6 -10 -26 -10 -45 0 -96 -179 -311
-258 -311 -12 0 -34 -7 -48 -17 -24 -15 -27 -15 -67 5 -55 28 -71 52 -51 81 8
11 21 21 28 21 17 0 27 23 16 39 -19 31 -94 -31 -116 -96 -14 -40 -8 -60 29
-100 14 -16 32 -23 57 -23 20 0 39 -3 43 -6 12 -12 -25 -54 -48 -54 -12 0 -28
-7 -35 -15 -7 -8 -21 -15 -30 -15 -10 0 -31 -7 -47 -15 -15 -8 -63 -17 -107
-21 -57 -4 -75 -9 -67 -17 25 -25 11 -35 -49 -34 -42 0 -65 -5 -78 -16 -10
-10 -25 -17 -33 -17 -8 0 -22 -8 -31 -17 -38 -41 -68 -55 -68 -33 0 18 62 80
80 80 26 0 36 21 18 34 -8 6 -12 18 -9 26 7 17 42 72 51 80 4 3 9 13 13 23 4
10 11 15 17 12 15 -9 12 -41 -5 -55 -9 -7 -13 -21 -10 -31 4 -11 -2 -23 -15
-32 -26 -18 -16 -27 31 -27 43 0 56 12 35 33 -12 12 -13 21 -4 48 16 50 50
116 73 142 69 75 137 188 150 247 4 16 11 32 16 35 14 10 11 59 -8 96 -20 42
-58 78 -94 91 -25 8 -27 12 -16 29 8 13 9 22 2 27 -19 13 -85 157 -85 185 0
31 -3 32 -30 15 -15 -10 -23 -9 -40 7 -11 10 -20 26 -19 34 2 9 -16 36 -40 59
-23 24 -44 57 -48 73 -3 16 -12 34 -19 40 -8 6 -14 18 -14 25 0 8 -7 14 -15
14 -17 0 -21 -35 -5 -45 6 -3 10 -18 10 -32 0 -14 16 -51 35 -83 19 -32 35
-62 35 -68 0 -5 7 -12 15 -16 8 -3 15 -12 15 -19 0 -8 13 -25 28 -38 15 -13
36 -37 46 -54 11 -16 39 -50 62 -73 24 -24 44 -46 44 -49 0 -14 -109 16 -189
53 -52 25 -171 134 -171 157 0 6 -7 18 -16 28 -27 30 -64 150 -64 209 0 79 24
115 84 124 24 4 62 2 83 -4 58 -16 153 -115 153 -159 0 -32 19 -35 31 -4 8 22
12 24 19 13 15 -24 11 -48 -8 -55 -19 -5 -42 -44 -42 -70 0 -9 10 -15 23 -15
13 0 28 -5 35 -12 9 -9 16 -7 31 6 15 14 24 15 40 7 11 -6 28 -11 39 -11 24 0
102 -68 141 -123 75 -106 170 -331 195 -462 9 -50 15 -61 33 -63 20 -3 22 0
18 25 -2 15 -6 49 -9 76 -6 48 -33 144 -46 162 -4 6 -11 26 -15 45 -4 19 -11
41 -15 50 -5 8 -30 59 -56 113 -26 55 -63 119 -81 142 -18 24 -33 49 -33 54 0
7 24 11 59 11 33 0 63 5 66 10 3 6 13 10 22 10 26 0 103 43 103 57 0 22 -31
27 -64 10 -38 -20 -105 -38 -168 -44 -37 -4 -50 -1 -65 15 -10 11 -50 53 -89
93 -38 41 -92 103 -119 139 -27 36 -59 76 -72 89 -20 21 -23 22 -29 6 -4 -9
-1 -20 6 -25 8 -5 9 -16 5 -30 -6 -19 -4 -22 9 -17 11 4 19 1 23 -9 3 -9 27
-37 53 -63 25 -25 61 -66 80 -91 40 -52 77 -95 103 -118 21 -20 22 -32 2 -32
-8 0 -15 5 -15 11 0 7 -14 8 -40 4 -67 -11 -79 -2 -77 60 2 42 -2 58 -18 73
-11 11 -33 34 -48 51 -16 17 -57 49 -92 72 -36 23 -73 57 -84 75 -11 19 -25
34 -30 34 -12 0 -43 61 -36 69 3 3 15 0 25 -7 25 -15 30 -15 30 1 0 25 -25 67
-43 73 -11 3 -16 12 -13 22 3 9 1 24 -4 32 -8 12 -11 11 -16 -7 -8 -30 -19
-29 -49 3 -28 30 -32 70 -11 100 16 22 23 12 28 -40 4 -42 24 -43 32 -1 8 41
23 46 28 8 4 -34 28 -44 28 -11 0 35 -47 98 -73 98 -12 0 -28 4 -36 9 -23 15
13 59 66 83 40 18 51 19 111 8 37 -6 81 -18 99 -27 37 -17 53 -11 53 21 0 36
-78 66 -172 66 -41 0 -79 5 -85 11 -7 7 -12 1 -16 -20 -5 -22 -12 -31 -27 -31
-27 0 -27 43 0 68 18 17 20 28 15 101 -3 45 -11 95 -19 109 -16 30 -13 137 6
209 9 36 7 49 -10 86 -20 43 -20 45 -2 98 28 87 34 169 16 214 -9 20 -16 65
-16 99 0 33 -3 71 -6 84 -10 35 -34 8 -34 -38 0 -28 -5 -39 -24 -49 -13 -8
-32 -31 -42 -52 -9 -22 -20 -39 -24 -39 -4 0 -14 20 -21 45 -8 28 -18 44 -26
41 -21 -8 -32 19 -35 87 -2 66 -5 79 -12 55z m194 -241 c0 -23 -7 -74 -15
-112 -9 -39 -19 -90 -24 -114 -10 -47 -39 -94 -63 -99 -18 -4 -42 43 -58 113
-16 68 -40 249 -34 254 13 13 40 -20 45 -55 3 -21 10 -48 17 -59 7 -11 17 -33
23 -50 10 -29 11 -29 25 -11 8 11 14 27 14 35 0 9 7 29 15 45 8 15 15 34 15
41 0 26 20 66 30 60 5 -3 10 -25 10 -48z m-175 -355 c5 -28 13 -54 18 -58 4
-4 7 -23 7 -41 0 -41 -23 -41 -28 0 -2 14 -10 31 -18 37 -18 16 -20 124 -2
118 7 -3 17 -28 23 -56z m180 -32 c-4 -29 -13 -54 -21 -57 -8 -3 -14 -16 -14
-28 0 -13 -7 -30 -15 -39 -8 -8 -15 -23 -15 -34 0 -11 7 -22 15 -26 8 -3 15
-12 15 -20 0 -27 -34 -85 -58 -97 -20 -11 -25 -10 -40 12 -24 34 -52 91 -52
106 0 25 20 23 34 -4 l15 -28 1 26 c0 14 -5 30 -12 37 -9 9 -7 21 6 51 17 37
17 42 2 72 -9 18 -16 40 -16 51 0 20 15 24 26 7 3 -6 19 -9 35 -5 28 5 29 5
29 -39 0 -35 4 -45 16 -45 13 0 15 9 12 48 -2 32 2 55 11 66 23 27 34 4 26
-54z m-166 -270 c3 0 15 -23 26 -50 22 -58 42 -62 65 -14 29 58 49 79 62 66 9
-9 8 -24 -6 -70 -10 -31 -24 -70 -32 -85 -8 -16 -14 -36 -14 -45 0 -9 -11 -30
-24 -47 -23 -28 -25 -29 -31 -10 -4 11 -20 54 -35 95 -54 145 -60 176 -34 166
9 -3 19 -6 23 -6z m-1099 -357 c0 -56 20 -85 74 -111 l48 -23 56 31 c30 16 59
30 64 30 5 0 20 -12 33 -26 18 -19 22 -31 15 -43 -14 -28 -108 -66 -200 -83
-140 -25 -190 -31 -197 -24 -5 4 6 17 22 29 77 55 104 109 70 137 -10 8 -15
31 -15 66 0 41 4 54 15 54 11 0 15 -11 15 -37z m830 -203 c0 -17 -7 -20 -40
-20 -46 0 -54 17 -12 26 15 3 32 7 37 9 6 2 11 4 13 4 1 1 2 -8 2 -19z m507
-162 c32 -30 29 -38 -14 -38 -20 0 -44 -7 -54 -16 -35 -31 -53 11 -23 54 20
28 61 29 91 0z m1117 -463 c104 -80 126 -99 126 -113 0 -8 -7 -9 -26 -2 -14 6
-37 10 -52 10 -20 0 -33 10 -51 38 -14 20 -40 56 -59 80 -18 23 -28 42 -21 42
7 0 44 -25 83 -55z m699 -326 c11 -7 29 -19 39 -29 17 -16 17 -17 -4 -36 -37
-31 -89 -57 -98 -48 -10 11 10 106 24 116 14 10 14 10 39 -3z m1237 -89 c-15
-37 -50 -42 -50 -7 0 16 8 26 28 33 35 13 37 11 22 -26z m-262 13 c2 -8 -5
-13 -17 -13 -12 0 -21 6 -21 16 0 18 31 15 38 -3z m-36 -35 c16 -16 19 -28 14
-59 -8 -49 7 -51 66 -9 22 17 51 30 64 30 13 0 26 5 29 10 9 14 58 13 73 -2 7
-7 12 -18 12 -25 0 -8 10 -27 22 -43 16 -23 30 -30 55 -30 18 0 53 -7 79 -16
34 -11 53 -13 73 -5 42 16 138 24 146 12 3 -6 -2 -14 -12 -17 -10 -3 -31 -11
-48 -19 -16 -7 -52 -21 -80 -30 -27 -10 -64 -24 -82 -31 -17 -8 -37 -14 -45
-14 -7 0 -24 -7 -36 -16 -31 -22 -42 -10 -42 47 0 27 -4 49 -9 49 -5 0 -17 8
-26 17 -10 10 -39 18 -70 21 -48 4 -58 1 -108 -32 -83 -55 -244 -243 -233
-271 7 -19 -27 -41 -77 -49 -21 -4 -41 -14 -44 -22 -11 -30 -48 -15 -83 34
-71 97 -72 116 -11 106 26 -4 48 -1 69 10 17 9 41 16 54 16 37 0 123 49 165
94 22 22 47 61 56 85 l17 44 -36 44 c-19 23 -38 43 -42 43 -4 0 -13 9 -20 20
-11 17 -9 20 21 29 39 11 63 5 89 -21z m371 -84 c3 -15 -45 -17 -54 -2 -19 29
-10 38 22 24 17 -7 31 -17 32 -22z m-2038 -84 c3 -5 -1 -20 -9 -32 -9 -12 -16
-32 -16 -44 0 -32 -11 -36 -36 -11 -29 28 -30 44 -2 74 22 24 52 30 63 13z
m1903 -2 c-7 -19 -38 -22 -38 -4 0 10 9 16 21 16 12 0 19 -5 17 -12z m-2373
-99 c-8 -12 -52 -11 -60 1 -4 6 -4 17 -1 25 4 12 10 12 36 -1 16 -9 28 -20 25
-25z m414 -105 c2 -2 -16 -22 -41 -44 -28 -24 -48 -51 -51 -70 -8 -35 -19 -38
-45 -10 -26 28 -17 68 19 89 16 9 29 20 29 24 0 20 70 28 89 11z m-969 -94 c0
-5 -9 -10 -21 -10 -11 0 -17 5 -14 10 3 6 13 10 21 10 8 0 14 -4 14 -10z m655
0 c61 -9 61 -9 -45 -16 -48 -3 -95 -12 -108 -20 -33 -22 -47 -7 -20 22 25 26
73 30 173 14z m-228 -26 c4 -10 0 -20 -10 -26 -10 -5 -17 -17 -17 -28 0 -50
-11 -52 -59 -7 -26 24 -53 46 -61 49 -31 10 3 23 69 26 59 2 73 -1 78 -14z
m873 -43 c0 -5 -6 -11 -12 -14 -9 -3 -8 -9 5 -19 20 -15 14 -48 -8 -48 -7 0
-19 -10 -27 -22 -14 -20 -15 -21 -41 -3 l-28 18 24 31 c13 17 34 35 45 41 12
5 22 13 22 17 0 5 5 8 10 8 6 0 10 -4 10 -9z m1061 -183 c26 -32 24 -38 -17
-38 -20 0 -51 -7 -69 -16 -19 -9 -42 -14 -52 -11 -17 4 -17 4 1 12 11 5 34 24
50 42 36 39 61 42 87 11z"/>
<path d="M4511 10616 c-15 -16 -19 -26 -11 -31 12 -7 39 22 40 43 0 17 -3 15
-29 -12z"/>
<path d="M5356 10523 c-8 -20 17 -43 46 -43 23 0 113 -57 151 -96 46 -46 60
-81 53 -133 -9 -68 -36 -91 -108 -91 -54 0 -58 -2 -58 -23 0 -16 12 -28 43
-45 56 -29 102 -28 144 4 29 22 33 30 33 74 0 90 24 111 33 28 3 -36 0 -63
-10 -85 -12 -26 -13 -39 -3 -68 6 -19 15 -35 19 -35 3 0 21 -13 39 -30 18 -16
40 -34 50 -40 13 -9 10 -10 -18 -5 -19 4 -60 11 -90 16 -203 34 -310 74 -310
116 0 8 12 25 28 38 25 21 25 24 9 31 -10 4 -33 3 -50 -3 -19 -5 -63 -6 -107
-1 -41 4 -102 9 -135 11 -118 7 -198 28 -297 78 -93 47 -116 36 -48 -21 23
-20 55 -36 73 -38 18 -2 43 -11 57 -21 35 -25 84 -39 168 -46 39 -4 75 -11 78
-16 7 -12 50 -12 72 0 9 5 35 11 56 12 37 4 40 2 48 -29 5 -17 20 -39 33 -48
41 -27 32 -44 -22 -44 -26 0 -97 -5 -158 -11 -106 -10 -113 -10 -163 12 -35
15 -52 29 -52 41 0 11 -11 20 -32 26 -20 5 -38 18 -45 34 l-13 26 -40 -20
c-22 -11 -40 -24 -40 -30 0 -5 -6 -8 -12 -5 -7 2 -13 12 -13 23 0 10 -7 19
-15 19 -25 0 -21 -29 9 -61 15 -16 31 -39 35 -50 8 -26 45 -49 58 -36 7 7 17
7 31 -1 15 -9 21 -9 24 1 5 14 59 16 68 3 3 -6 25 -13 50 -17 76 -11 121 -73
75 -102 -18 -11 -25 -9 -53 10 -41 29 -68 46 -87 55 -8 4 -20 14 -27 22 -7 9
-13 11 -13 6 0 -6 19 -31 43 -56 23 -24 60 -67 82 -94 81 -102 111 -127 147
-123 18 2 33 8 33 14 0 6 -24 30 -52 53 -40 31 -53 48 -53 68 0 32 37 93 56
93 8 0 17 6 20 13 8 21 492 15 559 -7 28 -9 73 -16 100 -16 28 0 72 -7 99 -15
60 -18 226 -19 276 -1 27 10 35 18 35 37 0 20 -4 23 -25 20 -14 -2 -67 -5
-118 -8 -96 -5 -89 -6 -257 54 -39 14 -94 50 -126 82 -25 26 -29 49 -13 86 12
29 12 44 3 83 -7 26 -17 54 -24 62 -7 8 -22 33 -33 55 -18 36 -104 133 -143
160 -32 24 -96 52 -130 59 -30 5 -38 3 -43 -11z m-462 -519 c29 -11 17 -24
-23 -24 -38 0 -57 10 -44 24 8 8 46 8 67 0z"/>
<path d="M4448 10133 c-16 -8 -28 -17 -28 -21 0 -4 -15 -24 -33 -44 -31 -35
-34 -36 -50 -21 -16 16 -17 16 -17 -5 0 -11 -8 -26 -18 -31 -22 -12 -59 -77
-49 -87 4 -4 15 0 25 9 10 10 22 17 26 17 4 0 14 7 23 15 8 8 20 12 26 8 7 -4
4 -10 -9 -15 -11 -5 -26 -23 -34 -41 -7 -18 -26 -43 -40 -57 -15 -14 -29 -29
-31 -35 -5 -13 -65 -55 -79 -55 -19 0 -147 -137 -154 -164 -4 -15 -2 -35 4
-46 15 -28 13 -50 -5 -44 -26 10 -17 -24 11 -43 24 -15 26 -21 21 -67 -3 -32
-19 -77 -42 -119 -21 -39 -34 -75 -31 -85 4 -13 -4 -23 -30 -37 -43 -23 -84
-70 -84 -96 0 -11 -5 -28 -12 -39 -9 -14 -9 -24 -1 -42 21 -41 53 -117 53
-124 0 -10 124 -175 158 -210 23 -24 45 -116 33 -136 -19 -30 -13 -38 28 -38
41 0 62 14 36 24 -9 3 -15 18 -15 35 0 16 -4 33 -10 36 -5 3 -10 18 -10 32 0
23 3 21 38 -23 20 -27 43 -59 50 -72 12 -21 11 -24 -8 -29 -25 -7 -21 -27 6
-31 23 -5 84 -61 84 -79 0 -7 5 -13 10 -13 6 0 10 -7 10 -15 0 -8 -4 -15 -10
-15 -5 0 -10 7 -10 15 0 8 -4 15 -9 15 -6 0 -25 14 -43 30 -18 17 -39 30 -47
30 -7 0 -19 7 -25 16 -9 11 -29 16 -74 15 -63 0 -82 10 -62 34 9 11 -3 14 -67
19 -43 4 -91 13 -106 21 -16 8 -37 15 -47 15 -9 0 -23 7 -30 15 -7 8 -23 15
-36 15 -15 0 -24 6 -24 15 0 8 -4 15 -10 15 -5 0 -10 7 -10 15 0 11 12 15 45
15 41 0 48 4 63 30 9 16 20 30 25 30 13 0 8 46 -9 80 -27 53 -82 98 -104 85
-18 -11 -11 -30 22 -57 30 -24 31 -28 19 -51 -7 -14 -21 -28 -30 -31 -9 -3
-24 -11 -33 -18 -14 -10 -24 -10 -50 1 -18 7 -44 15 -57 19 -37 8 -105 57
-150 108 -40 45 -81 115 -81 136 0 6 -8 20 -17 30 -14 15 -17 42 -17 161 -1
132 1 145 23 186 31 56 82 107 126 125 38 16 48 49 19 60 -17 7 -87 -14 -136
-40 -14 -8 -33 -14 -42 -14 -9 0 -19 -7 -22 -15 -4 -8 -13 -15 -21 -15 -8 0
-35 -13 -60 -30 -24 -16 -46 -30 -49 -30 -3 0 -24 -18 -47 -39 -23 -22 -51
-48 -63 -58 -11 -10 -51 -58 -89 -108 -37 -49 -72 -91 -76 -93 -14 -6 -10 -42
4 -42 6 0 43 27 80 60 38 33 77 60 87 60 31 0 36 -43 10 -84 -18 -30 -34 -46
-95 -94 -5 -5 -32 -18 -60 -31 -27 -13 -65 -30 -82 -39 -50 -23 -158 -18 -199
10 -18 12 -30 26 -28 30 3 4 12 33 20 64 27 106 104 199 197 237 38 17 42 23
28 45 -10 16 -52 8 -101 -21 -59 -35 -233 -168 -274 -211 l-39 -41 -51 58
c-54 60 -70 68 -80 41 -7 -18 5 -40 48 -89 14 -16 26 -33 26 -36 0 -3 -26 -31
-57 -61 -84 -79 -124 -125 -178 -204 -74 -106 -71 -104 -135 -104 -31 0 -79 7
-106 15 -27 8 -57 15 -67 15 -63 0 -175 89 -184 145 -4 28 0 38 26 64 59 58
120 36 253 -91 16 -16 31 -28 34 -28 4 0 19 -11 36 -25 31 -26 58 -33 58 -14
0 14 -97 111 -165 165 -27 21 -54 43 -60 47 -20 16 -111 72 -146 91 -73 39
-189 1 -189 -61 0 -32 -11 -29 -77 20 -32 24 -78 51 -103 62 -25 10 -52 25
-61 32 -8 7 -21 13 -28 13 -7 0 -25 6 -39 14 -40 22 -140 56 -163 56 -10 0
-28 6 -39 12 -16 10 -23 10 -36 -4 -19 -19 -13 -46 13 -54 125 -40 293 -142
293 -178 0 -12 5 -27 11 -33 19 -19 -8 -55 -38 -51 -36 4 -39 22 -6 36 26 11
25 11 -12 4 -84 -14 -277 -8 -340 12 -51 16 -221 98 -274 131 -80 51 -111 73
-160 112 -81 65 -180 153 -217 191 -24 26 -37 32 -53 27 -12 -3 -21 -10 -21
-14 0 -10 154 -162 177 -175 9 -5 26 -19 37 -31 28 -29 218 -170 297 -220 85
-54 151 -94 167 -100 6 -3 18 -7 25 -10 6 -3 30 -16 52 -28 83 -47 164 -87
178 -87 7 0 24 -6 39 -14 15 -8 41 -17 59 -21 19 -4 40 -11 49 -16 68 -37 300
-56 300 -24 0 11 -12 15 -47 15 -27 0 -67 9 -91 20 -35 16 -43 24 -40 42 3 21
8 23 58 22 72 0 153 -39 219 -105 28 -28 51 -54 51 -59 0 -16 -29 -30 -76 -36
-27 -4 -53 -10 -59 -14 -5 -4 -26 -11 -45 -15 -70 -13 -174 -65 -178 -88 -5
-26 24 -31 76 -12 59 21 194 55 246 62 71 10 274 -69 228 -89 -10 -4 -72 -105
-72 -118 0 -5 -9 -14 -20 -20 -16 -8 -26 -7 -42 5 -28 19 -58 20 -58 2 0 -18
32 -47 52 -47 8 0 17 -2 20 -6 6 -5 -86 -191 -103 -208 -5 -6 -9 -25 -9 -43 0
-43 30 -45 51 -3 30 62 122 245 125 249 2 2 23 -1 46 -8 67 -17 171 -23 179
-9 6 9 11 9 22 0 23 -20 194 -26 288 -12 120 18 175 50 113 66 -14 4 -37 1
-50 -5 -15 -6 -82 -11 -163 -11 -133 0 -139 1 -165 25 -14 13 -26 31 -26 39 0
24 41 46 87 46 51 0 55 14 13 50 -34 27 -39 63 -15 97 8 12 11 24 6 27 -5 3
-11 -1 -15 -9 -9 -25 -36 -18 -36 10 0 34 -16 31 -36 -7 -14 -27 -15 -37 -4
-66 6 -18 10 -35 8 -36 -16 -13 -76 -36 -94 -36 -57 0 -31 79 64 198 l34 42
115 0 c88 0 132 -5 186 -21 40 -12 76 -26 81 -30 6 -5 21 -9 34 -9 16 0 26 -7
29 -21 4 -15 11 -19 28 -15 12 3 30 -1 41 -9 27 -18 79 -24 79 -8 0 12 -69 53
-89 53 -6 0 -51 20 -101 44 -128 62 -193 80 -263 73 -90 -10 -95 2 -32 70 30
32 64 65 75 73 11 8 25 19 30 26 19 21 59 44 79 44 11 0 28 7 38 17 17 15 20
15 41 -5 34 -32 71 -29 49 4 -9 15 -67 44 -86 44 -8 0 -28 -8 -45 -17 -48 -28
-48 -7 0 46 42 47 63 60 71 43 5 -12 85 -72 96 -72 18 0 72 -51 72 -67 0 -12
-3 -13 -15 -3 -11 9 -19 8 -39 -7 -14 -10 -26 -24 -26 -31 0 -7 -7 -20 -15
-28 -10 -11 -13 -28 -9 -62 12 -103 52 -132 196 -140 91 -5 100 -3 133 19 19
13 35 29 35 35 0 20 -31 25 -63 10 -78 -35 -156 -31 -200 10 -35 32 -38 101
-7 129 11 10 20 22 20 27 0 4 10 18 21 29 20 20 25 21 68 9 25 -7 132 -16 236
-19 200 -8 228 -14 283 -64 31 -29 29 -70 -5 -93 -23 -15 -44 -18 -111 -16
-82 2 -133 -11 -115 -29 9 -9 70 -24 158 -38 89 -15 133 -33 174 -72 53 -48
57 -97 13 -146 -37 -39 -106 -83 -132 -83 -24 0 -26 -22 -5 -40 16 -13 20 -40
7 -40 -11 0 -47 39 -61 68 -10 18 -10 27 0 38 9 11 9 18 -1 32 -26 34 -125
122 -139 122 -8 0 -22 6 -30 13 -19 17 -100 47 -124 47 -9 0 -17 -4 -17 -10 0
-5 5 -10 10 -10 5 0 18 -8 28 -17 33 -32 81 -63 97 -63 25 0 55 -19 87 -55 35
-41 36 -47 2 -59 -21 -7 -29 -5 -36 8 -5 9 -15 16 -22 16 -8 0 -20 10 -28 21
-12 18 -17 20 -35 10 -52 -27 -300 -5 -311 27 -2 7 -12 12 -21 12 -10 0 -32
15 -49 34 -27 30 -36 34 -65 29 -23 -3 -37 0 -46 11 -7 9 -23 16 -34 16 -11 0
-28 6 -36 13 -31 25 -128 50 -171 44 -51 -7 -55 -10 -41 -35 8 -16 24 -20 94
-24 46 -3 92 -10 103 -15 10 -5 34 -17 52 -26 19 -9 39 -17 45 -17 7 0 29 -15
50 -34 33 -29 43 -33 77 -29 35 5 40 3 54 -25 20 -38 76 -68 103 -54 10 6 50
11 88 13 64 3 74 0 114 -26 71 -48 85 -55 113 -55 35 0 44 16 18 30 -25 13
-26 30 -1 30 18 0 32 -26 35 -61 1 -9 43 -49 93 -88 81 -63 136 -122 203 -221
87 -128 125 -166 136 -137 5 15 -22 87 -34 87 -4 0 -18 20 -32 45 -14 25 -28
45 -32 45 -5 0 -8 4 -8 10 0 15 -117 171 -156 208 -44 40 -39 67 13 77 20 3
50 14 67 23 56 30 154 106 159 123 2 9 20 20 38 24 53 11 158 17 182 11 42
-11 127 -104 127 -139 0 -26 69 -148 102 -178 55 -51 103 -69 182 -69 64 0 73
2 93 27 13 14 23 36 23 48 0 56 -68 151 -90 129 -12 -12 -3 -44 11 -44 5 0 9
-18 9 -40 0 -34 -4 -42 -26 -50 -57 -22 -126 -2 -176 50 -57 60 -76 170 -35
207 30 28 79 50 126 58 65 11 173 -48 218 -121 65 -102 113 -212 113 -256 0
-10 6 -21 14 -24 8 -3 16 -15 19 -26 9 -33 22 -13 20 29 -4 51 -26 161 -41
196 -7 16 -12 33 -12 38 0 6 -7 17 -15 25 -18 19 -20 57 -2 52 6 -3 13 -14 15
-26 2 -14 11 -22 22 -22 14 0 17 5 12 23 -10 34 -72 137 -83 137 -5 0 -9 5 -9
11 0 13 -74 89 -87 89 -7 0 -35 29 -165 171 -84 91 -119 214 -83 286 20 40 32
49 78 57 27 5 40 14 47 30 5 13 16 26 24 29 19 8 21 36 3 43 -20 7 -83 -22
-116 -55 -66 -64 -91 -111 -91 -168 0 -29 -4 -53 -9 -53 -18 0 -51 81 -51 124
0 50 25 83 89 115 22 12 41 25 41 30 0 13 77 51 104 51 13 0 29 7 36 15 16 19
50 19 64 0 8 -10 15 -12 26 -5 13 8 11 11 -7 16 -27 8 -30 22 -5 31 9 4 33 23
52 43 32 34 70 57 70 44 0 -14 -26 -51 -52 -74 -28 -25 -36 -54 -18 -65 6 -3
10 -24 10 -46 0 -21 -4 -39 -10 -39 -5 0 -10 9 -10 20 0 11 -4 20 -10 20 -5 0
-10 -7 -10 -16 0 -26 -61 -94 -85 -94 -28 0 -37 -10 -24 -26 7 -9 7 -28 -1
-66 -36 -167 -37 -208 -6 -208 10 0 17 14 21 38 13 82 29 149 47 190 18 40 31
48 75 43 6 -1 21 11 32 25 17 21 21 41 21 98 1 43 6 81 15 96 8 14 14 37 15
51 0 15 7 32 15 39 8 7 15 23 15 36 0 12 4 25 9 29 13 7 43 108 52 175 5 30
13 88 20 129 9 59 8 83 -2 113 -14 42 -54 78 -88 78 -25 0 -29 31 -6 50 8 7
15 23 15 35 0 12 7 28 15 35 8 7 15 19 15 27 0 8 12 35 26 59 15 25 25 46 23
48 -2 1 -16 -4 -31 -11z m-28 -292 c21 -40 0 -96 -22 -57 -6 10 -22 16 -48 16
-46 0 -48 5 -18 37 27 29 73 31 88 4z m-18 -94 c10 -12 20 -37 24 -55 8 -40
-1 -123 -15 -149 -5 -10 -22 -45 -37 -78 -30 -65 -161 -205 -192 -205 -9 0
-26 -7 -36 -15 -11 -8 -29 -15 -41 -15 -12 0 -30 -7 -41 -15 -19 -14 -56 -20
-66 -10 -2 3 15 25 38 50 23 25 50 62 59 82 9 19 26 38 36 40 10 3 19 9 19 13
0 4 22 40 48 81 50 77 82 149 82 187 0 36 -24 25 -43 -21 -38 -88 -53 -111
-85 -130 -24 -14 -31 -24 -27 -38 5 -13 -1 -26 -17 -39 -21 -17 -24 -18 -35
-3 -20 26 -16 53 7 53 18 0 20 7 20 80 l0 80 64 64 c69 69 88 77 171 69 36 -3
55 -10 67 -26z m-332 -151 c0 -14 -5 -28 -10 -31 -13 -8 -24 20 -16 40 9 24
26 17 26 -9z m-790 -190 c0 -3 -19 -33 -43 -68 -36 -52 -49 -64 -78 -69 -19
-3 -44 -9 -56 -13 -42 -13 -25 17 34 64 31 25 63 50 72 55 9 6 20 16 24 23 7
11 47 18 47 8z m12 -133 c2 -17 -4 -35 -14 -45 -14 -14 -18 -34 -18 -83 0 -36
-4 -65 -9 -65 -5 0 -17 24 -25 54 -13 44 -14 59 -3 82 17 39 48 84 57 84 5 0
10 -12 12 -27z m-122 -72 c0 -11 7 -26 15 -35 9 -9 14 -30 13 -55 -1 -22 3
-46 9 -53 6 -7 21 -38 34 -68 13 -30 46 -79 74 -109 115 -124 155 -161 192
-181 22 -11 63 -41 92 -65 30 -25 66 -52 81 -60 24 -12 31 -21 43 -55 1 -3
-34 -6 -77 -7 -53 -1 -89 -7 -111 -19 -38 -20 -65 -13 -65 16 0 39 -72 90
-125 88 -53 -2 -62 14 -26 45 70 59 52 128 -47 179 -38 19 -217 41 -351 42
-68 1 -95 20 -44 31 44 10 143 63 173 93 54 55 82 164 45 178 -24 9 -18 29 13
41 43 17 62 15 62 -6z m119 -138 c0 -5 -4 -17 -9 -28 -8 -18 -9 -17 -9 8 -1
15 4 27 9 27 6 0 10 -3 9 -7z m-733 -11 c6 -4 13 -31 16 -59 4 -41 2 -53 -9
-53 -20 0 -65 25 -86 47 -16 19 -16 20 6 40 19 18 41 30 57 32 3 0 10 -3 16
-7z m-1238 -72 c20 0 10 -44 -11 -48 -19 -4 -46 23 -47 47 0 9 7 11 23 7 12
-3 28 -6 35 -6z m260 -8 c2 -7 -3 -12 -12 -12 -9 0 -16 7 -16 16 0 17 22 14
28 -4z m100 -21 c10 -6 0 -20 -32 -53 -25 -26 -48 -57 -51 -70 -8 -31 15 -84
57 -130 36 -40 136 -98 169 -98 11 0 34 -7 51 -16 22 -11 45 -14 75 -10 61 8
60 3 -21 -113 -29 -42 -62 -54 -72 -26 -3 8 -22 17 -42 20 -58 10 -82 25 -82
53 0 28 -38 80 -125 170 -128 134 -214 164 -288 101 -31 -26 -37 -38 -37 -70
0 -46 -13 -56 -45 -35 -13 9 -30 16 -37 16 -7 0 -25 6 -39 14 -15 7 -54 23
-88 35 -34 12 -69 25 -79 30 -9 5 -26 12 -36 16 -14 4 -16 9 -9 16 8 8 30 7
74 -1 81 -15 99 -15 179 -2 66 11 84 25 115 86 19 36 38 40 104 20 35 -10 74
-29 87 -41 38 -35 58 -31 50 10 -13 70 55 113 122 78z m884 -173 c-9 -9 -12
-7 -12 12 0 19 3 21 12 12 9 -9 9 -15 0 -24z m-1189 -13 c-4 -15 -36 -12 -41
3 -3 9 3 13 19 10 13 -1 23 -7 22 -13z m1925 -1 c27 -18 28 -51 3 -81 -28 -34
-41 -28 -41 17 0 27 -5 43 -15 46 -8 4 -15 12 -15 20 0 19 40 18 68 -2z m467
-85 c0 -8 -12 -15 -27 -17 -32 -4 -40 23 -10 31 25 7 37 2 37 -14z m-379 -126
c48 -31 69 -75 50 -105 -12 -21 -46 -24 -46 -5 0 22 -51 88 -76 97 -38 15 -29
32 20 39 4 0 28 -11 52 -26z m397 -98 c21 -29 5 -45 -22 -21 -12 11 -38 16
-87 16 -38 0 -80 3 -94 7 l-25 7 25 7 c14 4 61 7 105 8 73 0 81 -2 98 -24z
m527 16 c0 -15 -16 -22 -34 -15 -25 9 -19 24 9 24 14 0 25 -4 25 -9z m-363
-16 c43 0 64 -20 32 -30 -13 -4 -38 -23 -56 -41 -39 -42 -50 -42 -58 -5 -3 16
-13 35 -21 42 -8 6 -14 16 -14 21 0 14 43 27 65 20 11 -3 34 -6 52 -7z m-411
-16 c9 -16 -8 -29 -50 -39 -37 -8 -51 4 -17 15 11 3 22 12 25 20 6 18 32 20
42 4z m-1622 -105 c28 -11 11 -94 -19 -94 -4 0 -13 -7 -19 -16 -7 -9 -18 -12
-28 -9 -14 6 -15 10 -4 33 12 27 49 92 53 92 1 0 8 -3 17 -6z m114 -36 c31
-31 -5 -63 -38 -33 -10 9 -16 23 -13 31 6 17 35 18 51 2z m-43 -82 c36 -33 25
-47 -33 -40 -72 9 -75 10 -49 38 29 31 50 32 82 2z"/>
<path d="M3873 9993 c15 -2 37 -2 50 0 12 2 0 4 -28 4 -27 0 -38 -2 -22 -4z"/>
<path d="M4094 9832 c-27 -37 -62 -81 -79 -98 -16 -17 -60 -64 -97 -106 l-68
-76 -65 3 c-70 4 -92 9 -143 31 -36 17 -73 15 -79 -2 -8 -25 134 -84 201 -84
46 0 46 -16 4 -72 -18 -24 -55 -88 -81 -143 -27 -55 -52 -107 -57 -115 -4 -9
-11 -30 -15 -49 -4 -18 -13 -44 -21 -59 -8 -15 -14 -36 -14 -47 0 -11 -7 -38
-15 -60 -24 -68 -16 -159 13 -141 6 4 14 23 17 44 7 45 33 136 52 179 7 17 13
36 13 42 0 6 4 19 9 29 18 32 81 170 81 176 0 11 92 120 129 153 20 18 45 33
56 33 21 0 53 16 45 23 -15 11 -81 24 -86 16 -7 -11 -24 -12 -24 -1 0 5 20 31
46 58 25 27 56 65 68 84 28 42 101 117 139 144 21 15 26 24 21 45 -5 24 -4 25
10 7 8 -10 19 -15 25 -11 16 9 13 25 -4 25 -8 0 -15 6 -15 14 0 34 -20 21 -66
-42z"/>
<path d="M3716 9873 c-4 -5 -33 -15 -64 -23 -38 -10 -58 -21 -60 -33 -3 -12 3
-17 20 -17 35 0 133 37 132 49 -2 26 -4 31 -12 31 -5 0 -12 -3 -16 -7z"/>
<path d="M5260 9856 c-10 -13 -9 -17 6 -21 11 -3 32 -13 47 -21 36 -18 97 -19
97 -1 0 11 -55 35 -126 55 -6 1 -17 -4 -24 -12z"/>
<path d="M4477 9434 c-4 -4 -4 -33 0 -65 6 -56 5 -59 -20 -68 -33 -13 -47 -40
-47 -88 1 -34 2 -36 13 -18 19 32 70 85 82 85 15 0 83 -67 90 -90 7 -23 35
-27 35 -6 0 8 -4 17 -9 20 -5 3 -12 26 -15 51 -7 41 -10 45 -35 45 -24 0 -30
5 -35 30 -3 17 -1 42 5 57 5 14 8 32 5 40 -5 13 -57 18 -69 7z"/>
<path d="M4454 9154 c-10 -33 -26 -66 -35 -74 -22 -19 -19 -81 5 -105 9 -9 16
-21 16 -26 0 -5 5 -9 11 -9 11 0 9 20 -6 75 -4 15 2 24 26 38 32 18 34 18 66
0 26 -14 33 -23 28 -38 -24 -83 -14 -99 23 -35 27 49 29 96 4 105 -13 3 -25
26 -37 66 -18 60 -30 66 -37 19 -1 -14 -7 -25 -13 -25 -5 0 -12 11 -13 25 -7
48 -20 42 -38 -16z"/>
<path d="M4321 9021 c-13 -8 -12 -15 5 -48 10 -21 22 -39 27 -41 4 -2 7 -8 7
-13 0 -21 49 -115 69 -133 19 -17 21 -17 27 -2 4 10 2 22 -5 29 -6 6 -11 21
-11 33 0 12 -7 27 -15 34 -8 7 -15 16 -15 21 0 19 -55 129 -65 129 -5 0 -17
-4 -24 -9z"/>
<path d="M6428 8823 c-25 -6 -22 -26 7 -69 33 -48 32 -76 -5 -112 -46 -47
-125 -52 -209 -15 -28 13 -35 13 -47 1 -12 -12 -10 -18 18 -39 30 -22 42 -24
133 -24 110 1 155 17 189 70 23 35 21 123 -3 153 -22 25 -41 29 -41 7 0 -8 -4
-15 -9 -15 -17 0 -23 20 -11 35 13 15 9 16 -22 8z m66 -68 c-4 -8 -10 -12 -15
-9 -14 8 -10 24 6 24 9 0 12 -6 9 -15z"/>
<path d="M2307 8353 c-8 -8 32 -53 47 -53 12 0 197 -91 261 -128 11 -7 31 -17
45 -22 14 -6 34 -15 45 -20 36 -16 60 -20 74 -11 13 8 13 12 1 26 -12 15 -70
53 -136 91 -10 6 -19 22 -19 35 0 19 -6 25 -29 27 -18 2 -30 11 -33 23 -6 23
-12 24 -28 2 -11 -15 -19 -15 -85 -3 -40 7 -78 20 -85 27 -14 14 -47 17 -58 6z"/>
<path d="M2792 8258 c5 -15 52 -23 76 -13 14 5 14 7 2 15 -23 15 -82 12 -78
-2z"/>
<path d="M6134 8255 c-17 -14 -15 -15 35 -13 33 2 56 8 59 16 6 18 -69 16 -94
-3z"/>
<path d="M4315 8120 c-13 -21 -23 -188 -14 -227 5 -21 9 -68 9 -106 0 -56 -5
-77 -30 -124 -16 -31 -30 -62 -30 -69 0 -19 19 -18 26 1 10 24 34 18 34 -9 0
-16 -12 -34 -31 -49 -32 -25 -32 -47 -1 -47 27 1 59 34 86 86 l25 49 11 -29
c8 -21 15 -27 30 -23 16 4 21 -2 26 -30 7 -35 -7 -65 -20 -44 -13 21 -42 11
-81 -29 -33 -34 -44 -39 -82 -38 -38 0 -46 5 -58 29 -20 39 -19 60 5 66 23 6
27 41 5 49 -24 10 -106 -19 -117 -41 -6 -11 -23 -32 -39 -47 -28 -26 -39 -58
-19 -58 22 0 8 -17 -28 -33 -47 -21 -69 -22 -54 -4 5 6 12 26 15 42 2 17 10
44 17 61 16 38 8 64 -20 64 -24 0 -25 8 -5 30 14 15 20 16 52 5 20 -7 40 -20
45 -29 10 -17 38 -22 38 -7 0 6 -10 17 -21 25 -20 14 -21 21 -15 85 7 85 -4
94 -56 40 -21 -22 -42 -39 -48 -39 -32 0 -209 -184 -265 -278 -5 -9 -16 -22
-22 -30 -21 -22 -16 -62 7 -62 11 0 24 8 27 18 4 9 17 28 30 42 13 14 23 28
23 32 0 18 55 86 93 115 46 36 81 42 91 17 8 -22 -3 -85 -19 -104 -7 -8 -19
-28 -27 -45 -8 -16 -38 -74 -67 -128 -54 -103 -63 -149 -28 -155 12 -3 19 5
23 27 4 17 10 31 14 31 4 0 11 12 15 28 9 36 94 148 123 161 12 6 22 15 22 21
0 15 32 12 56 -5 24 -16 34 -11 34 16 0 10 12 25 28 33 23 12 25 15 10 21 -20
8 -22 22 -8 45 15 24 60 -6 60 -42 l0 -28 70 0 c79 0 93 -11 66 -52 -13 -20
-14 -37 -7 -104 5 -43 13 -132 16 -196 5 -91 10 -118 21 -118 10 0 14 13 14
44 0 24 4 67 10 96 5 29 7 57 3 63 -4 6 -8 77 -10 158 -3 144 -3 148 21 176
l24 28 12 -30 c6 -16 10 -55 9 -85 -2 -42 4 -69 24 -114 15 -32 27 -65 27 -73
0 -8 7 -13 18 -11 12 2 18 15 20 46 2 23 7 42 13 42 11 0 2 -76 -14 -108 -8
-18 -8 -31 2 -55 7 -18 17 -54 21 -82 5 -27 14 -65 20 -82 15 -42 7 -298 -10
-319 -7 -8 -9 -25 -6 -40 l7 -27 22 21 c15 16 23 40 28 87 7 69 13 85 28 69
10 -10 -3 -115 -18 -149 -5 -11 -12 -28 -15 -39 -4 -12 -13 -17 -26 -13 -11 3
-23 1 -26 -5 -4 -5 -6 -87 -5 -181 0 -95 -3 -173 -8 -177 -8 -4 -14 -74 -11
-130 2 -35 -16 -121 -25 -121 -5 1 -11 20 -13 43 -2 23 -8 48 -13 55 -7 8 -6
24 1 50 13 44 -2 158 -15 116 -10 -31 -23 -29 -31 5 -4 15 -13 32 -20 37 -14
11 -25 227 -12 240 20 21 28 -15 28 -126 0 -99 3 -119 15 -119 8 0 15 6 16 13
5 58 -4 389 -11 412 -16 52 -19 284 -4 314 7 14 15 34 18 44 4 10 11 15 17 11
8 -4 10 -26 5 -65 -5 -54 -4 -59 14 -59 27 0 29 8 23 78 -5 58 -7 62 -31 62
-21 0 -24 3 -18 28 18 73 18 108 2 121 -9 7 -16 28 -16 45 -1 29 -1 30 -15 12
-20 -26 -20 -76 0 -76 22 0 18 -22 -10 -48 -20 -19 -24 -33 -24 -85 0 -34 -5
-77 -10 -96 -7 -22 -7 -40 -1 -52 13 -24 13 -56 -2 -65 -15 -9 -40 26 -33 47
4 12 -1 20 -15 24 -36 11 -78 61 -91 106 -16 56 -22 63 -47 50 -19 -10 -20
-21 -21 -174 -1 -143 1 -170 18 -210 15 -35 26 -47 42 -47 19 0 20 4 14 41 -7
43 18 123 38 116 5 -1 15 -20 22 -42 11 -32 11 -43 1 -64 -8 -15 -16 -85 -20
-169 -5 -112 -11 -149 -25 -175 -11 -17 -22 -48 -26 -67 -4 -19 -16 -43 -26
-53 -25 -24 -24 -37 11 -106 35 -70 53 -215 43 -352 -3 -46 -1 -138 6 -204 6
-66 13 -277 16 -470 3 -192 10 -404 15 -470 9 -106 11 -182 8 -280 -5 -169 17
-2524 24 -2537 10 -21 23 -81 43 -203 9 -49 22 -128 30 -175 9 -47 18 -112 22
-145 3 -33 10 -63 16 -67 21 -13 37 5 37 43 0 21 4 58 10 81 14 65 54 283 70
384 4 28 12 60 18 70 6 11 12 217 16 504 4 267 11 627 16 800 5 173 12 585 15
915 3 330 9 636 14 680 6 44 11 166 12 270 0 105 5 251 10 325 5 74 13 266 17
425 9 303 12 326 60 421 l26 52 -27 39 c-15 22 -27 53 -27 70 0 17 -7 36 -15
43 -8 7 -15 29 -15 50 0 21 -7 101 -16 179 -14 130 -14 145 1 167 9 13 15 30
14 37 -3 22 1 37 9 37 15 -1 46 -87 47 -130 0 -56 20 -60 49 -10 19 31 20 52
21 225 0 104 -1 196 -3 203 -12 37 -50 -6 -66 -73 -10 -42 -52 -94 -81 -101
-18 -4 -25 -13 -25 -31 0 -29 -17 -63 -30 -63 -12 0 -13 70 -1 89 5 8 6 24 1
37 -6 14 -5 35 2 55 8 24 8 37 0 50 -11 18 -7 49 7 49 4 0 13 -6 20 -12 11
-11 13 -7 7 21 -3 18 -6 37 -6 42 0 5 -8 9 -18 9 -34 0 -83 140 -63 178 6 12
10 50 9 87 -2 77 9 95 40 62 17 -18 22 -36 24 -97 1 -43 -3 -84 -10 -97 -15
-27 -15 -48 0 -90 12 -33 22 -41 32 -25 3 5 6 53 7 108 3 131 4 134 84 134 62
0 65 1 65 23 0 13 9 32 21 43 20 18 21 18 35 0 12 -17 12 -22 -3 -38 -15 -17
-15 -18 6 -18 14 0 25 -9 31 -26 9 -24 14 -26 48 -21 34 6 41 2 94 -48 51 -48
98 -114 98 -137 0 -16 42 -49 56 -44 18 7 18 40 -1 56 -8 7 -15 19 -15 28 0 8
-6 23 -14 31 -28 31 -116 212 -118 242 -4 41 19 57 58 40 44 -18 74 -49 128
-131 57 -85 80 -110 101 -110 27 0 16 29 -45 118 -85 125 -141 181 -275 280
-5 4 -23 17 -39 30 -15 12 -32 19 -37 16 -5 -3 -9 -39 -9 -80 0 -57 -3 -74
-14 -74 -8 0 -16 -6 -19 -14 -6 -14 -53 -11 -63 5 -7 12 -64 12 -64 0 0 -5 -3
-17 -7 -26 -5 -14 -2 -16 15 -11 25 8 37 -20 23 -56 -13 -34 -30 -45 -75 -46
-33 -1 -45 5 -77 38 -39 40 -73 51 -82 28 -3 -10 -7 -10 -17 -1 -19 17 -4 58
25 71 20 10 26 18 23 39 -5 42 20 39 31 -4 14 -52 66 -113 97 -113 32 0 30 19
-6 54 -30 29 -40 66 -19 66 7 0 18 -8 25 -17 12 -17 13 -17 19 -1 4 11 -5 43
-24 80 l-30 63 9 120 c10 123 5 225 -12 259 -16 31 -26 5 -30 -84 -6 -106 -33
-169 -83 -193 -19 -9 -42 -28 -51 -42 -15 -23 -15 -27 -2 -43 9 -9 18 -30 22
-45 4 -15 11 -25 16 -22 15 9 12 52 -6 69 -17 17 -11 36 11 36 8 0 22 11 31
25 25 39 40 31 36 -17 -4 -51 -27 -102 -63 -139 -42 -41 -52 -68 -58 -154 -3
-45 -10 -79 -16 -78 -5 2 -13 40 -16 85 -7 99 -10 108 -49 130 -17 9 -35 30
-40 45 -6 15 -13 35 -17 43 -11 26 -14 98 -4 104 5 4 18 -5 29 -19 11 -14 25
-25 30 -25 20 0 24 -21 8 -45 -20 -31 -21 -65 -1 -65 9 0 15 9 15 22 0 12 7
29 16 39 25 28 10 64 -37 91 -59 33 -90 98 -97 205 -5 80 -13 105 -27 83z m55
-440 c0 -11 -4 -20 -9 -20 -14 0 -23 18 -16 30 10 17 25 11 25 -10z m298 -3
c2 -10 -3 -17 -12 -17 -10 0 -16 9 -16 21 0 24 23 21 28 -4z m382 -101 c0 -19
-4 -23 -20 -19 -28 8 -37 -24 -17 -59 9 -17 17 -38 17 -49 0 -11 5 -28 12 -39
19 -29 3 -35 -42 -15 -40 18 -52 35 -25 35 26 0 16 24 -20 49 -44 29 -52 54
-27 79 30 30 54 41 90 42 27 0 32 -4 32 -24z m-500 -202 c0 -14 -7 -27 -15
-30 -8 -4 -15 -17 -15 -30 0 -15 -6 -24 -15 -24 -8 0 -15 8 -15 19 0 10 -7 24
-15 31 -16 13 -20 42 -8 53 3 4 14 0 24 -9 16 -14 18 -14 29 5 14 27 30 18 30
-15z m43 -228 c19 -15 22 -32 7 -41 -12 -7 -51 36 -43 47 6 11 15 9 36 -6z
m183 -280 l-1 -64 -33 -4 -34 -4 7 45 c6 41 37 91 56 91 4 0 6 -29 5 -64z
m-492 29 c9 -14 18 -42 19 -62 2 -35 1 -37 -33 -38 l-35 -2 0 64 c0 52 3 63
16 63 9 0 24 -11 33 -25z m114 -215 c2 -33 9 -58 18 -65 18 -13 22 -71 6 -87
-13 -13 -19 -2 -24 42 -2 14 -10 26 -19 28 -15 3 -16 -13 -13 -146 2 -83 9
-178 15 -213 6 -35 14 -98 17 -139 4 -41 13 -85 20 -97 6 -12 12 -41 13 -65 1
-59 12 -93 29 -93 21 0 24 -36 7 -87 -11 -33 -12 -67 -6 -148 20 -248 35 -374
45 -377 13 -4 49 361 41 415 -4 24 -1 47 8 66 17 32 20 96 5 96 -5 0 -10 -9
-10 -20 0 -11 -4 -20 -9 -20 -14 0 -20 23 -14 53 4 21 10 26 23 22 21 -7 33
32 29 93 -2 23 4 47 14 62 12 17 17 45 17 90 1 36 7 83 15 105 8 22 15 73 15
113 0 54 3 73 13 70 12 -4 27 -127 30 -243 1 -72 -17 -187 -54 -342 -7 -27
-15 -70 -20 -98 -4 -27 -12 -68 -18 -90 -8 -27 -9 -58 -3 -95 7 -43 10 -50 15
-30 26 114 37 169 38 195 0 17 4 39 9 50 7 18 8 19 15 2 9 -22 0 -204 -14
-272 -5 -27 -10 -131 -11 -230 -1 -99 -5 -200 -9 -225 -6 -40 -8 -33 -15 60
-16 224 -26 292 -44 298 -10 3 -12 -12 -10 -62 1 -41 -2 -70 -10 -78 -13 -13
-17 -149 -5 -161 4 -4 8 -202 9 -440 2 -237 4 -504 5 -592 2 -135 -4 -500 -26
-1610 -4 -237 -15 -428 -25 -440 -13 -17 -23 -115 -11 -115 5 0 13 16 17 35 8
42 20 52 33 27 10 -20 3 -102 -9 -102 -5 0 -8 -17 -8 -37 0 -48 -12 -104 -25
-121 -5 -7 -7 -36 -3 -71 5 -48 4 -60 -9 -64 -35 -14 -63 19 -45 53 7 14 6 31
-5 62 -8 24 -15 57 -15 73 0 17 -5 36 -11 42 -8 8 -8 17 0 31 8 15 7 23 -5 33
-11 9 -14 27 -12 66 4 64 19 70 33 13 6 -23 13 -38 18 -34 10 11 9 78 -3 110
-15 38 -19 179 -25 894 -3 344 -10 758 -16 920 -9 241 -9 307 2 360 10 48 14
176 15 481 1 229 6 425 11 435 17 37 -2 354 -27 444 -5 19 -10 53 -10 76 0 23
-4 54 -10 70 -5 16 -14 56 -20 89 -16 98 -37 201 -43 211 -3 5 -10 50 -16 99
-9 74 -8 101 5 150 8 33 19 132 25 220 5 88 11 174 14 190 2 17 7 52 11 78 9
63 28 56 32 -13z m270 -217 c-2 -11 -12 -17 -24 -16 -19 2 -22 -5 -28 -65 -3
-37 -6 -93 -6 -125 0 -43 -3 -58 -12 -55 -14 5 -24 202 -13 245 7 31 89 47 83
16z m-96 -378 c-12 -22 -27 -2 -18 22 5 12 10 13 17 6 7 -7 8 -17 1 -28z
m-224 -448 c5 -7 12 -41 16 -77 4 -36 12 -81 18 -101 8 -27 6 -94 -6 -255 -9
-121 -16 -226 -16 -234 0 -7 -3 -10 -7 -6 -4 4 -10 147 -14 319 -4 182 -12
336 -19 369 -7 31 -9 65 -5 75 6 13 10 6 16 -30 4 -27 12 -54 17 -60z m9 -809
c-2 -18 -4 -4 -4 32 0 36 2 50 4 33 2 -18 2 -48 0 -65z m270 15 c-2 -16 -4 -3
-4 27 0 30 2 43 4 28 2 -16 2 -40 0 -55z m-137 -3413 c0 -35 -16 -48 -25 -20
-8 25 3 62 16 55 5 -4 9 -19 9 -35z"/>
<path d="M4466 1805 c-8 -22 -8 -60 1 -68 14 -14 33 16 27 42 -9 35 -20 46
-28 26z"/>
<path d="M4555 7991 c-6 -11 9 -23 19 -14 9 9 7 23 -3 23 -6 0 -12 -4 -16 -9z"/>
</g>
</svg>
