<?xml version="1.0" standalone="no"?>
<!DOCTYPE svg PUBLIC "-//W3C//DTD SVG 20010904//EN"
 "http://www.w3.org/TR/2001/REC-SVG-20010904/DTD/svg10.dtd">
<svg version="1.0" xmlns="http://www.w3.org/2000/svg"
 width="300.000000pt" height="300.000000pt" viewBox="0 0 300.000000 300.000000"
 preserveAspectRatio="xMidYMid meet">
<metadata>
Created by potrace 1.10, written by Peter Selinger 2001-2011
</metadata>
<g transform="translate(0.000000,300.000000) scale(0.100000,-0.100000)"
fill="#000000" stroke="none">
<path d="M605 1849 c-15 -6 -12 -8 16 -8 49 -1 151 -54 189 -98 26 -30 31 -41
26 -68 -6 -30 -4 -33 14 -28 30 8 68 -5 80 -28 11 -19 10 -20 -12 -9 -18 10
-21 10 -11 0 6 -7 22 -18 35 -24 12 -6 24 -20 26 -30 2 -10 0 -16 -6 -12 -6 4
-8 -2 -5 -14 8 -30 -3 -25 -60 29 -29 26 -70 60 -92 73 -48 30 -132 50 -175
42 -53 -11 -41 -19 28 -19 59 0 73 -4 120 -34 48 -31 57 -42 53 -63 0 -5 5 -8
12 -8 17 0 49 -34 41 -43 -3 -3 11 -9 31 -13 37 -7 85 -45 85 -67 0 -8 -3 -8
-8 -2 -13 19 -67 53 -95 60 -15 4 -27 10 -27 14 0 3 -21 5 -47 4 -45 -1 -46
-1 -13 6 l35 8 -35 3 c-19 1 -53 2 -75 1 -58 -3 -148 33 -184 75 -24 26 -31
45 -32 77 0 31 -3 37 -8 22 -9 -24 2 -79 21 -102 12 -15 11 -15 -12 -3 -85 45
-181 125 -207 173 -8 16 -17 27 -20 24 -3 -3 7 -28 22 -54 42 -75 163 -155
350 -233 11 -5 30 -12 42 -15 13 -4 34 -27 50 -57 15 -27 29 -45 31 -39 2 5
-1 18 -6 27 -5 9 -7 27 -4 40 4 22 9 24 54 23 27 -1 51 -6 55 -11 3 -6 24 -18
48 -28 24 -10 46 -24 51 -31 5 -9 2 -10 -12 -5 -44 19 -95 28 -111 21 -13 -6
-3 -10 35 -16 39 -5 62 -15 90 -40 21 -19 53 -42 71 -52 18 -9 35 -25 38 -35
2 -10 20 -23 40 -29 47 -15 83 -2 82 29 l0 23 -11 -22 c-19 -40 -53 -29 -125
41 -60 59 -65 67 -60 95 5 22 3 31 -7 31 -17 0 -48 34 -39 43 13 14 33 7 67
-23 36 -32 54 -76 37 -93 -6 -6 -11 -16 -11 -21 0 -6 13 5 28 24 26 30 72 49
72 28 0 -4 12 -8 26 -8 31 0 97 -66 115 -115 6 -16 15 -39 19 -50 8 -20 9 -20
9 1 2 36 -59 142 -101 179 -23 19 -40 37 -37 39 2 2 15 9 28 16 21 11 27 8 62
-26 54 -52 95 -159 92 -238 -1 -40 1 -55 8 -45 15 24 10 123 -10 182 -10 31
-33 81 -52 112 -38 63 -121 155 -140 155 -7 0 8 -19 32 -41 50 -47 41 -62 -19
-31 -20 10 -44 17 -52 14 -8 -3 -12 -1 -7 4 4 4 -10 26 -32 48 -50 53 -91 114
-91 137 0 11 -5 19 -11 19 -25 0 23 -96 85 -168 25 -30 46 -60 46 -68 0 -8 10
-14 24 -14 24 0 43 -16 32 -27 -3 -3 -25 -8 -50 -10 -38 -5 -48 -2 -70 20 -16
16 -23 32 -20 42 4 11 2 14 -9 10 -18 -8 -47 20 -47 45 0 11 8 24 18 29 14 9
12 10 -12 11 -40 0 -107 41 -142 87 -32 44 -41 51 -109 92 -57 34 -121 51
-150 40z m270 -171 c6 -4 2 -8 -7 -8 -10 0 -18 7 -18 17 0 9 3 12 8 7 4 -5 12
-12 17 -16z m114 -108 c9 -31 17 -40 34 -41 l22 0 -23 -12 c-26 -12 -42 2 -42
37 0 10 -10 35 -22 55 -21 34 -21 35 -1 18 11 -9 25 -35 32 -57z m-84 -34 c6
-5 -4 -1 -22 10 -18 10 -35 25 -38 33 -5 14 10 3 60 -43z m315 -57 c-14 -11
-46 -30 -72 -43 -42 -21 -45 -22 -35 -5 7 11 21 19 32 19 11 0 34 11 50 25 17
13 35 24 40 24 6 0 -1 -9 -15 -20z m-453 5 c-3 -3 -12 -4 -19 -1 -8 3 -5 6 6
6 11 1 17 -2 13 -5z m561 -59 c-3 -3 -9 2 -12 12 -6 14 -5 15 5 6 7 -7 10 -15
7 -18z"/>
<path d="M2310 1822 c-74 -37 -197 -162 -135 -138 8 3 15 1 15 -5 0 -7 -10 -9
-23 -5 -16 4 -36 -3 -61 -20 -26 -18 -45 -24 -62 -20 -14 4 -24 2 -24 -4 0 -5
5 -10 10 -10 16 0 12 -47 -6 -64 -19 -19 -26 -20 -44 -3 -12 10 -12 9 -1 -5
15 -20 2 -52 -29 -68 -27 -14 -86 -12 -99 3 -14 17 -4 27 26 27 14 0 23 6 23
15 0 8 20 37 45 65 24 28 52 65 61 82 23 44 35 88 23 88 -5 0 -9 -8 -9 -18 0
-51 -128 -190 -196 -212 -19 -7 -38 -10 -40 -7 -3 3 12 21 32 41 20 20 35 38
32 41 -9 9 -114 -111 -146 -167 -58 -102 -78 -224 -47 -278 l15 -25 -7 30
c-20 79 19 207 83 275 39 41 45 44 64 32 12 -7 24 -11 27 -8 3 2 -8 11 -24 20
-15 8 -23 15 -16 16 7 0 29 -11 49 -25 20 -14 45 -25 54 -25 10 0 20 -7 23
-15 5 -12 1 -12 -21 -4 -14 6 -32 15 -39 21 -10 8 -25 -3 -63 -41 -54 -55 -84
-107 -94 -161 -6 -37 1 -26 23 35 7 17 30 50 51 74 38 41 43 43 81 38 36 -5
39 -4 22 9 -16 13 -16 14 12 9 16 -2 34 -11 40 -19 38 -54 37 -53 29 -31 -14
40 -6 68 31 102 37 34 75 44 75 19 0 -8 -13 -20 -29 -27 -23 -10 -27 -17 -21
-30 13 -24 -17 -71 -78 -124 -54 -45 -102 -60 -102 -30 0 8 -4 15 -10 15 -20
0 -9 -31 13 -39 30 -12 95 8 103 31 3 9 22 27 42 39 20 13 54 38 75 56 24 21
47 33 66 33 17 0 33 5 36 10 9 14 -23 12 -70 -5 -48 -18 -48 -18 -39 -4 3 6
25 19 49 29 24 10 46 23 49 29 4 6 29 11 55 11 43 0 49 -3 53 -24 3 -13 1 -31
-4 -40 -5 -9 -8 -21 -6 -27 2 -5 17 13 33 41 28 48 35 54 97 75 154 54 363
193 334 223 -4 3 -25 -13 -49 -35 -36 -35 -147 -113 -160 -113 -3 0 4 17 14
37 21 41 24 63 9 63 -5 0 -10 -11 -10 -25 0 -33 -62 -101 -105 -115 -47 -15
-135 -28 -135 -20 0 4 -19 4 -42 -1 -24 -4 -54 -8 -67 -9 -23 0 -24 1 -6 20
10 11 24 20 32 20 7 0 12 3 12 8 -4 22 5 33 51 62 37 24 66 33 117 39 66 7 67
7 28 14 -73 14 -186 -37 -264 -117 -35 -36 -68 -48 -58 -22 3 8 1 17 -6 19
-15 5 9 37 29 37 7 0 16 5 20 12 5 8 2 9 -11 4 -16 -6 -16 -4 -4 11 22 28 32
33 72 33 35 0 37 2 27 20 -27 50 75 143 187 169 l38 9 -35 1 c-19 0 -60 -12
-90 -27z m-229 -218 c-12 -15 -21 -36 -21 -48 0 -33 -15 -50 -36 -41 -18 7
-18 7 2 15 13 5 24 21 28 41 7 34 22 59 38 59 5 0 0 -12 -11 -26z m114 -34
c-3 -5 -11 -10 -16 -10 -6 0 -7 5 -4 10 3 6 11 10 16 10 6 0 7 -4 4 -10z m-50
-80 c-3 -5 -13 -10 -20 -10 -8 0 -30 -14 -50 -31 -26 -23 -35 -27 -35 -15 0 9
4 16 10 16 5 0 17 9 27 19 22 23 81 41 68 21z"/>
</g>
</svg>
