<?xml version="1.0" standalone="no"?>
<!DOCTYPE svg PUBLIC "-//W3C//DTD SVG 20010904//EN"
 "http://www.w3.org/TR/2001/REC-SVG-20010904/DTD/svg10.dtd">
<svg version="1.0" xmlns="http://www.w3.org/2000/svg"
 width="300.000000pt" height="406.000000pt" viewBox="0 0 300.000000 406.000000"
 preserveAspectRatio="xMidYMid meet">
<metadata>
Created by potrace 1.10, written by Peter Selinger 2001-2011
</metadata>
<g transform="translate(0.000000,406.000000) scale(0.100000,-0.100000)"
fill="#000000" stroke="none">
<path d="M580 3645 c-3 -122 -16 -185 -38 -193 -7 -2 -12 0 -11 5 1 4 1 17 0
28 -1 19 -3 19 -20 -4 -12 -16 -24 -22 -35 -18 -18 7 -102 -7 -151 -25 -52
-20 -116 -71 -141 -113 -49 -84 -63 -231 -27 -277 6 -7 13 -24 17 -38 3 -14
22 -43 42 -65 29 -33 33 -34 18 -10 -19 32 -37 108 -23 99 5 -3 9 3 9 12 0 10
14 -4 31 -32 59 -93 129 -131 272 -143 55 -4 115 -5 133 -1 19 4 34 6 34 3 0
-3 7 0 15 7 8 7 15 9 15 4 0 -5 4 -3 9 5 8 12 14 13 36 3 38 -17 28 -31 -42
-57 -48 -19 -81 -23 -155 -23 -83 0 -93 -2 -95 -19 -2 -10 0 -12 3 -5 3 6 19
12 35 12 28 0 34 -8 30 -39 -2 -7 2 -10 7 -7 6 3 4 -17 -3 -46 -13 -53 -29
-176 -22 -167 2 2 14 45 26 94 45 182 33 162 98 164 61 2 133 24 170 51 l22
17 -29 22 c-16 11 -32 21 -35 21 -4 0 -20 12 -36 28 -38 35 -69 95 -67 127 2
24 3 24 38 -14 19 -21 53 -51 75 -67 22 -16 42 -31 45 -34 19 -20 59 -38 62
-28 7 21 62 15 113 -12 88 -47 242 -93 286 -86 33 5 39 4 39 -11 0 -27 -12
-41 -41 -48 -20 -5 -25 -12 -22 -25 10 -38 -97 -43 -185 -9 -51 20 -62 28 -62
47 0 31 22 37 60 17 31 -16 48 -15 37 2 -3 4 -22 17 -43 28 -21 11 -49 30 -63
43 -27 24 -43 13 -20 -14 10 -12 9 -20 -1 -39 -14 -27 -36 -35 -27 -10 8 18
-5 26 -23 15 -12 -7 -10 -12 8 -28 26 -23 28 -32 6 -32 -12 0 -15 -6 -10 -25
4 -14 2 -25 -3 -25 -5 0 -11 -11 -13 -25 -8 -37 5 -30 32 17 l24 42 15 -34 15
-35 4 28 c5 39 17 34 43 -19 35 -73 113 -141 173 -151 11 -2 24 -7 30 -12 14
-11 82 -21 181 -27 89 -5 105 -9 105 -23 0 -14 -77 -34 -112 -29 -15 3 -28 0
-28 -5 0 -6 36 -8 95 -4 110 6 120 0 124 -77 1 -25 9 -62 17 -82 8 -20 14 -37
12 -39 -2 -1 -50 -30 -108 -65 -58 -34 -96 -59 -85 -55 11 4 52 19 90 33 39
14 72 29 75 32 3 4 17 10 32 14 30 7 30 3 -9 93 -13 30 -9 83 6 83 4 0 16 -7
27 -15 19 -13 40 -65 73 -185 8 -28 10 -14 8 70 -1 58 2 111 6 118 6 8 0 12
-23 12 -47 0 -92 23 -130 67 -69 81 -101 136 -96 170 2 10 -2 21 -7 25 -12 8
-27 117 -16 123 3 3 9 -18 12 -47 4 -28 13 -61 22 -74 8 -13 12 -24 8 -24 -5
0 0 -5 10 -11 9 -5 17 -17 17 -24 0 -8 3 -15 8 -15 4 0 22 -14 40 -31 18 -17
36 -28 39 -25 7 7 -28 76 -38 76 -9 0 -39 75 -39 96 0 19 16 3 94 -93 32 -40
60 -73 62 -73 2 0 13 9 25 21 17 17 23 18 36 7 9 -7 18 -12 20 -10 11 8 13 0
3 -13 -17 -21 -7 -29 19 -15 18 9 23 6 41 -22 22 -37 26 -78 8 -78 -7 0 8 -14
34 -30 27 -17 55 -30 63 -30 8 0 15 -4 15 -10 0 -20 16 -9 27 18 9 23 11 25
18 9 14 -34 -51 -85 -85 -67 -16 8 -20 8 -20 -4 0 -7 7 -16 15 -20 24 -9 17
-26 -10 -26 -13 0 -43 7 -65 16 -34 14 -40 21 -41 48 -1 30 -1 30 -9 6 -13
-41 -11 -47 20 -60 36 -15 42 -23 34 -44 -10 -25 -30 -19 -46 15 -17 35 -23
27 -32 -42 -7 -50 -6 -52 49 -95 54 -41 73 -50 123 -59 32 -5 42 -11 42 -26 0
-14 -7 -19 -26 -19 -34 0 -132 29 -139 41 -4 5 -14 9 -24 9 -10 0 -24 7 -31
15 -7 8 -17 15 -23 15 -18 0 33 -48 65 -61 27 -11 29 -15 23 -48 -10 -54 -29
-66 -22 -13 5 45 1 52 -18 26 -11 -15 -16 -15 -68 4 -32 11 -57 17 -57 13 0
-4 17 -13 38 -19 70 -21 76 -30 73 -113 -2 -73 -3 -74 -42 -108 -52 -43 -89
-117 -88 -173 1 -31 3 -37 7 -20 13 44 40 19 41 -38 1 -36 21 -103 29 -96 3 4
5 27 3 53 -3 66 8 120 26 127 11 5 14 1 11 -11 -3 -10 1 -31 7 -47 l12 -29 7
41 c8 51 24 62 47 31 10 -13 24 -24 31 -25 7 0 26 -6 41 -12 16 -7 36 -12 45
-12 25 1 65 35 60 51 -3 8 1 28 9 46 18 44 16 55 -4 18 -37 -70 -80 -91 -69
-32 3 17 8 45 11 61 2 15 8 33 13 40 9 11 21 97 27 186 1 25 5 52 8 60 14 41
15 49 4 53 -9 3 -9 8 0 18 23 23 31 1 32 -94 1 -27 5 -46 9 -43 5 3 35 -3 68
-14 32 -10 60 -17 62 -15 6 6 -60 65 -73 65 -23 0 -28 20 -29 122 -1 82 2 98
14 96 22 -5 40 -48 40 -100 0 -35 4 -48 14 -48 8 0 18 5 21 10 3 6 1 10 -4 10
-6 0 9 30 34 67 25 37 45 72 45 77 0 6 -10 -5 -22 -24 l-23 -35 -6 85 c-6 75
-12 96 -54 175 -25 49 -56 101 -68 113 -24 26 -108 72 -131 72 -21 0 -65 39
-46 41 33 3 65 -4 109 -23 25 -11 57 -24 71 -30 l25 -9 -25 28 c-14 15 -28 29
-32 31 -5 2 -8 11 -8 20 0 14 2 14 9 3 5 -7 14 -11 20 -7 13 8 151 -127 151
-147 0 -8 7 -18 16 -21 8 -3 12 -2 9 4 -3 6 3 10 14 10 12 0 21 6 21 13 0 8
11 12 31 11 37 -3 139 25 139 38 0 5 -5 6 -11 2 -6 -3 -28 -9 -48 -11 -20 -3
-63 -8 -96 -13 -55 -8 -62 -7 -78 13 -58 69 -117 122 -156 140 -59 26 -151 33
-203 16 -40 -13 -41 -13 -69 19 -26 29 -29 30 -29 11 0 -22 -54 -124 -71 -134
-20 -13 -21 29 0 65 22 39 31 88 31 162 0 73 -1 78 -11 78 -6 0 -8 4 -5 9 3 4
-7 28 -23 52 -16 24 -32 55 -36 69 l-8 24 29 -18 c23 -14 21 -10 -11 22 -23
21 -63 47 -90 56 -106 37 -99 27 -105 160 l-5 119 -13 -49 c-8 -27 -23 -71
-33 -97 -11 -26 -17 -51 -15 -56 12 -18 -22 -29 -104 -33 -71 -4 -94 -10 -139
-35 -50 -28 -55 -29 -72 -14 -11 8 -19 27 -19 41 -1 23 -2 24 -14 8 -17 -23
-30 -23 -22 -2 5 13 3 14 -6 7 -9 -7 -25 -5 -53 7 l-40 17 -15 -76 c-11 -54
-19 -76 -30 -76 -12 0 -14 14 -12 76 3 49 0 79 -7 83 -6 4 -11 2 -11 -3 0 -26
-31 -7 -54 32 -14 24 -36 53 -48 64 -47 44 -141 83 -152 64 -3 -5 10 -12 29
-15 38 -8 108 -62 102 -80 -2 -6 -15 -11 -28 -12 -49 -2 -94 -36 -110 -83 -11
-32 3 -78 42 -132 34 -48 18 -54 -112 -41 -150 16 -212 50 -246 137 -27 70 -2
153 60 199 24 18 46 22 138 24 110 4 145 19 47 21 -29 0 -63 3 -76 5 -33 7
-120 -18 -141 -41 -18 -19 -62 -105 -76 -148 -5 -16 -8 -17 -15 -5 -10 15 -2
69 11 84 5 6 9 17 9 25 0 9 -9 2 -21 -16 -25 -39 -54 -46 -43 -10 12 38 31 71
56 93 30 29 99 65 110 58 4 -3 8 0 8 7 0 19 238 4 327 -21 89 -25 94 -25 63 0
l-25 20 28 0 c16 0 37 -5 49 -11 11 -6 22 -9 24 -6 11 10 -96 67 -146 78 -30
7 -60 17 -67 23 -7 6 -19 67 -26 136 l-15 125 -2 -80z m470 -580 c20 -24 5
-29 -37 -12 -35 13 -46 29 -36 49 5 10 55 -16 73 -37z m435 -30 c17 -4 35 -8
40 -9 65 -15 158 -100 170 -157 9 -41 0 -46 -22 -12 -42 66 -109 113 -168 118
-16 2 -61 10 -98 19 -38 9 -78 16 -90 16 -31 0 -51 15 -42 30 8 13 143 9 210
-5z m-450 -44 c9 -23 -3 -25 -45 -6 -36 16 -49 33 -35 47 8 8 73 -25 80 -41z
m582 42 c-4 -3 -10 -3 -14 0 -3 4 0 7 7 7 7 0 10 -3 7 -7z m-347 -42 c0 -5 -8
-12 -19 -16 -10 -3 -38 -23 -61 -45 -24 -22 -47 -40 -52 -40 -16 0 -8 28 17
54 36 39 115 71 115 47z m-280 -16 c29 -15 40 -35 20 -35 -18 0 -70 30 -70 40
0 14 16 12 50 -5z m546 -40 c31 -17 59 -35 61 -40 2 -6 -17 -16 -41 -23 -46
-12 -88 -54 -99 -100 -4 -19 12 -121 28 -172 3 -10 0 -20 -8 -23 -21 -8 -194
21 -229 39 -76 38 -105 91 -45 81 51 -8 85 3 123 38 25 24 34 41 34 64 0 41
-21 89 -55 124 -40 42 -25 50 80 45 79 -3 102 -8 151 -33z m-326 -60 c0 -8 -6
-15 -14 -15 -17 0 -28 14 -19 24 12 12 33 6 33 -9z m497 -97 c-3 -7 -5 -2 -5
12 0 14 2 19 5 13 2 -7 2 -19 0 -25z m-59 -65 c-3 -30 -25 -42 -34 -19 -9 22
2 46 21 46 12 0 15 -8 13 -27z m269 -238 c9 -24 -1 -27 -15 -5 -8 13 -8 20 -2
20 6 0 13 -7 17 -15z m170 -17 c45 -48 103 -167 103 -212 0 -37 -14 -76 -28
-76 -4 0 -18 20 -31 45 -13 24 -35 52 -48 61 -23 15 -25 20 -18 69 4 38 2 63
-9 90 -28 65 -17 73 31 23z m-82 -57 c-2 -9 -4 -19 -4 -23 -1 -11 -41 -10 -41
1 0 5 7 14 15 21 8 7 15 20 15 29 0 13 2 13 9 2 5 -7 7 -21 6 -30z m39 -20
c-6 -6 -24 19 -24 34 1 6 7 1 15 -9 8 -11 12 -22 9 -25z m-34 -262 c0 -13 -38
-11 -46 2 -9 16 18 30 33 17 7 -6 13 -14 13 -19z m57 -46 c-4 -3 -10 -3 -14 0
-3 4 0 7 7 7 7 0 10 -3 7 -7z m-53 -121 c2 -4 1 -32 -2 -62 -6 -47 -10 -55
-30 -58 -16 -2 -25 3 -30 19 l-9 23 -6 -23 c-10 -41 -32 -19 -29 30 5 72 8 76
57 77 24 1 46 -2 49 -6z m-46 -243 c-4 -12 -128 -70 -128 -60 0 20 38 53 75
65 40 14 59 12 53 -5z"/>
<path d="M961 2854 c0 -11 3 -14 6 -6 3 7 2 16 -1 19 -3 4 -6 -2 -5 -13z"/>
<path d="M1235 2760 c3 -5 8 -10 11 -10 3 0 2 5 -1 10 -3 6 -8 10 -11 10 -3 0
-2 -4 1 -10z"/>
<path d="M1800 2751 c0 -25 6 -27 13 -6 4 8 2 17 -3 20 -6 4 -10 -3 -10 -14z"/>
<path d="M1885 2690 c3 -5 8 -10 11 -10 3 0 2 5 -1 10 -3 6 -8 10 -11 10 -3 0
-2 -4 1 -10z"/>
<path d="M1023 2643 c4 -3 10 -3 14 0 3 4 0 7 -7 7 -7 0 -10 -3 -7 -7z"/>
<path d="M1075 2570 c3 -5 8 -10 11 -10 3 0 2 5 -1 10 -3 6 -8 10 -11 10 -3 0
-2 -4 1 -10z"/>
<path d="M1135 2510 c3 -5 8 -10 11 -10 3 0 2 5 -1 10 -3 6 -8 10 -11 10 -3 0
-2 -4 1 -10z"/>
<path d="M1176 2491 c15 -16 122 -60 128 -53 12 11 6 22 -12 22 -9 0 -42 9
-71 20 -30 11 -50 16 -45 11z"/>
<path d="M1760 2493 c0 -7 26 -28 53 -44 16 -9 17 -8 5 10 -12 19 -58 47 -58
34z"/>
<path d="M1348 2448 c18 -18 16 -72 -2 -65 -11 5 -14 -1 -12 -21 2 -15 -2 -56
-10 -92 -21 -101 -15 -113 12 -25 14 44 33 106 43 137 20 60 15 78 -23 78 -16
0 -17 -3 -8 -12z"/>
<path d="M2210 2425 c0 -11 49 -94 50 -84 0 4 -11 27 -25 50 -14 24 -25 40
-25 34z"/>
<path d="M1746 2401 c22 -21 27 -21 18 3 -3 9 -13 16 -22 16 -13 0 -12 -3 4
-19z"/>
<path d="M2359 2399 c-23 -19 -23 -20 -2 -10 12 6 25 16 28 21 10 16 -1 12
-26 -11z"/>
<path d="M1803 2353 c4 -3 10 -3 14 0 3 4 0 7 -7 7 -7 0 -10 -3 -7 -7z"/>
<path d="M1913 2303 c4 -3 10 -3 14 0 3 4 0 7 -7 7 -7 0 -10 -3 -7 -7z"/>
<path d="M1693 2133 c4 -3 10 -3 14 0 3 4 0 7 -7 7 -7 0 -10 -3 -7 -7z"/>
<path d="M2072 1829 c5 -15 75 -22 84 -8 3 5 -8 9 -25 9 -16 0 -37 3 -47 7
-12 4 -15 2 -12 -8z"/>
<path d="M2140 1765 c-6 -15 -10 -32 -10 -38 -1 -7 -7 -29 -14 -49 -11 -31
-11 -38 -1 -38 27 0 53 -65 66 -162 7 -54 10 -101 6 -104 -3 -3 -26 2 -51 11
-66 25 -128 16 -166 -24 -17 -17 -30 -34 -31 -38 0 -5 -2 -19 -4 -33 -2 -18 1
-14 12 13 9 20 20 37 24 37 11 0 11 2 -1 -39 -6 -21 -6 -40 0 -51 7 -13 5 -21
-5 -30 -12 -10 -15 -9 -15 5 0 11 -5 15 -15 11 -22 -8 -73 42 -91 89 -14 36
-14 37 -10 8 3 -18 19 -51 36 -74 17 -23 28 -49 26 -58 -6 -20 27 -61 48 -61
9 0 26 -10 37 -21 18 -18 29 -21 75 -16 30 3 68 13 86 21 48 24 43 28 97 -81
12 -23 26 -45 32 -48 6 -4 -6 -21 -28 -40 -21 -18 -41 -31 -45 -28 -4 2 4 23
18 46 l27 42 -29 -27 -29 -27 -24 44 c-17 31 -30 45 -45 45 -18 0 -19 2 -6 11
12 8 10 9 -10 5 -14 -3 -46 -6 -72 -6 -52 0 -60 -11 -32 -46 15 -18 15 -18 5
3 -15 30 -14 33 9 33 10 0 25 -10 31 -22 6 -13 29 -46 50 -75 27 -36 39 -62
39 -85 0 -25 -3 -29 -10 -18 -6 9 -10 10 -10 3 0 -6 5 -15 10 -18 6 -3 7 -18
3 -33 -6 -24 -4 -25 10 -14 13 11 16 10 22 -10 28 -90 70 -151 149 -215 39
-32 34 -1 -7 47 -33 39 -41 53 -72 121 -17 39 -15 84 5 84 7 0 20 -24 29 -53
9 -30 19 -53 24 -53 4 1 25 1 48 1 22 0 38 4 34 9 -3 6 1 13 9 18 16 9 49 83
40 92 -3 3 -11 -2 -18 -12 -22 -29 -33 -19 -40 33 -4 27 -11 52 -16 55 -6 3
-10 15 -10 25 0 20 -32 81 -60 115 -9 11 -28 40 -43 65 -14 25 -37 56 -50 70
-34 36 -81 109 -74 116 10 11 52 -18 99 -68 28 -30 45 -43 42 -31 -4 15 11 32
60 74 36 30 66 58 66 63 0 4 -18 -8 -40 -28 -53 -48 -89 -32 -47 21 23 31 -35
313 -65 313 -5 0 -8 6 -8 13 0 14 -31 47 -44 47 -4 0 1 -12 12 -27 19 -27 54
-103 52 -113 -2 -8 11 -103 16 -122 8 -26 -13 -22 -23 5 -4 12 -8 27 -8 32 -6
66 -31 134 -55 155 -14 12 -19 43 -13 85 4 35 10 45 27 47 21 3 21 3 -2 16
-20 12 -23 10 -32 -13z m-50 -545 c-19 -12 -35 3 -26 26 6 17 8 17 24 0 15
-15 15 -18 2 -26z m146 -388 c-11 -10 -15 4 -8 28 l7 25 3 -23 c2 -13 1 -26
-2 -30z m84 33 c0 -8 -7 -15 -15 -15 -8 0 -15 7 -15 15 0 8 7 15 15 15 8 0 15
-7 15 -15z"/>
<path d="M2083 1743 c4 -3 10 -3 14 0 3 4 0 7 -7 7 -7 0 -10 -3 -7 -7z"/>
<path d="M2300 1600 c0 -7 3 -10 7 -7 3 4 3 10 0 14 -4 3 -7 0 -7 -7z"/>
<path d="M2316 1545 c4 -22 7 -46 7 -52 0 -18 17 -16 17 2 0 15 26 21 118 29
89 7 72 16 -32 16 -91 0 -97 1 -107 23 -7 17 -8 13 -3 -18z"/>
<path d="M1678 1461 c-4 -14 -3 -31 1 -39 12 -21 18 -2 11 33 -6 29 -6 29 -12
6z"/>
<path d="M1821 1434 c0 -11 3 -14 6 -6 3 7 2 16 -1 19 -3 4 -6 -2 -5 -13z"/>
<path d="M1646 1393 c-2 -3 -38 -6 -79 -9 -115 -6 -143 -24 -37 -23 166 2 158
3 166 -36 3 -19 11 -38 17 -42 7 -4 8 0 4 11 -4 10 -10 35 -13 56 -5 30 -11
39 -30 43 -13 2 -25 2 -28 0z"/>
<path d="M1750 1373 c0 -12 5 -25 10 -28 6 -3 10 -16 10 -28 0 -24 49 -111 50
-88 0 8 -7 22 -15 31 -8 9 -19 38 -24 64 -10 52 -31 86 -31 49z"/>
<path d="M2332 1350 c0 -14 2 -19 5 -12 2 6 2 18 0 25 -3 6 -5 1 -5 -13z"/>
<path d="M2321 1214 c-35 -69 -36 -99 -3 -145 15 -21 30 -39 34 -39 9 0 -2 69
-14 93 -6 12 -5 36 2 68 17 69 8 79 -19 23z"/>
<path d="M1750 1205 c1 -23 90 -105 114 -105 6 0 -2 9 -19 20 -16 10 -45 36
-62 57 -18 21 -33 34 -33 28z"/>
<path d="M1835 1200 c3 -5 8 -10 11 -10 3 0 2 5 -1 10 -3 6 -8 10 -11 10 -3 0
-2 -4 1 -10z"/>
<path d="M2661 1056 l-63 -64 -62 29 c-33 16 -70 29 -81 29 -12 0 -26 5 -32
11 -8 8 -6 -9 4 -42 9 -30 19 -92 22 -139 4 -60 8 -78 13 -60 4 14 8 36 8 49
0 19 4 23 25 19 21 -4 23 -2 15 13 -18 32 -12 40 25 33 28 -5 35 -3 35 9 0 11
-14 18 -45 23 -53 8 -86 32 -62 45 21 12 124 -31 188 -78 73 -53 88 -61 62
-31 -13 13 -23 32 -23 42 0 9 -4 15 -9 12 -4 -3 -16 3 -26 14 -11 12 -13 20
-6 20 6 0 15 8 18 18 4 9 19 38 35 65 15 26 26 47 25 47 -1 0 -31 -29 -66 -64z"/>
<path d="M2394 921 c3 -18 6 -44 6 -57 0 -13 5 -24 11 -24 13 0 1 90 -13 105
-7 7 -9 -1 -4 -24z"/>
<path d="M2576 931 c-6 -10 2 -23 30 -47 21 -18 42 -33 47 -34 4 0 7 -7 7 -16
0 -17 -18 -16 -65 1 -11 4 -1 -9 21 -29 51 -44 104 -124 104 -157 -1 -43 -37
-107 -71 -124 -34 -18 -82 -22 -120 -10 -28 9 -154 88 -188 119 -19 17 -22 17
-14 3 13 -25 150 -126 201 -149 63 -28 117 -31 158 -7 19 10 41 19 49 19 8 0
15 5 15 10 0 6 5 10 10 10 18 0 10 -19 -19 -47 -43 -41 -59 -53 -73 -54 -7 -1
7 -5 32 -10 40 -8 47 -6 72 18 72 69 107 211 74 298 -10 25 -22 47 -27 50 -5
4 -5 -5 1 -19 15 -40 -16 -33 -35 8 -29 61 -130 146 -174 146 -11 0 -21 8 -23
18 -3 14 -5 14 -12 3z"/>
<path d="M2050 905 c0 -17 -3 -41 -6 -55 -3 -17 2 -12 16 15 18 35 19 41 5 54
-13 14 -15 12 -15 -14z"/>
<path d="M2156 637 c3 -10 9 -15 12 -12 3 3 0 11 -7 18 -10 9 -11 8 -5 -6z"/>
<path d="M2350 532 c0 -14 39 -32 46 -21 4 6 0 15 -7 20 -17 11 -39 12 -39 1z"/>
<path d="M2269 506 l24 -25 -30 -78 c-17 -43 -34 -87 -39 -98 -18 -44 25 7 48
57 17 37 26 48 40 45 10 -3 21 -1 24 4 3 5 0 9 -6 9 -7 0 -10 6 -7 13 2 6 -3
18 -12 25 -14 11 -14 13 3 27 19 14 19 15 0 21 -10 3 -30 10 -44 16 l-25 10
24 -26z"/>
<path d="M2416 505 c-3 -8 -1 -15 4 -15 6 0 10 7 10 15 0 8 -2 15 -4 15 -2 0
-6 -7 -10 -15z"/>
<path d="M2380 431 c0 -5 8 -11 18 -15 9 -3 24 -9 32 -12 8 -4 3 3 -12 15 -28
23 -38 26 -38 12z"/>
<path d="M2680 384 c-14 -7 -33 -14 -42 -14 -10 0 -18 -4 -18 -10 0 -15 63 0
85 21 22 22 11 23 -25 3z"/>
</g>
</svg>
