<?xml version="1.0" standalone="no"?>
<!DOCTYPE svg PUBLIC "-//W3C//DTD SVG 20010904//EN"
 "http://www.w3.org/TR/2001/REC-SVG-20010904/DTD/svg10.dtd">
<svg version="1.0" xmlns="http://www.w3.org/2000/svg"
 width="300.000000pt" height="300.000000pt" viewBox="0 0 300.000000 300.000000"
 preserveAspectRatio="xMidYMid meet">
<metadata>
Created by potrace 1.10, written by Peter Selinger 2001-2011
</metadata>
<g transform="translate(0.000000,300.000000) scale(0.100000,-0.100000)"
fill="#b30000" stroke="none">
<path d="M1465 2142 c-55 -4 -195 -36 -195 -44 0 -5 -8 -8 -17 -9 -10 0 -31
-9 -48 -20 -16 -10 -39 -23 -50 -28 -27 -12 -163 -155 -177 -187 -11 -23 -13
-23 -35 -9 -12 9 -23 13 -23 10 0 -2 -17 4 -37 14 -54 27 -156 36 -173 16 -7
-8 -16 -15 -21 -15 -17 0 -49 35 -49 53 0 35 -107 63 -228 60 -78 -2 -110 -16
-91 -39 6 -7 25 -16 42 -19 75 -15 181 -73 247 -135 32 -30 78 -69 102 -87 48
-36 106 -89 127 -115 12 -16 10 -17 -21 -13 -19 2 -45 8 -58 13 -16 6 -32 4
-49 -5 -14 -7 -42 -13 -62 -13 -39 0 -65 -21 -55 -45 4 -12 25 -15 93 -16 69
-2 79 -3 48 -9 l-40 -7 47 -2 c44 -1 48 -3 78 -52 37 -60 37 -60 94 -124 25
-27 46 -56 46 -62 0 -7 4 -13 9 -13 5 0 12 -11 15 -25 7 -29 160 -185 181
-185 4 0 13 -7 22 -15 8 -8 19 -13 24 -10 5 4 9 2 9 -2 0 -5 29 -17 65 -28 36
-10 65 -22 65 -26 0 -5 7 -6 15 -3 8 3 19 3 26 -1 14 -9 188 -9 211 0 9 4 22
4 28 0 5 -3 10 -1 10 5 0 6 4 9 9 5 5 -3 12 -1 16 5 3 5 17 10 30 10 13 0 27
5 30 10 4 6 11 8 16 5 5 -4 9 -1 9 5 0 6 5 8 10 5 6 -3 10 -1 10 5 0 6 4 9 9
6 19 -12 231 178 216 193 -3 2 2 13 12 23 9 10 13 18 9 18 -3 0 7 15 23 32 74
83 93 105 108 131 10 15 21 27 25 27 4 0 8 6 8 14 0 7 9 25 20 39 19 24 28 26
107 29 88 3 103 11 81 40 -14 19 -107 28 -143 14 -20 -7 -20 -7 -1 8 25 21 14
31 -15 15 -13 -7 -38 -13 -56 -15 -31 -2 -32 -2 -17 20 25 39 142 136 163 136
5 0 20 15 32 33 13 17 30 37 39 43 8 7 26 22 40 34 40 35 164 90 203 90 20 0
39 5 43 11 5 8 -10 10 -53 7 -82 -6 -176 -53 -250 -126 -32 -32 -74 -68 -93
-82 -46 -32 -147 -128 -172 -163 l-21 -29 69 2 c133 4 224 0 224 -10 0 -6 -36
-10 -89 -10 l-88 0 -52 -77 c-28 -43 -70 -98 -94 -123 -23 -25 -58 -71 -77
-104 -42 -71 -130 -153 -210 -195 -227 -121 -498 -82 -679 98 -37 36 -81 91
-99 121 -17 30 -45 69 -62 85 -18 17 -50 57 -72 90 -72 106 -70 105 -165 105
-49 0 -83 4 -83 10 0 6 31 10 72 10 65 0 70 1 52 15 -25 19 -11 19 27 0 19
-11 50 -15 86 -13 l56 3 -54 59 c-30 33 -81 79 -114 103 -33 24 -87 70 -120
101 -69 66 -150 108 -238 125 l-62 12 75 3 c81 4 240 -16 240 -30 0 -4 -17 -8
-37 -8 l-38 -1 50 -26 c29 -15 89 -65 144 -121 52 -53 91 -89 86 -81 -24 41
-91 137 -109 158 l-21 24 65 -6 c78 -7 146 -30 177 -59 13 -12 24 -20 26 -17
2 2 16 25 30 51 36 62 111 138 180 182 185 119 440 119 620 2 70 -45 132 -107
177 -177 30 -47 40 -56 49 -45 20 24 103 54 176 64 39 5 72 8 74 6 2 -2 -4
-10 -13 -20 -21 -20 -89 -120 -105 -154 -7 -15 0 -10 20 15 57 70 141 146 199
179 l55 31 -40 5 -40 6 60 13 c33 8 106 15 162 15 88 1 100 3 85 14 -12 10
-48 12 -129 10 -62 -2 -113 -6 -113 -10 0 -5 -8 -8 -18 -8 -28 0 -61 -28 -56
-47 2 -11 -6 -25 -22 -36 -24 -18 -26 -18 -44 -2 -16 14 -30 17 -75 11 -52 -6
-134 -32 -145 -46 -3 -4 -13 -9 -22 -13 -12 -4 -25 7 -48 44 -40 62 -151 165
-196 181 -19 7 -34 16 -34 20 0 4 -12 8 -27 8 -14 0 -23 3 -19 7 15 15 -183
51 -249 45z"/>
<path d="M1422 2079 c-38 -19 -112 -91 -112 -110 0 -4 12 -10 27 -14 15 -3 49
-22 74 -40 l47 -33 6 31 c12 60 19 187 10 187 -5 0 -28 -10 -52 -21z m22 -79
c1 -53 -5 -67 -26 -53 -7 4 -15 8 -18 9 -3 0 -16 5 -30 11 l-25 10 44 42 c24
23 46 40 48 37 3 -3 6 -28 7 -56z"/>
<path d="M1513 2010 c4 -50 9 -96 12 -101 3 -5 30 5 59 21 29 17 62 30 74 30
29 0 28 5 -8 50 -32 40 -77 72 -119 85 l-24 7 6 -92z m73 24 c19 -9 31 -20 28
-25 -3 -5 0 -9 5 -9 6 0 11 -6 11 -13 0 -15 -65 -41 -80 -32 -11 7 -14 95 -4
95 3 0 21 -7 40 -16z"/>
<path d="M1313 2066 c-83 -31 -165 -81 -211 -130 -34 -36 -34 -37 -7 -19 40
27 117 53 159 53 28 0 38 7 61 40 16 22 40 49 54 60 34 25 20 24 -56 -4z m-30
-56 c-4 -15 -14 -20 -42 -20 -30 1 -33 2 -18 11 10 6 21 8 24 5 3 -3 12 1 20
9 19 20 22 19 16 -5z"/>
<path d="M1612 2073 c15 -10 41 -36 58 -58 27 -34 40 -41 90 -52 136 -27 220
-114 250 -255 6 -32 16 -58 22 -58 33 0 -50 184 -116 257 -76 84 -197 155
-303 179 l-28 6 27 -19z m133 -81 c-16 -2 -32 2 -36 10 -15 24 -9 26 27 9 l37
-16 -28 -3z"/>
<path d="M1173 1936 c-96 -30 -161 -97 -190 -195 -32 -111 7 -256 93 -344 20
-21 33 -41 29 -45 -10 -10 -80 74 -116 141 -16 31 -32 57 -35 57 -2 0 -4 -10
-4 -22 0 -12 3 -19 6 -15 4 3 18 -17 32 -44 28 -57 95 -128 180 -192 79 -58
85 -65 117 -125 39 -71 90 -129 136 -152 53 -28 59 -26 59 20 0 22 -5 40 -11
40 -6 0 -40 25 -75 55 -36 30 -74 55 -84 55 -10 0 -22 5 -26 12 -5 8 -1 9 12
5 18 -7 18 -6 -1 8 -131 102 -186 147 -182 152 6 6 218 -153 302 -226 32 -28
62 -51 67 -51 16 0 403 317 434 356 50 63 74 120 81 187 6 72 -14 159 -50 212
-51 74 -146 125 -236 125 -60 0 -161 -48 -198 -95 l-26 -33 -41 40 c-81 79
-175 104 -273 74z m182 -22 c36 -15 38 -18 20 -26 -18 -8 -18 -8 3 -4 16 3 33
-7 62 -35 21 -21 43 -39 48 -39 6 0 17 12 27 26 10 15 22 23 31 20 9 -3 14 1
14 13 0 13 16 26 48 41 92 44 221 23 292 -48 51 -51 73 -109 78 -203 4 -78 2
-92 -23 -147 -15 -34 -31 -59 -36 -56 -5 3 -9 1 -9 -4 0 -23 -41 -60 -60 -55
-19 5 -18 8 14 44 19 21 42 52 51 69 9 17 19 28 24 26 4 -3 7 45 7 107 -1 104
-3 114 -26 141 -41 49 -83 86 -112 98 -15 7 -24 16 -21 21 3 4 -25 7 -61 5
-36 -2 -66 -6 -66 -9 0 -4 -13 -12 -30 -19 -16 -7 -41 -24 -55 -38 -22 -22
-28 -24 -36 -12 -8 12 -9 10 -5 -6 4 -14 -2 -28 -22 -47 l-27 -26 -70 69 c-39
38 -76 69 -82 70 -7 0 -13 3 -13 8 0 4 -22 8 -48 10 -37 2 -62 -4 -103 -24
-51 -26 -118 -87 -119 -109 0 -5 -5 -3 -11 5 -8 12 -9 9 -5 -11 3 -15 -2 -39
-14 -61 -11 -20 -15 -38 -10 -40 4 -2 11 -36 13 -76 3 -41 8 -76 11 -80 3 -3
6 1 6 9 0 11 2 11 10 -1 5 -8 7 -24 4 -35 -4 -15 -3 -16 4 -6 12 17 24 -1 16
-26 -4 -13 -3 -15 4 -4 11 15 27 -2 17 -19 -3 -6 1 -7 9 -4 9 3 16 2 16 -3 0
-5 24 -26 53 -48 28 -21 54 -41 57 -43 2 -2 -2 -7 -10 -13 -11 -7 -9 -8 10 -7
14 2 24 -2 23 -8 -1 -6 4 -11 11 -11 7 0 27 -10 44 -23 24 -18 29 -26 20 -33
-9 -6 -7 -7 5 -3 13 4 38 -11 84 -49 60 -52 67 -55 87 -42 11 8 29 11 39 8 17
-6 17 -8 -1 -25 -11 -9 -26 -18 -34 -20 -7 -1 -18 -5 -23 -8 -6 -4 -26 5 -44
19 -25 20 -30 28 -19 35 9 7 8 8 -6 4 -12 -4 -30 4 -56 26 -61 55 -82 71 -142
111 -79 53 -158 133 -193 197 -28 51 -30 63 -30 155 0 76 4 109 18 136 30 60
87 112 114 103 15 -5 15 -4 3 5 -12 9 -12 11 3 16 97 38 149 40 222 9z m-27
-43 c20 -11 62 -45 92 -75 30 -31 59 -56 65 -56 6 0 35 25 64 56 86 90 158
112 243 75 90 -40 141 -120 142 -227 1 -88 -38 -159 -130 -238 -64 -55 -276
-227 -309 -250 -9 -7 -30 5 -72 40 -32 27 -96 78 -143 113 -189 142 -243 218
-244 341 0 105 51 183 145 221 58 23 101 23 147 0z m515 -480 c16 -6 13 -12
-27 -45 -26 -21 -51 -34 -57 -30 -7 4 -9 3 -5 -4 3 -6 -8 -20 -25 -33 -17 -12
-47 -37 -67 -55 -22 -20 -44 -32 -53 -29 -9 3 -22 -3 -30 -12 -13 -16 -12 -17
4 -4 24 19 32 8 9 -12 -11 -10 -26 -14 -40 -10 -23 5 -22 6 10 34 21 18 40 26
53 23 14 -4 16 -3 7 4 -11 7 -2 18 35 48 26 21 69 55 95 76 25 21 52 36 60 35
7 -2 10 -2 6 0 -5 3 -8 9 -8 14 0 10 8 11 33 0z m-435 -321 c43 -40 49 -50 33
-50 -12 0 -95 70 -84 71 4 0 -1 4 -12 9 -20 8 -20 9 1 9 11 1 39 -17 62 -39z"/>
<path d="M1576 1881 c-4 -5 3 -7 14 -4 23 6 26 13 6 13 -8 0 -17 -4 -20 -9z"/>
<path d="M1050 1819 c0 -5 5 -7 10 -4 6 3 10 8 10 11 0 2 -4 4 -10 4 -5 0 -10
-5 -10 -11z"/>
<path d="M1185 1820 c-56 -27 -69 -39 -88 -88 -38 -95 -12 -188 78 -277 34
-33 81 -73 105 -89 25 -16 78 -55 117 -88 40 -32 81 -58 90 -58 10 0 54 30 98
65 44 36 96 77 115 92 78 62 150 137 169 179 52 110 0 242 -108 275 -67 20
-109 5 -171 -60 -58 -60 -87 -81 -114 -81 -9 0 -44 29 -80 65 -89 90 -132 103
-211 65z m113 0 c7 0 44 -31 81 -70 61 -62 73 -70 106 -70 33 0 45 8 105 69
73 75 111 92 164 71 79 -30 116 -85 117 -173 2 -96 -29 -134 -234 -299 -101
-81 -154 -118 -162 -112 -7 5 -39 30 -71 56 -32 26 -99 77 -149 115 -109 83
-147 138 -153 223 -2 32 1 74 8 94 18 56 103 111 155 101 11 -3 26 -5 33 -5z"/>
<path d="M1488 1606 c-3 -41 -11 -72 -19 -77 -8 -5 -41 -9 -74 -10 -45 -1 -54
-3 -35 -9 14 -4 44 -8 68 -9 50 -1 61 -20 63 -104 l2 -52 7 67 c5 37 11 72 15
78 3 5 25 10 48 11 23 1 53 5 67 9 19 6 10 8 -35 9 -33 1 -66 5 -72 9 -7 4
-16 39 -21 77 l-8 70 -6 -69z m20 -97 c-2 -6 -8 -10 -13 -10 -5 0 -11 4 -13
10 -2 6 4 11 13 11 9 0 15 -5 13 -11z"/>
<path d="M1652 1244 c-14 -16 -5 -18 17 -5 7 5 9 11 5 14 -5 3 -15 -1 -22 -9z"/>
<path d="M867 1809 c-28 -16 -20 -56 19 -99 20 -22 39 -38 42 -35 3 2 13 27
22 55 16 48 16 51 -1 60 -41 22 -66 28 -82 19z m47 -35 c21 -12 18 -49 -3 -49
-8 0 -20 14 -27 32 -14 34 -7 38 30 17z"/>
<path d="M2058 1800 l-37 -20 16 -47 c9 -27 19 -52 23 -56 4 -4 23 10 43 33
40 43 50 93 21 104 -22 8 -24 8 -66 -14z m52 -26 c0 -9 -8 -26 -19 -39 l-18
-24 -12 25 c-8 19 -8 28 2 39 16 19 47 19 47 -1z"/>
<path d="M944 1667 c-6 -7 -9 -17 -8 -22 1 -6 5 -27 9 -47 3 -21 10 -38 15
-38 5 0 5 14 -1 33 -5 17 -7 44 -3 60 6 30 4 32 -12 14z"/>
<path d="M2016 1604 c-10 -26 -7 -44 8 -44 14 0 29 37 20 52 -8 13 -21 9 -28
-8z"/>
<path d="M2024 1536 c-3 -9 -11 -16 -18 -16 -6 0 -22 -20 -35 -44 -21 -41
-127 -152 -177 -187 -11 -7 -27 -25 -33 -38 -8 -13 -16 -19 -20 -13 -3 5 -25
-7 -51 -30 -44 -40 -40 -42 12 -6 14 10 33 18 42 18 9 0 16 4 16 10 0 5 21 24
48 41 52 36 70 54 124 125 92 122 109 146 104 151 -3 3 -8 -2 -12 -11z"/>
<path d="M859 1500 c30 -17 56 -30 58 -30 1 0 3 11 3 24 0 26 -21 36 -80 36
l-35 0 54 -30z"/>
<path d="M2088 1523 c-11 -3 -18 -14 -18 -30 l0 -25 43 25 c23 13 49 27 57 30
18 6 -57 7 -82 0z"/>
<path d="M1965 1346 c-46 -49 -95 -87 -145 -114 -67 -37 -78 -47 -105 -99 -16
-32 -50 -79 -75 -104 l-46 -46 46 14 c94 28 173 75 246 148 40 40 79 87 88
106 l17 34 -23 -27 c-25 -29 -130 -88 -157 -88 -9 1 2 10 24 22 50 26 152 130
183 186 13 23 22 42 20 41 -2 0 -34 -34 -73 -73z m-126 -186 c45 12 30 -8 -41
-58 -60 -43 -98 -59 -98 -41 0 5 5 9 11 9 5 0 7 5 4 10 -3 6 -2 10 4 10 5 0
13 10 17 23 3 12 16 35 26 50 20 28 21 28 34 8 12 -16 20 -18 43 -11z"/>
<path d="M960 1403 c0 -9 52 -85 82 -119 18 -21 60 -55 92 -76 33 -21 54 -38
47 -38 -25 0 -122 53 -152 83 l-32 31 18 -34 c26 -51 152 -171 214 -204 29
-16 79 -36 110 -46 l56 -17 -50 52 c-27 28 -61 75 -74 103 -22 47 -32 57 -95
90 -44 23 -99 64 -143 108 -40 39 -73 69 -73 67z m301 -299 l37 -61 -29 11
c-16 5 -29 14 -29 18 0 4 -5 8 -10 8 -14 0 -98 62 -104 77 -3 8 4 9 25 3 24
-7 32 -5 41 10 14 22 21 16 69 -66z"/>
<path d="M1710 1186 c-8 -8 -32 -19 -52 -24 -20 -6 -61 -30 -91 -54 -49 -38
-55 -48 -58 -85 -5 -50 3 -53 60 -23 45 23 94 78 134 149 30 54 31 60 7 37z
m-68 -91 c-25 -29 -84 -75 -97 -75 -3 0 -5 8 -4 18 0 22 83 91 108 89 18 -1
17 -4 -7 -32z"/>
</g>
</svg>
