<?xml version="1.0" standalone="no"?>
<!DOCTYPE svg PUBLIC "-//W3C//DTD SVG 20010904//EN"
 "http://www.w3.org/TR/2001/REC-SVG-20010904/DTD/svg10.dtd">
<svg version="1.0" xmlns="http://www.w3.org/2000/svg"
 width="300.000000pt" height="533.000000pt" viewBox="0 0 300.000000 533.000000"
 preserveAspectRatio="xMidYMid meet">
<metadata>
Created by potrace 1.10, written by Peter Selinger 2001-2011
</metadata>
<g transform="translate(0.000000,533.000000) scale(0.100000,-0.100000)"
fill="#000000" stroke="none">
<path d="M2640 5319 c0 -22 151 -27 168 -6 9 11 -5 13 -78 13 -50 -1 -90 -4
-90 -7z m47 -5 c-3 -3 -12 -4 -19 -1 -8 3 -5 6 6 6 11 1 17 -2 13 -5z"/>
<path d="M2023 5142 c-75 -115 -129 -251 -148 -372 -11 -64 -32 -121 -56 -146
-14 -15 -19 -29 -14 -43 4 -13 2 -21 -5 -21 -7 0 -9 -8 -5 -20 4 -12 2 -20 -5
-20 -7 0 -9 -7 -6 -16 4 -9 2 -13 -5 -8 -8 4 -9 -1 -4 -15 4 -12 2 -21 -4 -21
-6 0 -7 -7 -4 -17 4 -11 3 -14 -5 -9 -8 5 -10 2 -6 -9 4 -9 -4 -26 -19 -41
l-26 -26 -22 44 c-33 62 -31 136 4 212 15 32 25 61 22 64 -8 8 -55 -103 -67
-160 -10 -51 -9 -56 22 -118 18 -36 48 -86 66 -112 19 -27 29 -48 24 -48 -16
0 -12 -104 6 -126 15 -18 15 -18 5 3 -6 12 -11 43 -11 69 0 67 22 43 28 -31 3
-39 9 -55 19 -55 10 0 13 11 12 38 -2 20 3 47 9 59 15 27 15 33 1 33 -5 0 -8
-4 -5 -8 6 -10 -11 -38 -19 -30 -10 10 7 58 21 58 13 0 19 -14 27 -70 3 -14 5
-4 6 23 0 26 -3 47 -8 47 -5 0 -11 12 -13 27 -4 32 -28 44 -28 14 0 -27 -21
-27 -44 0 -13 15 -15 24 -7 32 8 8 11 8 11 -1 0 -7 5 -12 11 -12 5 0 8 4 5 9
-3 5 5 11 18 13 19 4 26 0 30 -16 5 -19 7 -19 41 14 19 19 35 30 35 24 0 -5 5
-2 10 6 7 11 10 11 10 2 0 -21 -20 -53 -30 -47 -9 5 -23 -26 -18 -41 4 -17
-14 -119 -24 -131 -5 -7 -8 -20 -5 -30 4 -14 5 -13 6 5 0 13 5 21 10 18 4 -3
11 19 14 49 9 88 74 211 78 148 3 -50 -4 -101 -18 -126 -8 -16 -12 -31 -9 -34
13 -13 48 98 55 169 7 78 27 118 59 118 10 0 12 6 8 23 -33 113 -24 260 24
407 34 103 35 134 2 43 -42 -113 -63 -209 -69 -308 -3 -55 -12 -112 -19 -127
-20 -38 -141 -138 -169 -138 -3 0 2 14 11 31 8 17 11 29 6 25 -6 -3 -8 23 -6
67 l3 72 -9 -72 c-10 -79 -32 -133 -54 -133 -12 0 -12 9 -1 58 30 124 40 147
63 146 17 0 19 3 11 19 -6 10 -17 16 -25 13 -19 -7 -18 11 2 22 8 5 24 22 35
38 22 34 25 27 5 -19 -12 -31 -12 -35 14 -65 l27 -33 -20 -40 c-18 -38 -19
-42 -3 -57 15 -15 16 -14 16 19 0 19 6 44 14 54 12 17 12 21 -2 31 -12 9 -18
33 -20 87 -9 173 42 361 136 501 64 96 64 96 55 96 -5 0 -32 -35 -60 -78z
m-66 -754 c-3 -8 -6 -5 -6 6 -1 11 2 17 5 13 3 -3 4 -12 1 -19z m-150 -260
c-3 -8 -6 -5 -6 6 -1 11 2 17 5 13 3 -3 4 -12 1 -19z"/>
<path d="M1356 4847 c3 -10 9 -15 12 -12 3 3 0 11 -7 18 -10 9 -11 8 -5 -6z"/>
<path d="M1412 4382 c-28 -59 -56 -124 -64 -146 -7 -21 -25 -49 -40 -62 -16
-12 -28 -26 -28 -30 0 -3 7 -1 15 6 12 10 21 10 40 2 14 -7 25 -16 25 -21 0
-21 -13 -41 -26 -41 -8 0 -14 -4 -14 -10 0 -16 -50 -44 -94 -51 -38 -6 -36 -7
22 -8 34 0 62 -3 62 -6 0 -4 -7 -20 -16 -37 -20 -39 -13 -131 12 -159 16 -18
16 -19 -13 -19 -16 0 -37 6 -47 13 -28 20 -174 5 -226 -24 -23 -13 -36 -25
-30 -27 6 -2 19 3 28 12 28 24 118 40 161 28 20 -6 50 -14 66 -17 17 -4 61
-26 98 -50 38 -24 82 -47 98 -50 27 -6 29 -10 29 -51 0 -49 -14 -59 -25 -16
-4 15 -9 22 -12 15 -2 -6 2 -24 10 -40 13 -26 13 -31 -10 -66 -13 -21 -35 -43
-48 -49 -30 -13 -75 -3 -75 18 0 12 -5 14 -17 8 -54 -25 -141 0 -208 62 -21
19 -40 33 -42 30 -2 -2 28 -32 66 -67 39 -35 71 -68 71 -74 0 -6 23 -10 54
-10 83 0 147 -58 100 -92 -41 -30 -137 -8 -184 42 -18 19 -27 22 -36 14 -24
-20 -108 -12 -170 16 -66 29 -117 73 -135 116 -6 16 -16 29 -21 29 -5 0 -3
-10 3 -22 28 -54 81 -106 141 -138 34 -18 66 -37 69 -42 3 -5 18 -6 33 -2 66
16 158 -35 171 -97 5 -24 1 -39 -21 -70 -38 -55 -104 -68 -104 -20 0 11 -5 23
-10 26 -7 4 -9 -2 -5 -18 5 -20 2 -27 -14 -32 -48 -15 -135 71 -147 147 -4 21
-11 41 -16 44 -16 10 1 -52 39 -143 32 -77 53 -109 53 -84 0 20 37 11 78 -19
80 -58 120 -165 104 -281 l-8 -64 -13 75 c-25 150 -30 161 -26 55 2 -55 11
-119 19 -143 14 -39 14 -47 0 -80 -9 -22 -18 -79 -21 -142 -5 -106 3 -135 12
-44 3 27 11 76 17 109 11 54 13 57 18 30 13 -60 3 -162 -19 -208 -39 -80 -140
-160 -161 -127 -6 9 -15 0 -30 -30 -26 -51 -70 -165 -70 -182 0 -22 16 6 29
50 17 61 89 135 128 130 23 -2 28 -7 25 -27 -3 -27 5 -23 22 11 6 12 16 23 21
25 19 6 75 -37 92 -71 14 -30 14 -39 3 -66 -25 -61 -122 -106 -171 -79 -18 9
-24 8 -31 -6 -6 -9 -29 -25 -53 -35 -24 -10 -62 -35 -85 -56 -42 -38 -89 -114
-70 -114 5 0 10 6 10 14 0 7 19 35 42 61 66 75 189 121 259 96 29 -10 35 -9
58 13 37 34 67 47 110 48 41 0 81 -16 81 -33 0 -41 -84 -87 -139 -76 -24 5
-31 2 -36 -14 -4 -11 -28 -36 -55 -55 -26 -19 -55 -46 -64 -59 -22 -34 -10
-31 20 4 50 60 164 98 214 71 14 -7 19 -5 23 10 4 15 14 20 40 20 29 0 42 -7
67 -37 23 -28 30 -45 26 -63 -3 -14 -8 -36 -11 -50 -4 -19 -2 -18 10 8 8 17
17 32 20 32 3 0 5 -22 5 -49 0 -48 -1 -49 -34 -55 -18 -4 -53 -20 -77 -38 -68
-49 -125 -70 -208 -75 -64 -4 -82 -1 -116 16 -30 16 -41 18 -50 9 -5 -7 -6
-10 -1 -6 5 4 27 -2 49 -14 59 -30 155 -35 221 -13 50 17 54 17 90 0 45 -22
54 -39 32 -64 -9 -10 -13 -21 -9 -25 5 -4 3 -7 -2 -6 -28 6 -33 -2 -31 -50 1
-28 7 -55 13 -61 8 -8 9 2 6 34 -5 40 -3 47 21 62 14 9 23 21 20 26 -3 5 2 9
12 9 13 0 16 7 11 35 -5 32 4 47 17 26 3 -5 15 -7 26 -4 21 5 28 -11 10 -22
-6 -3 -10 -18 -10 -33 -1 -26 -1 -26 -15 -8 -14 19 -15 18 -23 -5 -7 -19 -5
-27 14 -42 19 -15 24 -28 24 -67 l0 -48 -37 3 c-82 5 -119 29 -107 67 3 10 1
18 -4 18 -21 0 -20 39 2 53 20 14 20 15 3 35 -15 17 -17 24 -7 42 6 12 9 24 7
27 -10 9 -28 -37 -34 -85 -3 -32 0 -60 11 -86 9 -21 16 -40 16 -42 0 -2 -17
-2 -37 2 -21 3 -49 1 -63 -5 -23 -9 -22 -10 16 -10 60 -1 142 -68 128 -104 -8
-22 -32 -29 -57 -16 -17 8 -15 4 6 -14 15 -12 37 -48 48 -78 33 -88 111 -249
121 -249 4 0 -14 44 -40 98 -55 108 -67 148 -51 157 7 5 5 13 -6 25 -19 20
-13 53 13 83 34 39 112 8 187 -75 61 -67 79 -109 72 -168 -5 -37 -4 -41 4 -20
6 14 24 53 40 88 36 77 38 130 6 169 l-23 28 21 20 c22 21 84 28 98 10 5 -6 6
-1 3 10 -7 26 13 51 46 57 37 7 46 -19 11 -33 -14 -5 -28 -7 -31 -4 -3 3 0 5
6 5 7 0 12 5 12 11 0 8 -4 8 -14 0 -16 -13 -10 -51 7 -48 6 1 12 -7 14 -18 2
-11 8 -29 13 -40 10 -23 23 -100 29 -170 1 -14 4 -16 9 -7 6 9 12 5 20 -13 7
-14 12 -28 12 -30 0 -11 -26 2 -53 25 -16 14 -33 24 -37 23 -4 -1 -6 7 -3 17
3 13 0 20 -8 20 -11 0 -11 2 1 10 13 8 13 10 -1 10 -10 0 -20 11 -23 26 -7 27
3 50 11 27 3 -7 13 -23 23 -35 l19 -23 -1 50 -1 50 -6 -40 -6 -40 -13 34 c-6
19 -12 51 -12 72 0 30 -3 37 -15 33 -8 -4 -15 -18 -15 -34 0 -43 -12 -90 -22
-90 -6 0 -8 22 -6 50 1 28 0 50 -4 50 -5 0 -8 -27 -8 -60 0 -33 4 -60 10 -60
5 0 -9 -26 -31 -57 -44 -63 -89 -155 -89 -183 0 -33 40 -148 60 -172 16 -19
15 -12 -7 36 -35 78 -36 154 -4 215 22 42 24 44 37 26 8 -10 14 -23 14 -28 0
-4 4 -6 9 -3 5 3 12 -1 15 -10 9 -23 8 -26 -6 -18 -7 4 -5 -2 5 -13 11 -12 15
-27 11 -38 -5 -13 -4 -16 4 -11 8 5 10 2 6 -8 -4 -9 -1 -16 6 -16 7 0 10 -7 6
-15 -3 -8 -1 -15 5 -15 7 0 9 -10 5 -24 -3 -14 -1 -28 4 -31 21 -13 49 -84 64
-161 28 -144 79 -269 159 -389 49 -73 46 -69 52 -64 2 3 -14 32 -37 64 -100
147 -146 283 -155 466 -6 117 -5 127 14 146 17 17 18 22 6 38 -7 11 -13 34
-13 52 0 44 23 43 66 -2 36 -38 40 -56 48 -180 3 -44 14 -115 25 -159 24 -92
62 -198 68 -192 3 3 -5 33 -16 67 -38 109 -53 191 -54 294 0 75 4 108 17 133
15 29 15 32 1 32 -9 0 -27 12 -40 26 -20 21 -25 38 -25 79 0 59 -22 141 -45
170 -16 19 -16 19 -5 -2 20 -41 31 -123 19 -145 -10 -19 -11 -19 -25 -1 -19
24 -54 138 -54 174 0 16 -4 29 -9 29 -5 0 -8 11 -8 25 0 13 5 23 11 22 6 -1
11 11 11 26 0 33 33 71 87 98 41 21 49 30 20 22 -30 -8 -47 21 -32 57 12 30
30 41 30 18 0 -6 2 -9 6 -6 10 11 -26 181 -51 235 -14 31 -28 54 -31 51 -3 -3
5 -25 18 -49 18 -35 23 -61 24 -129 0 -47 -4 -94 -10 -105 -6 -11 -11 -23 -12
-27 -1 -5 -2 -9 -3 -10 -2 -2 -4 -16 -6 -31 -4 -31 -21 -57 -37 -57 -6 0 -4 8
3 18 7 9 2 6 -13 -6 -14 -13 -34 -22 -45 -20 -11 2 -25 -8 -38 -27 -26 -39
-62 -45 -74 -13 -9 22 -10 22 -17 -10 -8 -38 -40 -61 -58 -41 -8 9 -8 10 4 4
11 -6 11 -4 -2 11 -9 11 -22 40 -29 66 -17 62 1 147 41 191 28 31 30 31 47 14
13 -13 18 -33 18 -82 0 -41 3 -61 10 -54 15 15 12 186 -4 201 -11 11 -12 7 -6
-20 7 -35 -2 -40 -36 -21 -36 19 -60 -17 -83 -126 -2 -13 -4 -11 -5 9 0 16 3
45 9 65 5 20 12 53 15 74 3 20 10 37 16 37 6 0 7 -5 3 -12 -4 -6 -3 -8 3 -5 5
3 17 -3 26 -14 17 -19 53 -27 42 -9 -3 6 -12 10 -20 10 -7 0 -22 11 -33 25
-11 13 -21 23 -23 21 -2 -3 -5 8 -6 22 -2 37 14 62 40 62 20 1 20 2 4 11 -9 5
-21 8 -26 4 -14 -8 -50 43 -62 89 -16 58 7 236 32 252 5 3 32 -13 61 -34 29
-22 61 -42 71 -45 31 -11 18 7 -24 33 -63 39 -121 100 -161 170 -44 77 -110
169 -121 170 -4 0 10 -25 32 -57 23 -31 41 -63 41 -72 0 -9 14 -43 30 -75 32
-63 36 -86 20 -117 -28 -51 -130 20 -130 90 0 12 5 21 10 21 6 0 2 12 -10 28
-16 22 -63 172 -53 172 1 0 17 -27 34 -61 16 -34 33 -59 36 -56 2 3 -13 41
-36 84 -22 43 -53 107 -69 143 -16 36 -50 89 -76 117 l-48 53 46 52 c25 28 54
70 65 92 10 23 40 86 67 141 26 55 50 103 52 108 2 4 1 7 -2 7 -3 0 -19 -27
-36 -60 -17 -33 -32 -60 -34 -60 -10 0 37 149 54 173 22 30 16 35 -15 12 -10
-8 -21 -27 -23 -43 -2 -15 -7 -43 -12 -62 -8 -34 -8 -34 -9 -6 -1 16 -8 37
-17 47 -12 13 -12 19 -3 25 7 4 10 3 7 -2 -3 -5 1 -16 10 -24 14 -13 15 -12 8
5 -12 28 -11 32 19 104 15 36 25 74 22 88 -4 20 -1 24 14 20 11 -3 22 -1 25 4
3 5 12 9 21 9 11 0 8 -7 -12 -27 -31 -31 -68 -110 -59 -124 10 -16 21 0 27 39
7 39 32 69 76 92 22 11 27 10 43 -10 25 -31 22 -55 -12 -125 -16 -33 -30 -65
-30 -71 0 -7 -16 -35 -35 -64 -19 -29 -35 -57 -35 -62 0 -14 83 99 105 142 34
68 87 130 150 176 36 26 63 49 61 52 -6 5 -46 -17 -87 -49 -20 -16 -42 -29
-48 -29 -18 0 -29 32 -41 118 -19 127 12 222 71 222 16 0 29 4 29 10 0 5 -6 7
-14 4 -20 -8 -46 24 -45 54 2 36 -11 130 -22 159 -5 14 -9 41 -8 61 0 31 3 27
14 -26 8 -35 19 -70 26 -78 14 -17 43 -18 70 -4 16 9 19 7 19 -9 0 -14 -5 -18
-20 -14 -20 5 -63 -23 -68 -46 -2 -7 11 -2 28 13 37 30 50 33 50 9 0 -13 3
-14 12 -5 16 16 17 187 1 203 -9 9 -10 2 -6 -29 3 -22 0 -56 -7 -76 -17 -54
-47 -46 -80 19 -33 67 -35 160 -4 202 30 40 51 41 68 1 8 -18 15 -26 15 -17 1
14 20 29 36 29 10 0 55 -56 55 -69 0 -11 3 -11 15 -1 8 6 20 8 26 4 8 -5 9 -3
5 5 -5 7 -14 10 -22 7 -7 -3 -25 11 -41 33 -15 21 -34 36 -41 33 -7 -2 -12 0
-11 5 1 4 1 22 0 38 -2 29 -3 29 -13 8 -6 -13 -16 -23 -22 -23 -6 0 0 -7 13
-16 16 -12 19 -19 11 -24 -7 -4 -22 2 -34 14 l-22 21 23 32 c31 43 29 91 -5
167 -16 33 -34 72 -40 86 -10 24 -11 23 -5 -7 11 -65 -4 -100 -79 -179 -77
-81 -127 -106 -167 -85 -12 7 -26 24 -32 38 -10 27 -4 63 12 63 5 0 4 8 -2 18
-10 16 -3 39 40 132 28 62 50 115 48 116 -2 2 -26 -45 -55 -104z m268 -116 c0
-2 2 -11 5 -18 4 -9 -2 -14 -15 -14 -13 0 -20 7 -20 18 0 10 7 18 15 18 8 0
15 -2 15 -4z m-76 -131 c-16 -31 -39 -65 -52 -76 -18 -14 -20 -19 -9 -19 9 0
25 12 36 27 14 17 32 27 51 27 25 1 27 -1 15 -10 -8 -6 -22 -27 -30 -48 -8
-20 -22 -36 -30 -36 -8 0 -19 -8 -24 -19 -9 -16 -7 -18 14 -15 16 1 23 -2 19
-8 -4 -6 -8 -30 -9 -54 -1 -44 -18 -74 -41 -74 -21 0 -28 -40 -9 -53 16 -13
11 -52 -6 -42 -4 3 -5 13 -2 22 5 12 3 14 -7 8 -10 -6 -12 0 -8 31 4 26 1 43
-8 52 -30 28 -6 162 29 162 7 0 8 -3 2 -8 -14 -10 -18 -118 -6 -139 11 -18 12
-11 15 95 1 18 7 37 15 41 19 12 3 33 -20 26 -27 -9 -35 20 -17 58 9 18 35 57
59 87 53 67 64 49 23 -35z m71 48 c-8 -31 -42 -83 -56 -83 -5 0 -9 2 -9 4 0 9
33 82 42 94 18 21 31 13 23 -15z m25 -14 c-7 -11 -14 -18 -17 -15 -3 3 0 12 7
21 18 21 23 19 10 -6z m-214 -88 c-17 -19 -52 -18 -40 0 3 5 10 7 15 4 5 -4 9
-1 9 4 0 6 7 11 17 11 15 0 15 -2 -1 -19z m-26 -73 c0 -44 -24 -88 -49 -88
-14 0 -14 -2 -1 -10 13 -9 13 -10 0 -10 -9 0 -26 7 -39 16 -20 14 -23 23 -18
60 6 59 21 75 68 72 38 -2 39 -3 39 -40z m-115 2 c-10 -19 -13 -40 -9 -53 4
-12 8 -31 8 -42 1 -12 8 -19 16 -17 8 2 12 1 8 -3 -4 -4 -1 -14 7 -22 21 -20
19 -29 -11 -52 -19 -15 -30 -18 -39 -11 -20 17 -25 49 -9 64 19 20 18 31 -6
42 -18 8 -19 11 -6 36 8 15 12 29 9 32 -8 7 25 56 37 56 6 0 3 -14 -5 -30z
m150 0 c-4 -12 -9 -19 -12 -17 -3 3 -2 15 2 27 4 12 9 19 12 17 3 -3 2 -15 -2
-27z m-13 -177 c8 -10 2 -13 -26 -13 -33 0 -36 2 -36 29 0 16 -6 31 -12 34 -7
2 -5 3 4 2 10 -2 23 4 30 12 11 13 14 10 21 -18 5 -19 13 -40 19 -46z m108
-62 c0 -22 4 -41 9 -43 4 -1 5 -12 1 -23 -6 -16 -9 -11 -15 23 -4 24 -13 46
-21 49 -21 8 -17 33 6 33 17 0 20 -7 20 -39z m-125 18 c11 -17 -1 -21 -15 -4
-8 9 -8 15 -2 15 6 0 14 -5 17 -11z m35 -5 c0 -8 -4 -12 -10 -9 -5 3 -10 10
-10 16 0 5 5 9 10 9 6 0 10 -7 10 -16z m-56 -13 c21 -23 39 -81 25 -81 -24 0
-79 30 -89 50 -23 42 30 69 64 31z m57 -15 c0 5 4 -1 9 -13 10 -24 40 -32 41
-10 0 6 5 1 10 -13 23 -56 -13 -160 -55 -160 -21 0 -9 35 24 70 37 40 20 39
-19 -1 l-31 -31 0 29 c0 15 4 34 9 42 8 13 4 39 -15 86 -7 18 -6 18 9 6 9 -7
17 -10 18 -5z m109 -128 c0 -9 -4 -20 -10 -23 -6 -4 -10 9 -10 32 0 28 3 34
10 23 5 -8 10 -23 10 -32z m-54 -120 c-5 -29 -3 -44 6 -50 7 -4 8 -8 2 -8 -7
0 -9 -18 -6 -50 4 -47 3 -50 -19 -51 -13 -1 -28 0 -34 2 -5 1 -20 2 -32 2 -19
-1 -21 2 -12 18 5 10 13 19 17 19 17 0 44 79 37 109 -6 26 -3 32 17 40 13 6
25 10 27 10 2 1 1 -18 -3 -41z m-78 5 c16 -35 15 -43 -4 -81 -18 -37 -21 -38
-46 -15 -10 9 -21 13 -25 10 -4 -4 2 -13 12 -21 11 -8 16 -20 12 -29 -7 -19
-46 -46 -78 -53 -13 -3 -34 -8 -46 -11 -35 -8 -27 12 9 22 42 13 57 38 40 66
-12 18 -11 20 5 17 10 -2 18 -8 18 -15 0 -6 3 -14 7 -18 4 -4 4 -14 1 -23 -4
-15 -3 -15 6 -2 27 38 -1 66 -90 91 -40 11 -81 18 -90 16 -9 -2 -21 4 -28 15
-10 17 -10 18 6 10 10 -5 37 -12 61 -16 33 -5 42 -3 42 8 0 11 7 8 25 -9 15
-16 36 -25 54 -25 25 0 35 8 57 45 14 25 29 45 32 45 4 0 13 -12 20 -27z
m-220 -212 c9 -5 26 -12 36 -15 16 -6 14 -11 -20 -41 -21 -19 -41 -34 -44 -35
-3 0 -5 23 -5 50 0 52 3 56 33 41z m162 -23 c0 -7 -8 -22 -17 -33 -12 -15 -14
-16 -10 -3 3 9 1 18 -5 20 -15 5 -1 28 18 28 8 0 14 -6 14 -12z m-42 -56 c2
-21 -5 -48 -21 -76 -21 -38 -22 -44 -8 -53 13 -8 16 -26 14 -83 -2 -72 -3 -74
-45 -117 -67 -69 -109 -53 -129 49 -10 49 -9 65 9 125 23 75 73 153 98 153 8
0 13 4 9 9 -7 13 25 31 50 28 15 -1 21 -11 23 -35z m-218 -82 c0 -5 -4 -10
-10 -10 -5 0 -10 5 -10 10 0 6 5 10 10 10 6 0 10 -4 10 -10z m10 -66 l-12 -36
-34 34 c-40 39 -41 46 -11 43 12 -1 22 -3 22 -4 0 -2 8 -4 17 -6 10 -2 17 0
17 3 -3 16 3 26 8 15 2 -7 -1 -29 -7 -49z m156 -232 c-9 -17 -37 -54 -64 -83
l-49 -53 48 -59 c49 -59 84 -115 76 -123 -8 -9 -147 161 -147 180 0 14 141
179 147 172 2 -2 -3 -18 -11 -34z m-96 -27 c0 -13 -26 -45 -36 -45 -2 0 -4 15
-4 34 0 29 3 33 20 29 11 -3 20 -11 20 -18z m-45 -155 c3 -5 1 -10 -4 -10 -6
0 -11 5 -11 10 0 6 2 10 4 10 3 0 8 -4 11 -10z m45 -71 c0 -5 -9 -13 -20 -19
-18 -10 -20 -8 -20 26 0 36 0 37 20 19 11 -10 20 -22 20 -26z m74 -65 c51 -41
58 -58 60 -147 1 -45 -3 -62 -15 -70 -16 -10 -15 -13 3 -38 28 -37 37 -116 14
-125 -44 -17 -144 99 -171 199 -15 54 -15 72 -5 121 11 53 37 96 58 96 5 0 30
-16 56 -36z m-121 -231 c4 -6 3 -14 -2 -17 -5 -4 -13 -2 -16 4 -4 6 -18 9 -33
8 -19 -2 -27 2 -30 16 -2 11 0 16 7 12 6 -4 14 1 18 11 15 39 28 42 38 10 6
-18 13 -37 18 -44z m221 -35 c-2 -4 1 -10 7 -14 8 -5 9 -3 4 7 -8 12 -6 12 8
0 16 -13 16 -14 0 -27 -14 -10 -16 -15 -5 -25 6 -7 12 -21 12 -31 0 -10 16
-36 36 -58 20 -22 32 -40 26 -40 -6 0 -14 5 -17 10 -4 6 -16 10 -28 8 -18 -2
-21 1 -19 20 4 29 -34 129 -60 158 -17 19 -17 22 -3 34 8 7 15 27 16 44 1 24
4 19 14 -24 7 -30 11 -58 9 -62z m-244 2 c0 -5 -2 -10 -4 -10 -3 0 -8 5 -11
10 -3 6 -1 10 4 10 6 0 11 -4 11 -10z m145 -128 c20 -11 20 -11 -2 -12 -12 0
-29 -7 -37 -16 -22 -21 -36 -9 -34 29 0 18 -3 43 -7 57 -7 22 -4 20 26 -11 19
-20 43 -41 54 -47z m115 -9 c0 -6 -8 -9 -20 -6 -22 6 -23 7 -13 42 l6 23 13
-23 c7 -13 13 -29 14 -36z m-73 -50 c8 -10 11 -12 7 -4 -4 8 -2 12 5 10 7 -3
13 -9 13 -14 0 -6 4 -17 9 -26 9 -18 -14 -59 -34 -59 -8 0 -8 3 1 12 29 29 1
77 -45 78 -13 0 -23 5 -23 10 0 17 52 11 67 -7z m65 -30 c22 -20 23 -39 3 -47
-8 -3 -15 -11 -15 -17 0 -7 9 -5 25 5 26 17 49 13 42 -7 -2 -7 3 -17 12 -23
13 -10 13 -17 1 -53 -7 -22 -16 -41 -19 -41 -3 1 -19 21 -34 45 -24 38 -34 45
-61 45 -18 0 -41 -9 -53 -20 -14 -12 -23 -15 -25 -8 -3 8 -18 9 -57 1 -44 -9
-51 -8 -47 4 3 8 6 18 6 21 0 4 4 1 9 -7 8 -12 16 -13 48 -3 21 6 57 16 81 22
52 13 79 48 62 79 -13 25 -3 27 22 4z m149 -3 c3 -8 2 -27 -3 -43 -7 -19 -7
-32 2 -42 10 -12 9 -15 -3 -15 -15 0 -15 -4 -2 -41 21 -57 19 -60 -15 -41 -27
15 -30 21 -25 49 6 33 -25 113 -44 113 -5 0 -12 7 -15 16 -5 13 -2 15 14 11
11 -3 23 -1 26 4 9 14 58 6 65 -11z m-17 -222 c20 -31 32 -123 17 -132 -6 -4
-8 -12 -5 -18 5 -7 2 -8 -6 -3 -10 6 -12 4 -7 -8 3 -9 2 -19 -2 -22 -5 -3 -11
2 -15 10 -3 8 -1 17 5 20 5 4 6 11 3 17 -15 23 -24 -10 -15 -52 9 -40 14 -47
50 -69 8 -5 14 -28 16 -55 1 -25 4 -49 8 -53 9 -9 9 -23 0 -22 -5 1 -14 1 -21
0 -21 -2 -8 -26 13 -26 12 0 21 -10 26 -28 4 -16 12 -34 18 -41 7 -8 4 -15 -9
-24 -17 -10 -22 -8 -35 18 -9 17 -23 30 -33 30 -9 0 -24 5 -32 11 -12 8 -9 10
12 6 25 -4 49 17 29 25 -5 2 -11 14 -15 28 -6 20 -5 22 4 10 10 -12 11 -12 5
5 -4 11 -9 37 -12 57 -8 57 -22 35 -17 -27 4 -56 -6 -72 -26 -36 -15 28 -12
94 4 117 8 10 13 30 10 44 -12 55 -14 56 -40 25 -29 -37 -31 -28 -3 24 22 44
24 58 13 116 l-7 40 37 -32 c48 -43 56 -42 17 2 -17 20 -31 42 -31 50 0 23 28
18 44 -7z m58 -65 c-10 -28 -10 -28 -11 12 -1 28 2 36 10 28 8 -8 8 -19 1 -40z
m-134 -75 c-12 -38 -36 -68 -53 -68 -6 0 -20 6 -30 14 -18 13 -18 15 -1 40 17
27 47 44 78 45 15 1 16 -3 6 -31z m131 -30 c-4 -24 -8 -46 -9 -50 0 -14 -28
-8 -34 7 -3 8 -1 15 4 15 5 0 14 16 21 35 18 48 28 44 18 -7z m-99 -33 c0 -8
-4 -15 -10 -15 -5 0 -10 7 -10 15 0 8 5 15 10 15 6 0 10 -7 10 -15z m0 -238
c0 -18 -2 -19 -10 -7 -13 20 -13 43 0 35 6 -3 10 -16 10 -28z m35 23 c3 -5 2
-10 -4 -10 -5 0 -13 5 -16 10 -3 6 -2 10 4 10 5 0 13 -4 16 -10z m29 -74 c34
-35 82 -136 65 -136 -22 0 -119 134 -119 165 0 15 26 1 54 -29z m313 2 c-3 -8
-6 -5 -6 6 -1 11 2 17 5 13 3 -3 4 -12 1 -19z m-390 -7 c12 -19 11 -19 -18 -9
-23 8 -27 13 -17 19 19 12 22 11 35 -10z m-102 -1 c3 -6 -1 -7 -9 -4 -18 7
-21 14 -7 14 6 0 13 -4 16 -10z m262 -42 c10 -13 25 -24 33 -26 15 -4 30 -21
30 -36 0 -4 -9 2 -20 15 l-21 24 6 -32 c13 -64 -24 -29 -55 52 -12 31 2 33 27
3z m160 -20 c-3 -8 -6 -5 -6 6 -1 11 2 17 5 13 3 -3 4 -12 1 -19z m-127 -93
c15 9 12 -11 -4 -24 -12 -10 -17 -8 -25 8 -15 27 -14 36 4 21 8 -6 19 -9 25
-5z m125 -45 c-2 -4 4 -19 15 -32 l19 -25 -44 10 c-25 6 -45 14 -45 19 0 4 5
8 10 8 6 0 10 6 10 14 0 15 20 26 33 19 4 -2 5 -8 2 -13z m10 -114 c12 -53 21
-166 13 -166 -4 0 -9 4 -12 9 -10 16 -54 196 -50 203 9 15 42 -17 49 -46z m78
-1 c16 -11 16 -13 -3 -30 -22 -20 -19 -47 8 -77 16 -19 9 -36 -31 -69 -16 -13
-17 -20 -8 -37 14 -27 4 -28 -26 -3 -23 19 -30 32 -15 30 27 -4 32 3 27 39 -3
20 -7 64 -9 97 -2 33 -7 69 -12 80 -8 20 -8 20 21 1 17 -11 38 -24 48 -31z"/>
<path d="M1315 3949 c-4 -6 -5 -12 -2 -15 2 -3 7 2 10 11 7 17 1 20 -8 4z"/>
<path d="M1505 3700 c3 -5 8 -10 11 -10 2 0 4 5 4 10 0 6 -5 10 -11 10 -5 0
-7 -4 -4 -10z"/>
<path d="M1533 3693 c-3 -10 -8 -21 -10 -25 -10 -19 6 -5 21 17 9 14 12 25 6
25 -6 0 -13 -8 -17 -17z"/>
<path d="M1370 2295 c-10 -12 -10 -15 2 -15 8 0 15 7 15 15 0 8 -1 15 -2 15
-2 0 -8 -7 -15 -15z"/>
<path d="M1527 1721 c3 -11 11 -22 19 -25 17 -6 17 -1 4 25 -14 25 -30 25 -23
0z"/>
<path d="M1500 1700 c0 -5 5 -10 10 -10 6 0 10 5 10 10 0 6 -4 10 -10 10 -5 0
-10 -4 -10 -10z"/>
<path d="M1845 4080 c-4 -6 -11 -8 -16 -5 -5 4 -9 -1 -9 -9 0 -9 0 -19 -1 -23
0 -4 5 -9 12 -12 7 -2 9 1 4 9 -6 10 -2 11 18 7 22 -6 24 -4 20 13 -7 25 -19
34 -28 20z"/>
<path d="M1868 4018 c6 -6 8 -16 6 -22 -3 -7 6 -21 18 -32 l23 -19 -19 23
c-24 27 -16 40 8 13 10 -11 19 -31 20 -45 0 -14 5 -26 10 -26 4 0 6 -6 3 -14
-3 -7 -1 -18 5 -24 6 -6 12 -47 15 -92 4 -71 1 -88 -22 -137 -14 -31 -23 -58
-21 -60 9 -10 57 106 66 162 20 114 21 131 11 116 -7 -11 -12 -8 -26 12 -23
35 -12 67 23 67 23 0 19 5 -28 30 -30 17 -57 36 -61 42 -4 6 -15 13 -25 14
-11 2 -13 -1 -6 -8z"/>
<path d="M702 3998 c-7 -7 -12 -16 -12 -21 0 -5 7 -1 16 8 9 9 14 18 12 20 -2
3 -10 -1 -16 -7z"/>
<path d="M639 3933 c-13 -16 -12 -17 4 -4 9 7 17 15 17 17 0 8 -8 3 -21 -13z"/>
<path d="M556 3865 c-11 -8 -18 -17 -15 -19 2 -3 15 4 29 14 14 11 21 20 15
19 -5 0 -19 -6 -29 -14z"/>
<path d="M1910 3851 c0 -4 9 -16 19 -25 19 -17 19 -17 14 2 -5 20 -33 39 -33
23z"/>
<path d="M505 3820 c-3 -5 -1 -10 4 -10 6 0 11 5 11 10 0 6 -2 10 -4 10 -3 0
-8 -4 -11 -10z"/>
<path d="M465 3790 c-3 -5 -2 -10 4 -10 5 0 13 5 16 10 3 6 2 10 -4 10 -5 0
-13 -4 -16 -10z"/>
<path d="M410 3739 c0 -5 5 -7 10 -4 6 3 10 8 10 11 0 2 -4 4 -10 4 -5 0 -10
-5 -10 -11z"/>
<path d="M240 3620 c-19 -11 -31 -19 -27 -20 11 0 67 29 67 35 0 7 -1 7 -40
-15z"/>
<path d="M140 3580 c-13 -8 -13 -10 2 -10 9 0 20 5 23 10 8 13 -5 13 -25 0z"/>
<path d="M140 1820 c20 -13 33 -13 25 0 -3 6 -14 10 -23 10 -15 0 -15 -2 -2
-10z"/>
<path d="M211 1796 c10 -9 89 -46 89 -41 0 5 -75 45 -86 45 -4 0 -5 -2 -3 -4z"/>
<path d="M310 1740 c0 -5 5 -10 11 -10 5 0 7 5 4 10 -3 6 -8 10 -11 10 -2 0
-4 -4 -4 -10z"/>
<path d="M410 1660 c0 -5 5 -10 11 -10 5 0 7 5 4 10 -3 6 -8 10 -11 10 -2 0
-4 -4 -4 -10z"/>
<path d="M460 1620 c0 -13 18 -22 24 -11 3 5 -1 11 -9 15 -8 3 -15 1 -15 -4z"/>
<path d="M500 1590 c0 -5 5 -10 11 -10 5 0 7 5 4 10 -3 6 -8 10 -11 10 -2 0
-4 -4 -4 -10z"/>
<path d="M1922 1568 c-7 -7 -12 -16 -12 -21 0 -5 7 -1 16 8 9 9 14 18 12 20
-2 3 -10 -1 -16 -7z"/>
<path d="M555 1540 c10 -11 23 -20 28 -20 6 0 2 9 -8 20 -10 11 -23 20 -28 20
-6 0 -2 -9 8 -20z"/>
<path d="M630 1476 c0 -2 7 -9 15 -16 9 -7 15 -8 15 -2 0 5 -7 12 -15 16 -8 3
-15 4 -15 2z"/>
<path d="M1310 1461 c0 -6 4 -13 10 -16 6 -3 7 1 4 9 -7 18 -14 21 -14 7z"/>
<path d="M737 1369 c7 -7 15 -10 18 -7 3 3 -2 9 -12 12 -14 6 -15 5 -6 -5z"/>
<path d="M1714 1305 c-19 -15 -19 -15 0 -8 13 4 17 3 12 -5 -3 -6 -2 -13 3
-16 5 -3 11 3 14 14 7 27 -6 33 -29 15z"/>
<path d="M1763 1305 c0 -8 4 -15 9 -15 4 0 8 4 8 9 0 6 -4 12 -8 15 -5 3 -9
-1 -9 -9z"/>
<path d="M916 1242 c-3 -5 1 -9 9 -9 8 0 12 4 9 9 -3 4 -7 8 -9 8 -2 0 -6 -4
-9 -8z"/>
<path d="M1436 651 c-4 -7 -5 -15 -2 -18 9 -9 19 4 14 18 -4 11 -6 11 -12 0z"/>
<path d="M1420 609 c0 -5 5 -7 10 -4 6 3 10 8 10 11 0 2 -4 4 -10 4 -5 0 -10
-5 -10 -11z"/>
<path d="M1355 560 c-3 -5 -1 -10 4 -10 6 0 11 5 11 10 0 6 -2 10 -4 10 -3 0
-8 -4 -11 -10z"/>
<path d="M1455 110 c-10 -11 -15 -23 -11 -28 4 -4 13 1 20 11 17 22 55 22 72
0 7 -10 16 -15 20 -11 13 13 -28 48 -56 48 -15 0 -35 -9 -45 -20z"/>
<path d="M1440 51 c0 -14 41 -41 61 -41 23 0 66 36 56 47 -5 4 -13 0 -18 -10
-12 -21 -52 -22 -73 -2 -17 17 -26 19 -26 6z"/>
</g>
</svg>
