<?xml version="1.0" standalone="no"?>
<!DOCTYPE svg PUBLIC "-//W3C//DTD SVG 20010904//EN"
 "http://www.w3.org/TR/2001/REC-SVG-20010904/DTD/svg10.dtd">
<svg version="1.0" xmlns="http://www.w3.org/2000/svg"
 width="900.000000pt" height="900.000000pt" viewBox="0 0 900.000000 900.000000"
 preserveAspectRatio="xMidYMid meet">
<metadata>
Created by potrace 1.10, written by Peter Selinger 2001-2011
</metadata>
<g transform="translate(0.000000,900.000000) scale(0.100000,-0.100000)"
fill="#000000" stroke="none">
<path d="M1807 5553 c-32 -5 -47 -31 -26 -44 8 -5 51 -9 96 -9 45 0 85 -4 88
-10 3 -5 15 -10 26 -10 22 0 81 -23 165 -66 165 -84 289 -198 339 -312 18 -42
18 -43 -4 -98 -18 -43 -21 -57 -11 -69 9 -11 17 -12 30 -5 31 17 148 12 183
-7 42 -23 87 -64 87 -79 0 -6 10 -18 23 -27 19 -13 20 -16 5 -22 -10 -4 -28 2
-47 16 -25 18 -34 20 -44 10 -17 -18 34 -58 85 -66 52 -9 98 -49 98 -84 0 -32
-46 -131 -61 -131 -16 0 -89 44 -89 54 0 13 -177 181 -225 214 -22 15 -49 35
-60 45 -11 11 -29 23 -40 28 -11 5 -33 18 -50 28 -85 55 -166 82 -318 107 -74
12 -106 13 -129 5 -17 -6 -44 -11 -61 -11 -37 0 -117 -39 -117 -57 0 -23 32
-27 62 -10 36 21 246 25 265 6 7 -7 31 -12 54 -12 55 0 135 -36 179 -81 19
-19 42 -36 51 -36 24 0 90 -51 122 -94 27 -34 28 -39 13 -55 -23 -25 -21 -28
30 -36 34 -5 55 -16 85 -46 61 -61 51 -82 -39 -86 -40 -2 -56 2 -70 17 -10 10
-38 21 -67 25 -27 3 -69 11 -93 17 -36 9 -45 8 -62 -7 -17 -15 -31 -17 -111
-10 -51 4 -104 11 -118 17 -14 6 -42 14 -61 18 -60 13 -134 42 -219 84 -59 29
-154 126 -185 189 -20 42 -26 74 -32 160 -5 78 -10 107 -20 107 -7 0 -15 -8
-17 -17 -26 -92 -12 -203 32 -268 17 -25 31 -50 31 -55 0 -5 8 -13 18 -19 13
-8 14 -12 5 -22 -10 -10 -16 -9 -31 4 -10 9 -21 17 -25 17 -3 0 -35 20 -71 45
-37 25 -68 45 -70 45 -7 0 -134 87 -201 138 -88 67 -178 156 -221 220 -21 32
-42 59 -45 62 -3 3 -10 15 -13 28 -4 12 -19 30 -33 39 -21 14 -26 14 -34 2
-13 -21 -11 -39 5 -45 8 -3 17 -16 20 -30 4 -13 11 -24 16 -24 6 0 10 -6 10
-13 0 -7 15 -36 34 -64 19 -28 42 -70 52 -92 10 -23 26 -42 38 -45 12 -3 62
-38 111 -79 151 -122 283 -207 435 -282 164 -81 265 -125 340 -147 19 -5 49
-21 67 -34 19 -15 45 -24 67 -24 77 0 149 -60 193 -160 27 -61 53 -112 62
-120 4 -3 12 -18 19 -33 13 -30 35 -32 40 -4 2 9 -8 45 -21 79 -20 52 -23 75
-19 135 l4 73 97 -2 c53 -1 104 -6 113 -12 13 -8 21 -7 30 2 20 20 37 14 87
-33 26 -25 55 -45 63 -45 9 0 18 -7 22 -15 3 -10 19 -15 45 -15 46 0 90 -22
137 -68 59 -57 42 -67 -43 -26 -69 32 -193 64 -252 64 -34 0 -54 -7 -76 -24
-16 -13 -27 -27 -23 -31 4 -4 60 -8 125 -9 65 0 127 -6 138 -12 11 -6 38 -19
60 -29 22 -10 69 -48 105 -85 36 -36 88 -77 115 -90 96 -46 215 -151 215 -191
0 -23 18 -35 64 -42 22 -4 42 -10 45 -15 3 -5 29 -17 58 -26 48 -16 55 -16
102 0 33 11 59 27 76 49 27 37 31 56 14 86 -8 16 -13 18 -25 8 -8 -6 -14 -18
-14 -26 0 -8 -10 -28 -21 -45 -20 -28 -25 -30 -73 -26 -67 6 -117 38 -252 163
-147 137 -162 153 -190 197 -32 50 -38 133 -11 152 26 20 21 45 -10 52 -47 10
-82 30 -124 70 -34 33 -36 46 -8 78 l20 24 50 -24 c27 -13 52 -24 55 -24 4 0
30 -21 59 -47 28 -27 68 -60 87 -75 30 -23 39 -38 49 -85 16 -70 15 -88 -11
-138 -47 -93 7 -75 63 21 46 79 70 95 141 97 49 2 56 0 58 -18 3 -18 11 -20
68 -21 99 -1 169 -49 222 -152 12 -23 37 -54 55 -68 35 -27 99 -144 109 -203
4 -20 10 -40 14 -46 4 -5 10 -27 14 -47 7 -39 29 -51 40 -23 7 20 -4 104 -15
111 -5 3 -9 16 -9 30 0 72 -134 296 -243 405 -36 37 -86 77 -111 90 -71 35
-60 60 53 118 l44 22 54 -37 c51 -35 65 -49 141 -140 63 -74 142 -243 142
-301 0 -13 12 -42 26 -65 41 -64 65 -243 43 -311 -20 -61 -18 -141 3 -145 12
-2 19 5 23 25 4 15 12 42 18 58 20 50 15 298 -6 375 -10 36 -26 90 -34 120
-16 54 -37 110 -55 140 -4 8 -11 22 -14 30 -3 8 -10 22 -15 30 -5 8 -12 22
-15 30 -10 27 -37 74 -73 130 -42 64 -38 60 -94 130 -23 30 -68 89 -99 130
-31 41 -73 89 -93 105 -20 17 -51 42 -68 58 -34 30 -67 36 -67 11 0 -16 27
-45 105 -114 56 -49 105 -108 105 -125 0 -30 -70 -18 -150 27 -8 4 -24 12 -35
17 -11 5 -37 21 -58 35 -21 14 -41 26 -45 26 -23 0 -228 215 -310 325 -25 34
-72 118 -78 140 -3 14 -10 25 -14 25 -4 0 -10 20 -12 45 -6 51 -22 75 -50 75
-26 0 -34 -27 -14 -49 9 -10 16 -26 16 -37 0 -29 40 -122 89 -204 25 -41 47
-77 50 -80 3 -3 19 -24 34 -47 16 -23 66 -79 111 -125 84 -84 109 -126 110
-182 1 -31 1 -31 66 -36 73 -6 130 -26 130 -44 0 -15 -32 -46 -47 -46 -6 0
-24 -7 -39 -15 -44 -23 -180 -20 -235 4 -51 23 -100 72 -118 117 -11 27 -10
37 4 64 9 17 14 34 11 38 -3 3 -24 -1 -47 -8 -53 -18 -82 -3 -115 60 -41 78
-30 142 29 163 10 4 17 13 14 20 -3 8 -27 12 -73 12 -67 0 -144 24 -144 44 0
5 -8 12 -17 15 -18 7 -44 21 -98 56 -16 11 -39 24 -51 29 -20 9 -74 73 -74 88
0 5 -20 31 -45 60 -25 28 -45 60 -45 71 0 22 -15 36 -49 47 -14 4 -48 24 -75
44 -101 71 -180 121 -193 121 -7 0 -13 5 -13 10 0 6 -6 10 -12 10 -7 0 -25 6
-39 14 -77 40 -248 72 -322 59z m778 -525 c32 -15 32 -24 -2 -31 -29 -5 -45 7
-36 30 6 16 6 16 38 1z m293 -178 c7 -12 24 -25 38 -31 22 -8 25 -13 19 -37
-11 -45 -20 -43 -50 15 -11 21 -25 42 -32 46 -7 4 -13 12 -13 17 0 18 25 10
38 -10z m-296 -172 c-11 -11 -42 0 -42 15 0 6 -7 18 -16 28 -9 10 -13 23 -9
29 5 8 19 -1 41 -26 19 -21 30 -42 26 -46z m390 -46 c8 -9 18 -25 21 -34 4
-11 19 -18 48 -20 23 -2 44 -7 46 -13 5 -17 -56 -45 -97 -45 -37 0 -38 1 -43
43 -2 23 -6 47 -7 52 -1 6 -1 30 0 55 2 44 2 45 10 12 4 -18 14 -41 22 -50z
m-294 -10 c3 -9 -2 -13 -14 -10 -9 1 -19 9 -22 16 -3 9 2 13 14 10 9 -1 19 -9
22 -16z m1133 -132 c28 -16 23 -30 -11 -30 -28 0 -40 17 -23 33 8 9 11 9 34
-3z m-1107 -9 c3 -5 35 -12 71 -16 63 -6 95 -23 95 -49 0 -20 63 -74 90 -78
17 -2 25 -9 25 -23 1 -11 4 -26 9 -33 11 -18 -8 -36 -29 -28 -11 4 -14 13 -10
25 3 12 0 21 -10 25 -23 8 -153 94 -159 105 -4 5 -24 12 -47 16 -22 4 -43 13
-46 20 -2 8 -18 17 -34 20 -45 10 -45 25 0 25 22 0 42 -4 45 -9z m1010 1 c6
-11 -48 -52 -67 -52 -8 0 -20 -7 -27 -15 -7 -8 -16 -15 -19 -15 -4 0 -28 -20
-54 -44 -47 -43 -120 -76 -170 -76 -14 0 -27 -7 -31 -15 -3 -8 -10 -15 -16
-15 -14 0 -13 27 2 32 7 3 13 15 13 29 0 22 4 24 65 29 61 5 96 18 128 48 7 6
20 12 28 12 8 0 14 5 14 10 0 6 8 14 17 17 9 4 26 15 37 25 12 11 26 23 31 28
13 12 42 12 49 2z"/>
<path d="M7096 5535 c-15 -8 -36 -15 -45 -15 -56 0 -442 -236 -450 -275 -2
-11 -25 -44 -52 -74 -27 -30 -49 -60 -49 -65 -1 -20 -49 -66 -96 -91 -26 -14
-62 -36 -80 -50 -18 -14 -37 -25 -43 -25 -5 0 -14 -6 -18 -13 -4 -7 -24 -21
-44 -30 -31 -14 -45 -15 -93 -5 -51 10 -59 9 -74 -7 -12 -12 -13 -19 -5 -22 7
-2 23 -13 37 -24 66 -52 -2 -219 -88 -219 -8 0 -31 9 -51 21 -33 20 -35 20
-28 3 4 -11 16 -31 27 -46 19 -27 19 -28 0 -65 -52 -102 -110 -133 -245 -133
-68 0 -101 4 -115 15 -10 8 -26 15 -35 15 -17 0 -49 30 -49 47 0 17 82 43 137
43 54 0 63 8 63 55 0 43 25 83 88 141 67 61 182 208 223 284 13 24 30 50 37
58 6 7 12 19 12 27 0 7 7 26 15 41 8 16 15 46 15 66 0 20 5 40 10 43 6 3 10
15 10 26 0 14 -7 19 -25 19 -29 0 -45 -30 -45 -85 0 -19 -4 -36 -9 -40 -5 -3
-12 -19 -16 -35 -4 -17 -10 -30 -15 -30 -5 0 -12 -10 -16 -22 -11 -38 -136
-199 -205 -265 -132 -128 -186 -167 -302 -221 -67 -32 -137 -42 -137 -20 0 26
78 111 159 173 52 40 57 49 42 74 -8 12 -16 10 -48 -14 -38 -28 -129 -119
-168 -166 -44 -54 -175 -228 -175 -233 0 -3 -12 -24 -27 -48 -16 -24 -33 -52
-40 -63 -22 -38 -83 -161 -83 -169 0 -4 -6 -22 -13 -39 -14 -33 -34 -98 -62
-199 -8 -31 -18 -110 -21 -176 -6 -99 -4 -125 10 -152 9 -18 16 -43 16 -54 1
-31 44 -80 64 -73 20 8 21 35 2 56 -18 22 -39 98 -39 146 0 22 5 74 11 115 10
68 18 97 49 170 6 14 19 52 29 85 16 54 65 165 97 221 27 46 120 144 172 179
l55 38 56 -27 c55 -27 94 -58 94 -75 0 -5 -21 -22 -47 -37 -27 -15 -70 -48
-97 -73 -46 -43 -166 -192 -166 -206 0 -4 -12 -27 -27 -53 -36 -61 -73 -151
-73 -178 0 -11 -7 -35 -16 -53 -17 -35 -12 -81 9 -81 15 0 44 61 53 111 6 33
21 72 52 134 9 17 39 57 69 91 29 34 53 66 53 73 0 15 79 101 93 101 6 0 19 8
29 17 27 24 155 24 173 0 14 -20 69 -24 63 -4 -3 6 -16 13 -30 15 -15 2 -30
13 -36 27 l-11 25 57 -3 c76 -5 94 -16 138 -89 36 -61 59 -88 76 -88 14 0 9
28 -14 74 -20 42 -21 48 -7 112 13 63 18 71 59 101 25 18 63 51 85 72 49 46
110 74 156 69 30 -3 34 -7 37 -34 2 -25 -3 -37 -28 -58 -17 -14 -38 -26 -46
-26 -8 0 -14 -4 -14 -10 0 -5 -18 -14 -40 -20 -22 -6 -40 -14 -40 -18 0 -4 9
-25 21 -46 19 -36 20 -44 8 -80 -7 -23 -19 -48 -26 -57 -7 -8 -13 -20 -13 -25
0 -11 -64 -80 -110 -118 -19 -15 -64 -56 -100 -90 -77 -72 -146 -122 -183
-131 -15 -4 -47 -4 -72 -1 -44 7 -45 8 -45 46 0 30 -5 40 -20 45 -28 9 -40 -2
-40 -35 0 -41 31 -90 60 -96 14 -2 39 -9 56 -14 43 -14 53 -13 109 16 28 15
68 29 90 33 31 4 41 11 43 27 5 38 99 130 179 178 43 25 112 77 153 116 96 89
152 118 254 131 85 11 119 23 113 42 -9 29 -151 11 -244 -29 -17 -8 -34 -14
-39 -14 -4 0 -15 -7 -25 -16 -10 -9 -25 -14 -34 -10 -15 5 -14 10 5 37 31 43
93 79 136 79 36 0 78 25 149 91 29 27 33 28 166 30 75 1 142 -2 149 -6 8 -5
10 -20 6 -47 -4 -21 -2 -47 4 -57 7 -14 6 -27 -5 -48 -8 -15 -15 -34 -15 -41
0 -7 -7 -23 -15 -36 -16 -24 -11 -56 9 -56 13 1 62 77 91 143 12 26 27 53 33
59 7 7 12 17 12 24 0 6 19 30 41 53 37 36 47 41 89 41 36 0 56 7 88 30 23 17
47 30 53 30 14 0 102 28 146 47 17 7 34 13 37 13 9 0 199 95 266 132 98 55
321 208 392 269 117 100 148 137 148 174 0 48 -28 47 -72 -4 -44 -51 -185
-173 -264 -228 -162 -111 -190 -130 -204 -136 -8 -4 -28 -16 -45 -26 -16 -11
-33 -20 -37 -20 -11 -1 -10 37 1 43 28 18 87 192 76 226 -7 22 -39 32 -54 17
-6 -6 -11 -41 -11 -77 0 -86 -16 -117 -104 -205 -71 -70 -146 -117 -215 -135
-20 -5 -67 -18 -106 -30 -38 -11 -104 -25 -145 -30 -41 -5 -87 -12 -101 -15
-17 -4 -31 0 -43 14 -14 16 -23 18 -49 10 -18 -5 -46 -9 -64 -9 -18 0 -54 -7
-80 -16 -26 -10 -75 -17 -108 -18 -55 -1 -60 1 -63 22 -5 31 55 87 105 99 34
8 38 12 46 53 5 25 16 53 25 64 24 27 224 156 243 156 8 0 19 4 25 9 5 6 34
14 64 20 30 5 73 14 95 20 23 6 78 8 131 4 67 -4 93 -2 99 6 16 26 -40 47
-152 58 -63 6 -242 -34 -330 -73 -17 -8 -34 -14 -38 -14 -4 0 -24 -13 -44 -28
-20 -16 -43 -32 -51 -35 -27 -12 -55 -32 -63 -44 -4 -7 -14 -13 -22 -13 -7 0
-75 -61 -151 -135 -141 -139 -165 -153 -198 -119 -9 8 -16 25 -16 36 0 11 -7
26 -16 33 -12 8 -15 20 -11 36 10 41 31 60 82 78 68 22 103 47 88 62 -9 9 -18
8 -37 -5 -31 -20 -46 -20 -46 -1 0 8 4 15 9 15 5 0 19 16 32 35 13 20 44 47
67 61 40 23 52 26 130 23 48 -2 92 0 99 4 9 6 7 19 -7 53 -38 87 -20 135 88
245 103 103 285 216 380 235 18 4 35 11 38 15 3 5 36 9 73 9 69 0 101 15 86
40 -10 16 -155 12 -189 -5z m-536 -515 c0 -24 -9 -29 -43 -23 -34 7 -34 18 1
36 32 16 42 13 42 -13z m-300 -161 c0 -14 -32 -69 -41 -69 -4 0 -12 -13 -19
-30 -16 -39 -30 -38 -30 2 0 24 10 42 37 70 38 39 53 47 53 27z m320 -137 c0
-18 -27 -44 -42 -41 -23 6 -4 49 22 49 11 0 20 -4 20 -8z m-410 -66 c0 -36 -4
-68 -10 -71 -5 -3 -10 -19 -10 -36 0 -27 -3 -29 -35 -29 -42 0 -98 26 -92 43
2 7 20 13 41 15 29 3 41 10 56 35 11 18 20 42 20 54 0 28 10 53 21 53 5 0 9
-29 9 -64z m-840 -181 c0 -8 -9 -15 -20 -15 -11 0 -20 7 -20 15 0 8 9 15 20
15 11 0 20 -7 20 -15z m111 -2 c21 -10 39 -23 39 -29 0 -7 10 -14 22 -18 19
-4 20 -8 10 -18 -11 -11 -16 -10 -26 5 -7 9 -19 17 -25 17 -15 0 -71 41 -71
52 0 12 9 10 51 -9z m967 -15 c-2 -16 -14 -26 -38 -33 -52 -17 -110 -44 -110
-53 0 -4 -21 -20 -46 -37 -25 -16 -52 -42 -60 -57 -19 -36 -44 -37 -44 -2 0
35 17 64 38 64 18 0 51 29 100 88 22 26 38 34 82 41 83 13 82 13 78 -11z
m-844 -73 c8 -8 19 -15 24 -15 5 0 15 -7 22 -15 6 -7 33 -17 58 -21 54 -8 82
-20 82 -35 0 -11 -34 -9 -106 6 -17 4 -48 22 -69 41 -21 19 -43 34 -47 34 -5
0 -6 5 -3 10 9 14 21 12 39 -5z"/>
<path d="M3417 4184 c-16 -16 -5 -25 26 -22 17 2 31 8 30 13 -3 12 -46 19 -56
9z"/>
</g>
</svg>
